<?xml version="1.0" encoding="utf-8"?>
<!-- Generator: Adobe Illustrator 19.0.1, SVG Export Plug-In . SVG Version: 6.00 Build 0)  -->
<svg version="1.1" id="Layer_1" xmlns="http://www.w3.org/2000/svg" xmlns:xlink="http://www.w3.org/1999/xlink" x="0px" y="0px"
	 viewBox="0 0 26.4 60.3" style="enable-background:new 0 0 26.4 60.3;" xml:space="preserve">
<style type="text/css">
	.st0{fill:none;}
	.st1{fill:#FFFFFF;stroke:#0555A5;stroke-width:2;stroke-miterlimit:10;}
	.st2{fill:#E7CBE2;stroke:#0555A5;stroke-width:2;stroke-miterlimit:10;}
	.st3{fill:#642C82;}
	.st4{font-family:'ZapfDingbatsITC';}
	.st5{font-size:18.1834px;}
</style>
<path class="st0" d="M687.5,192h-9c-1.1,0-2-0.9-2-2v-8.3c0-1.1,0.9-2,2-2h9c1.1,0,2,0.9,2,2v8.3C689.5,191.1,688.6,192,687.5,192z"
	/>
<path class="st1" d="M17.8,23.5h-10c-2.8,0-5-2.2-5-5v-10c0-2.7,2.2-5,5-5h10c2.8,0,5,2.3,5,5v10C22.8,21.3,20.6,23.5,17.8,23.5z"/>
<path class="st2" d="M17.8,57h-10c-2.8,0-5-2.2-5-5V42c0-2.8,2.2-5,5-5h10c2.8,0,5,2.2,5,5v10C22.8,54.8,20.6,57,17.8,57z"/>
<text transform="matrix(1 0 0 1 5.5362 53.7825)" class="st3 st4 st5">✔</text>
</svg>
