<?xml version="1.0" encoding="utf-8"?>
<!-- Generator: Adobe Illustrator 19.1.0, SVG Export Plug-In . SVG Version: 6.00 Build 0)  -->
<svg version="1.1" id="Layer_1" xmlns="http://www.w3.org/2000/svg" xmlns:xlink="http://www.w3.org/1999/xlink" x="0px" y="0px"
	 viewBox="0 0 315.3 316" style="enable-background:new 0 0 315.3 316;" xml:space="preserve">
<style type="text/css">
	.st0{fill:#FFFFFF;stroke:#D54799;stroke-width:14.947;stroke-miterlimit:10;}
	.st1{fill:none;}
	.st2{fill:#F4E5BA;}
	.st3{fill:#FFC60B;}
	.st4{fill:#71BFD8;}
	.st5{fill:#D8D6EC;}
	.st6{fill:#AB4A9C;}
	.st7{fill:#F190AC;}
	.st8{fill:#FFFFFF;}
	.st9{fill:#0071B5;}
</style>
<g>
	<circle class="st0" cx="156.4" cy="160.8" r="144.6"/>
	<g id="XMLID_1_">
		<path class="st1" d="M315.3-7.2c0,102.7,0,205.5,0,308.2c-107.3,0-214.6,0-321.9,0c0-102.7,0-205.5,0-308.2
			C100.7-7.2,208-7.2,315.3-7.2z M269.8,214.3c0-1.5,0.3-3,0.2-4.5c-0.2-2.6-0.3-5.1-0.8-7.6c-0.4-2-1.4-3.9-2-5.9
			c-1.2-4.4-2.2-9-3.5-13.4c-2-6.9-4.2-13.6-6-20.5c-0.8-2.8-1.4-5.7,0.5-8.5c2.2-3.1,2.8-6.9,3.3-10.5c0.4-3.5,0.1-6.9-1.2-10.2
			c-0.9-2.3-1.7-4.7-2.6-7c-0.7-1.8-1.3-3.7-2.4-5.2c-2.8-3.7-5.6-7.5-8.9-10.7c-2-1.9-3.3-3.8-4.2-6.5c-3-8.8-6.5-17.4-9.7-26.1
			c-1.7-4.7-3.7-9.4-4.1-14.5c-0.1-0.6-0.3-1.6,0-1.9c1.9-2.1,1-4.5,0.5-6.7c-1.5-6.7-3.1-13.4-5-20c-0.7-2.4-0.8-5.4-3.7-6.9
			c-0.4-0.2-0.6-0.9-0.8-1.4c-1.6-4.3-3-8.6-4.8-12.8c-0.8-2-1.9-4-3.3-5.4c-3.1-3.1-7.2-3.8-11.3-3.5c-2.8,0.2-5.6,1.2-8.4,1.8
			c-7.5,1.6-14.6,3.9-20.9,8.5c-5.8,4.3-8.4,9.9-7.4,17c0.5,3.2,1.5,6.4,2.1,9.6c0.3,1.6,0.6,3.2-1.2,4.3c-2.9,1.7-6,3.1-8.6,5.2
			c-2.1,1.7-3.7,4-5.3,6.2c-1.2,1.7-1.5,2-3.4,1.4c-6-1.7-12.1-2.9-18.3-0.4c-3.7,1.5-6.6,3.7-8.2,7.5c-0.4,1-0.2,1.6,0.9,1.9
			c1,0.2,2,0.4,3,0.6c2.3,0.6,4.6,1.3,6.3,3.1c-0.2,0.3-0.3,0.4-0.4,0.4c-0.2,0.1-0.3,0.2-0.5,0.2c-4.6,0.2-8.2,2.2-11.5,5.2
			c-0.6,0.5-1.6,0.8-2.4,0.9c-2.3,0.3-4.6,0.4-7,0.7c-1.5,0.2-1.9,1-1,2.2c2.4,3.2,5,6.1,8.8,7.6c1.3,0.5,2.6,1.1,4.2,1.8
			c-1.7,1.2-2.6,3.4-4.9,2.4c-5-2.1-10.2-1.6-15.2-0.9c-6.4,0.9-12.6,3.2-18,6.8c-1.9,1.3-3.6,3.1-5.1,4.9c-1.4,1.7-1.2,3.4,0.4,4.8
			c1.3,1.1,3.1,1.8,4.6,2.6c1.1,0.6,2.2,1,3.6,1.6c-0.6,0.4-0.8,0.5-1,0.6c-5.6,2.8-11.3,5.5-16.8,8.4c-5.5,2.9-8.2,8.1-10.4,13.7
			c-0.5,1.2-0.1,2.2,1,3.2c1.6,1.5,3.4,1.6,5.3,1.8c2.5,0.2,5,0.7,7.4,1.2c0.4,0.1,0.7,0.5,1,0.8c-0.3,0.3-0.6,0.7-1,0.9
			c-1.8,1-3.8,1.8-5.5,2.9c-3,1.9-5.9,3.9-8.7,6c-1.4,1-2.9,2-3.9,3.3c-2.2,2.9-4.1,6-6.2,8.9c-1.5,2.1-2,4.5-2.3,7.1
			c-0.4,3.5,1.8,5,4.4,5.6c1.8,0.4,3.7,0.3,5.5,0.3c2.5,0,5,0.2,7.4,2c-1.3,0.6-2.4,0.9-3.3,1.5c-4.9,3.9-10.1,7.7-11.6,14.3
			c-0.2,0.8,0,2.2,0.5,2.7c1.6,1.3,3.5,2.1,5.3,3.2c1.4,0.8,2.9,1.6,4.2,2.5c0.3,0.2,0.1,1.2,0.1,1.9c-0.6,0-1.4,0.1-1.8-0.2
			c-2-1.4-4.2-2.6-6.7-2.9c-0.9-0.1-1.9-0.5-2.8-0.8c-4.6-1.7-8.3,0.7-8.6,5.5c-0.1,1.1,0.2,2.2,0.1,3.2c0,0.5-0.4,1.4-0.8,1.5
			c-1.9,0.7-4.4-0.9-4.7-3c-0.4-2.6-1.4-4.9-3-7c-2-2.6-3.5-3.3-6.5-2.3c-1.5,0.5-2.1,0-2.7-1.1c-0.3-0.6-0.7-1.1-1.2-1.6
			c-1.8-2.1-3.8-2.8-6.7-2.1c-2.6,0.7-3.7,2.7-5,4.6c-3.2,4.9-5,10.3-3.4,16c1.2,4.6,2.5,9.3,5.7,13.2c1.7,2.1,3,4.7,4.8,6.7
			c4.2,4.8,9.2,8.5,14.9,11.4c4.1,2,8.3,3.7,12.8,4.3c2,0.3,3.9,0.7,5.9,0.8c3.5,0.1,6.9,0.1,10.4,0.1c7.2-0.1,14.2-1.9,21.2-3.5
			c2-0.5,4.1-0.7,6.2-0.8c1.2,0,2.2,0.8,1.7,2.3c-1,2.9-2,5.9-3,8.8c-0.8,2.2-0.4,4.2,1.4,5.7c4.1,3.6,9.1,4.6,14.2,5.4
			c5.3,0.8,10.7,1.5,15.9,2.6c5.3,1.1,10.5,3,15.9,3.9c6,1,12.1,1.4,18.2,1.8c2.9,0.2,5.8-0.1,8.7-0.6c2.2-0.4,4.3-1.5,6.4-2.4
			c3-1.3,4.7-3.8,5.7-6.8c0.6-1.6,0.5-3.1-0.4-4.7c-0.3-0.4-0.2-1.3,0.1-1.7c1.3-1.6,2.8-3.1,5.1-3.2c7.8-0.3,15.7-0.7,23.5-0.9
			c6.1-0.2,11.5-1.9,15.2-7c3-4.2,2.3-9.6-1.5-13.1c-0.8-0.8-1.1-2-1.7-3.1c-1.6-2.9-2.8-6.1-6.4-7.3c-2.9-1-5.7-0.6-8.4,0.3
			c-3.6,1.1-7.2,1.9-10.9,0.8c-1-0.3-2.1-1-2.5-1.9c-0.6-1.2-0.6-2.7,0.8-3.7c3.8-2.8,6.6-6.4,8.9-10.4c1.6-2.7,3.7-4.8,6.7-5.9
			c3.5-1.2,6.8-3.5,10.8-1c2.6,1.7,5.3,3.1,5.9,6.5c0.5,2.9,1.1,5.8,1.7,8.6c0.4,2.1,1.2,4.2,1.3,6.3c0.2,2.6,1.5,4.4,3.2,6.2
			c2,2,3.8,4.2,5.7,6.2c1.4,1.6,2.8,3.3,4.4,4.7c3.4,2.7,7,5.1,10.4,7.8c3.1,2.5,6,5.3,9,8c2.3,2,4.3,4.4,7.3,5.3
			c4.8,1.4,7.8,1.1,9.2-4.6c0.2-0.9,0.4-1.8,0.4-2.7c0-3.4-0.2-6.8-0.2-10.2c0.1-2.4,0.6-4.7,0.7-7.1
			C269.4,231.8,269.5,223,269.8,214.3z"/>
		<path d="M269.9,209.8c0.1,1.5-0.1,3-0.2,4.5c-0.2,8.7-0.4,17.5-0.7,26.2c-0.1,2.4-0.7,4.7-0.7,7.1c-0.1,3.4,0.1,6.8,0.2,10.2
			c0,0.9-0.2,1.8-0.4,2.7c-1.4,5.8-4.3,6-9.2,4.6c-3.1-0.9-5.1-3.3-7.3-5.3c-3-2.7-5.9-5.4-9-8c-3.4-2.7-7-5.1-10.4-7.8
			c-1.7-1.3-3-3.1-4.4-4.7c-1.9-2.1-3.7-4.2-5.7-6.2c-1.8-1.7-3-3.6-3.2-6.2c-0.2-2.1-0.9-4.2-1.3-6.3c-0.6-2.9-1.2-5.7-1.7-8.6
			c-0.6-3.4-3.2-4.9-5.9-6.5c-4-2.6-7.3-0.2-10.8,1c-3,1-5.1,3.1-6.7,5.9c-2.4,4-5.2,7.6-8.9,10.4c-1.4,1-1.4,2.5-0.8,3.7
			c0.4,0.8,1.6,1.6,2.5,1.9c3.7,1.1,7.3,0.3,10.9-0.8c2.8-0.9,5.6-1.3,8.4-0.3c3.6,1.2,4.8,4.4,6.4,7.3c0.6,1,0.9,2.3,1.7,3.1
			c3.8,3.5,4.5,8.9,1.5,13.1c-3.7,5.2-9.1,6.9-15.2,7c-7.8,0.2-15.7,0.7-23.5,0.9c-2.4,0.1-3.8,1.5-5.1,3.2
			c-0.3,0.4-0.3,1.3-0.1,1.7c0.9,1.5,1,3.1,0.4,4.7c-1.1,3-2.7,5.5-5.7,6.8c-2.1,0.9-4.2,2-6.4,2.4c-2.8,0.5-5.8,0.8-8.7,0.6
			c-6.1-0.4-12.2-0.8-18.2-1.8c-5.4-0.9-10.5-2.8-15.9-3.9c-5.3-1.1-10.6-1.8-15.9-2.6c-5.1-0.8-10.1-1.8-14.2-5.4
			c-1.8-1.6-2.1-3.5-1.4-5.7c1-2.9,2-5.8,3-8.8c0.5-1.5-0.5-2.3-1.7-2.3c-2.1,0-4.2,0.3-6.2,0.8c-7,1.7-13.9,3.5-21.2,3.5
			c-3.5,0-6.9,0-10.4-0.1c-2-0.1-3.9-0.5-5.9-0.8c-4.5-0.6-8.7-2.3-12.8-4.3c-5.7-2.8-10.7-6.6-14.9-11.4c-1.8-2.1-3-4.6-4.8-6.7
			c-3.1-3.9-4.4-8.6-5.7-13.2c-1.5-5.7,0.2-11.1,3.4-16c1.3-1.9,2.3-3.9,5-4.6c2.9-0.7,4.9,0,6.7,2.1c0.4,0.5,0.8,1,1.2,1.6
			c0.6,1.1,1.3,1.6,2.7,1.1c3-1,4.5-0.3,6.5,2.3c1.6,2.1,2.6,4.4,3,7c0.3,2.1,2.8,3.7,4.7,3c0.4-0.2,0.8-1,0.8-1.5
			c0.1-1.1-0.2-2.2-0.1-3.2c0.3-4.8,4-7.2,8.6-5.5c0.9,0.3,1.8,0.7,2.8,0.8c2.5,0.4,4.6,1.5,6.7,2.9c0.4,0.3,1.2,0.1,1.8,0.2
			c0-0.6,0.2-1.6-0.1-1.9c-1.3-1-2.8-1.7-4.2-2.5c-1.8-1-3.7-1.9-5.3-3.2c-0.6-0.4-0.7-1.8-0.5-2.7c1.5-6.6,6.7-10.4,11.6-14.3
			c0.8-0.6,1.9-0.9,3.3-1.5c-2.4-1.7-4.9-1.9-7.4-2c-1.8,0-3.8,0.1-5.5-0.3c-2.6-0.6-4.7-2.1-4.4-5.6c0.3-2.6,0.8-4.9,2.3-7.1
			c2.1-3,4-6.1,6.2-8.9c1-1.3,2.5-2.3,3.9-3.3c2.9-2.1,5.7-4.1,8.7-6c1.7-1.1,3.7-1.9,5.5-2.9c0.4-0.2,0.7-0.6,1-0.9
			c-0.3-0.3-0.6-0.8-1-0.8c-2.5-0.4-4.9-0.9-7.4-1.2c-1.9-0.2-3.7-0.3-5.3-1.8c-1-1-1.4-2-1-3.2c2.1-5.6,4.8-10.8,10.4-13.7
			c5.5-2.9,11.2-5.6,16.8-8.4c0.2-0.1,0.4-0.2,1-0.6c-1.4-0.6-2.5-1.1-3.6-1.6c-1.6-0.8-3.3-1.5-4.6-2.6c-1.7-1.4-1.8-3.1-0.4-4.8
			c1.5-1.8,3.2-3.6,5.1-4.9c5.5-3.6,11.6-5.9,18-6.8c5.1-0.7,10.2-1.2,15.2,0.9c2.3,1,3.2-1.2,4.9-2.4c-1.6-0.7-2.9-1.3-4.2-1.8
			c-3.9-1.5-6.5-4.5-8.8-7.6c-0.9-1.2-0.5-2,1-2.2c2.3-0.3,4.6-0.4,7-0.7c0.8-0.1,1.8-0.4,2.4-0.9c3.3-3,6.9-5.1,11.5-5.2
			c0.2,0,0.3-0.1,0.5-0.2c0.1-0.1,0.2-0.2,0.4-0.4c-1.7-1.8-4-2.5-6.3-3.1c-1-0.3-2-0.4-3-0.6c-1.1-0.2-1.3-0.9-0.9-1.9
			c1.6-3.8,4.6-6,8.2-7.5c6.1-2.5,12.2-1.3,18.3,0.4c2,0.6,2.3,0.3,3.4-1.4c1.5-2.2,3.2-4.5,5.3-6.2c2.6-2,5.7-3.5,8.6-5.2
			c1.8-1.1,1.5-2.7,1.2-4.3c-0.6-3.2-1.7-6.4-2.1-9.6c-1-7.1,1.6-12.6,7.4-17c6.3-4.7,13.4-6.9,20.9-8.5c2.8-0.6,5.6-1.6,8.4-1.8
			c4.1-0.3,8.3,0.4,11.3,3.5c1.4,1.5,2.5,3.5,3.3,5.4c1.7,4.2,3.2,8.5,4.8,12.8c0.2,0.5,0.4,1.2,0.8,1.4c2.9,1.4,3,4.4,3.7,6.9
			c1.9,6.6,3.5,13.3,5,20c0.5,2.2,1.4,4.5-0.5,6.7c-0.3,0.4-0.1,1.3,0,1.9c0.4,5.1,2.4,9.7,4.1,14.5c3.2,8.7,6.7,17.3,9.7,26.1
			c0.9,2.7,2.1,4.5,4.2,6.5c3.4,3.2,6.1,7,8.9,10.7c1.1,1.5,1.7,3.4,2.4,5.2c0.9,2.3,1.7,4.7,2.6,7c1.3,3.3,1.7,6.8,1.2,10.2
			c-0.5,3.7-1.1,7.4-3.3,10.5c-1.9,2.8-1.3,5.7-0.5,8.5c1.9,6.9,4.1,13.6,6,20.5c1.3,4.4,2.2,8.9,3.5,13.4c0.5,2,1.6,3.9,2,5.9
			C269.7,204.7,269.8,207.3,269.9,209.8z M265.9,214.2c0-1.1,0.1-2.3,0-3.4c0-0.5-0.3-1.2-0.7-1.3c-0.4-0.2-1.1,0.1-1.6,0.3
			c-0.3,0.1-0.5,0.5-0.7,0.8c-1.2,1.5-2.3,3.1-3.7,4.4c-2.6,2.6-6.1,2.2-9.3,2.1c-3.7-0.1-4.4,0-6.2,3.2c-0.3,0.6-0.7,1.2-1.1,1.8
			c-1.3,2.3-3.5,3.5-6,3.6c-2.2,0.1-4.4-0.4-6.6-0.7c-1.8-0.2-3.1,0.8-3.7,2.2c-0.6,1.5-0.4,2.9,1.1,4.1c3.4,2.9,6.7,6,9.9,9.1
			c2.3,2.3,4.5,4.8,6.7,7.2c1,1.1,1.9,1.3,3-0.1c3.8-4.7,8.5-7.9,14.8-7.9c2,0,3-0.8,3.1-2.8C265.3,229.4,265.5,221.8,265.9,214.2
			C265.8,214.2,265.9,214.2,265.9,214.2z M262.9,205.6c1.4-1.1,1.6-2.3,1.3-3.9c-1-6.8-2.6-13.4-4.7-19.9
			c-2.1-6.6-4.1-13.2-6.1-19.9c-0.7-2.3-1.6-4.5-4.1-5.6c-0.4-0.2-0.6-0.7-0.8-1.1c-2-3.1-2.5-6.7-3-10.2c-0.3-1.7-1.1-2.3-2.7-1.8
			c-0.6,0.2-1.1,0.4-1.7,0.6c-1.2,0.3-1.8,1-1.5,2.4c0.8,3.2,1.4,6.5,2.4,9.7c1,3.5,2.5,6.9,3.5,10.3c2.5,8.1,5,16.2,7.4,24.4
			c0.9,3.1,1.5,6.4,2.3,9.6c0.8,3.2,1.7,6.4,2.6,10.1C259.8,208.4,261.3,206.9,262.9,205.6z M258.1,143.5c0.5-3.2,0.2-6.7-1.9-9.5
			c-1.3-1.7-1.9-3.4-2.1-5.7c-0.4-4.8-3.4-8-7.7-10.1c-0.6-0.3-1.4-1.2-1.4-1.7c0.2-2.2-1.2-3.4-2.7-4.5c-2.2-1.7-4.8-1.5-7.4-1.7
			c-0.5,0-1.1-0.2-1.6-0.1c-1,0.2-2.7,0.3-2.8,0.8c-0.4,1,0.1,2.4,0.3,3.6c0,0.3,0.3,0.5,0.5,0.7c2,3,4.1,5.7,7.6,7.2
			c2,0.9,2.1,2.3,0.8,4.1c-1.1,1.6-2.3,3.1-3.3,4.7c-1.1,1.8-2.3,3.7-3.1,5.7c-0.9,2.5,0.4,4.2,3,4.2c3.3,0.1,5.8-1.7,8.3-3.7
			c0.8-0.6,2-1.2,3-1c1.3,0.1,1.6,1.4,1.9,2.7c0.8,4.3,1.8,8.5,2.8,12.8c0.1,0.5,0.8,1.3,1.2,1.3c0.5,0,1.3-0.5,1.5-1
			C256.2,149.5,257.6,146.6,258.1,143.5z M255.5,212.4c0.3-0.1,0.7-1,0.6-1.4c-1.1-5.5-2.3-11-3.5-16.5c-0.4-1.6-0.9-3.2-1.4-4.8
			c-2.3-7.7-4.6-15.5-7-23.2c-2.1-6.8-4.3-13.6-6.4-20.4c-0.3-1-0.6-1.2-1.6-1.1c-1.4,0.1-2.9,0.1-4.3-0.1c-1.5-0.2-3.3-2-3.1-3.5
			c0.2-3,0.4-6.1,1.2-9c0.6-2.3,2.2-4.4,3.4-6.8c-0.1-0.1-0.4-0.2-0.6-0.4c-3.1-3-6.4-5.8-7.5-10.2c-0.5-2.1-1.7-4.3-0.1-6.2
			c1.2-1.3,1-2.4,0.4-3.7c-0.3-0.6-0.7-1.3-0.9-2c-1.6-4.8-3.1-9.6-4.8-14.3c-0.8-2.2-1.9-4.2-2.9-6.4c-1.7,1.8-3.3,3.5-4.9,5.2
			c1.4,0.9,2.7,1.7,3.9,2.6c4,3.2,5.2,8,7,12.5c0.5,1.3-0.1,2.2-1.5,2.2c-1.4,0-2.8-0.2-4.2-0.3c-2-0.2-3.9-0.8-5.8-0.8
			c-2.5,0-2.8,0.6-2.6,3c0.1,0.7,0.2,1.4,0.4,2.1c0.8,2.7,1.7,5.4,2.4,8.1c2.7,10.8,5.3,21.6,7.9,32.4c0.5,2.1,1.7,3.1,3.7,3.5
			c3.4,0.6,5.3,2.6,5.5,6.1c0.1,3-0.1,6.1-0.4,9.1c-0.3,2.8,0.6,3.8,3.3,4.4c3.8,0.8,7.4,2.2,8.6,6.5c0.8,2.8-0.1,6.6-2.4,8.4
			c-1.4,1.1-3.1,1.8-4.5,2.9c-0.7,0.5-1.4,1.5-1.4,2.2c0.2,1.9,0.7,3.8,1.4,5.7c1.1,3.1,1.9,6-0.4,9c-0.5,0.6-0.6,1.7-0.5,2.5
			c0.8,4.2,1.7,8.3,2.7,13c1.3-0.8,2.3-1,2.9-1.7c1.3-1.4,2.3-3.1,3.6-4.5c3.4-3.7,3.9-5,8.9-3.6C252.2,213.3,254,212.7,255.5,212.4
			z M233.9,185.5c1.6-0.8,3-2.1,2.9-4c-0.1-1.9-1.5-3.4-3.3-4.1c-0.7-0.3-1.5-0.6-2.2-0.5c-2.9,0.2-5.8,0.6-8.7,0.8
			c-0.4,0-0.8,0-1.2-0.1c-2.3-0.9-2.6-2.4-1.3-4.7c1.4-2.4,2.8-4.9,3.8-7.5c0.6-1.8,0.6-3.9,0.5-5.8c-0.2-1.9-1.2-2.5-3-2
			c-1.9,0.6-3.9,1.3-5.6,2.3c-4.8,2.7-8.5,6.6-12.1,10.6c-0.8,0.9-1.9,1.5-3,2c-1.9,0.8-3.8,1.5-5.8,1.9c-5.1,1.3-10.3,2.6-15.5,3.6
			c-1.8,0.4-3.9-0.1-5.7,0.3c-2.2,0.5-3.3-0.9-4.6-2.1c-0.2-0.2,0.1-1.6,0.3-1.6c1.4-0.3,2.8-0.5,4.2-0.6c1.5-0.1,3.1,0.1,4.6-0.2
			c4.9-0.9,9.7-1.9,14.6-3.1c3.2-0.8,6.5-1.9,8.8-4.4c2.6-2.8,5.1-5.7,7.5-8.6c0.4-0.5,0.7-1.3,0.9-1.9c0.5-2.2,1-4.3,1.2-6.5
			c0.4-3.8,0.6-7.6-3.2-10.2c-1.1-0.7-2.1-2-3.2-1.1c-0.6,0.4-0.4,2.1-0.3,3.1c0.5,3.4,0.4,3.6-2.9,4.5c-0.4,0.1-0.8,0.3-1.2,0.5
			c-3.7,1-7.3,2.5-11.1,2.9c-5.7,0.6-11.5,0.7-17.2,0.5c-4.1-0.1-8.3-1-12.4-1.7c-4-0.8-7.5-3-11-5c-5.5-3.2-10.8-6.6-15.4-11.1
			c-0.4-0.4-0.9-0.6-1.4-0.7c-3.2-0.9-6.5-1.6-9.7-2.5c-1.6-0.5-3-1.3-4.5-2.1c-0.3-0.2-0.4-0.8-0.4-1.2c0-0.1,0.7-0.4,1-0.4
			c1.3,0.1,2.6,0.3,3.9,0.4c5.1,0.4,9.8-0.6,13.8-4c0.6-0.5,1.7-1.1,2.2-0.9c0.6,0.2,1,1.4,1,2.2c0,0.7-0.4,1.5-0.9,2.1
			c-2,2.3-2,5.2,0.2,7.3c1.4,1.3,2.9,2.5,4.4,3.6c1,0.8,1.9,0.8,3-0.2c2.5-2.4,5.1-4.7,8.5-5.9c5-1.8,9.6,0.8,10.1,6.1
			c0.2,2.4,0.2,4.8,0.1,7.1c-0.1,1.4,0.2,2.1,1.8,2.2c2.4,0.1,4.8,0.4,7.1,0.6c8.1,0.8,16-0.3,23.7-2.8c1.2-0.4,1.7-1,1.8-2.3
			c0-7.8-1-15.4-5.1-22.3c-3.2-5.4-6.4-5.7-12.5-4.4c-2.6,0.5-5,1.6-7.6,2.2c-2.6,0.6-5.3,0.8-8-0.1c-2.4-0.8-4.7-1.7-7.1-2.6
			c-4.2-1.5-8.3-3.2-12.5-4.4c-2.5-0.7-5.3-0.8-7.9-1.2c-0.6-0.1-1.3-0.4-1.9-0.5c0.2-0.7,0.2-1.6,0.7-2.1c1.7-1.8,4-2,6.2-1.5
			c1.7,0.4,2.2-0.2,2.5-1.7c0.7-2.6,1.5-5.2,2.4-7.7c1-2.7,0.6-3.6-2.3-4.1c-0.4-0.1-0.8-0.1-1.2-0.2c-5.9-0.7-11.5,0.8-17.1,2.7
			c-4.6,1.6-8.4,4.2-11.5,7.9c-1.2,1.4-2.8,2.5-4.4,3.5c-3.5,2.2-7.5,3.7-10.5,6.4c-7.6,6.9-14.4,14.6-18.6,24.2
			c-0.4,0.8-0.8,1.7-1.2,2.5c0.1,0.1,0.2,0.2,0.4,0.4c1.4-0.3,2.8-0.5,4.1-1.1c3.1-1.3,5.9-0.8,8.2,1.5c2.5,2.5,4.7,5.3,6.9,8.2
			c2,2.7,2.9,5.8,2.7,9.1c-0.4,7.3-3.1,13.7-8.5,18.6c-4,3.6-8.6,6.2-14.4,4.9c-3.6-0.9-7.3-1.9-10.8-3c-1.1-0.4-1.6-0.1-1.8,0.9
			c-0.1,0.5-0.2,0.9-0.2,1.4c-0.8,6.2-1.6,12.5-2.3,18.7c-0.2,1.9,0,3.8,0,5.7c0,1.1,0.3,2.4-0.3,3.2c-1.4,1.9-2.9,3.9-4.8,5.3
			c-3.9,2.8-8,5.5-12.8,6.7c-5.1,1.3-10,1.2-14.9-0.9c-3.8-1.6-7-4.1-10-6.9c-1.6-1.4-2.9-3.3-4.2-5c-0.6-0.8-0.7-1.8-1.2-2.6
			c-0.7-1.3-1.4-2.8-3.2-2.7c-1.9,0.2-3.5,0.9-4.5,2.9c-1.9,3.9-1.5,7.9-1.1,12.1c0.8,8.3,4.8,14.8,10.2,20.7
			c3.5,3.8,7.6,6.8,12.5,8.8c5.2,2.1,10.4,3.9,16.1,4.2c4.9,0.2,9.7,0,14.7-0.4c8.1-0.6,15.2-3.7,22.4-6.8c1.3-0.5,1.7-1.4,1.3-2.7
			c-0.3-1-0.4-2-0.5-3c-0.2-1.2,0-2.3,1.5-2.6c1.5-0.3,2.1,0.6,2.4,1.8c0.2,0.6,0.4,1.2,0.7,1.8c1.1,2.2,2.2,4.5,3.4,6.7
			c1.9,3.6,1.2,6.9-1,10.1c-1.1,1.5-2.1,3.1-3,4.7c-1.4,2.6-1.2,3.5,1.4,4.9c5,2.6,10.5,4,16.1,3.4c5.7-0.6,10.7,1.3,16,2.5
			c4.3,1,8.5,2.8,12.8,4c5.3,1.5,10.8,2,16.4,1.3c3.2-0.4,6.4-1.2,9.5-1.9c0.9-0.2,1.8-0.6,2.6-1.2c2.4-1.7,3.4-4.6-0.8-5.8
			c-3.9-1.2-7.8-2.1-11.8-3.1c-1.2-0.3-2.2-0.8-2.2-2.2c0.1-1.5,1.5-1.3,2.5-1.6c0.4-0.1,0.8,0.1,1.2,0.2c1.8,0.4,3.6,1,5.5,1
			c2.5,0,4.9-0.4,7.4-0.9c0.7-0.1,1.4-1.1,1.6-1.9c0.1-0.4-0.7-1.3-1.3-1.7c-0.7-0.5-1.5-0.7-2.3-1c-2.7-0.9-5.5-1-8.4-0.5
			c-1.3,0.2-2.6,0.2-2.8-1.6c-0.1-1.2,1-2.2,2.6-2.1c2.4,0.1,4.9,0.5,7.3,0.6c0.6,0,1.2-0.2,1.8-0.2c-0.2-0.7-0.2-1.5-0.6-1.9
			c-0.5-0.5-1.3-0.9-2-1c-2.6-0.1-5.1-0.2-7.7-0.1c-1.9,0.1-3.8,0.6-4.8,2.6c-0.2,0.5-0.8,1.1-1.3,1.2c-0.9,0.3-2,0.5-2.8,0.2
			c-1.1-0.4-1.3-1.5-0.8-2.6c0.2-0.5,0.4-1.1,0.7-1.7c2.7-6.6,2.5-12.7-2.7-18.1c-1.2-1.2-2.2-2.7-3.2-4.1c-0.9-1.3-0.1-3.1,1.1-2.8
			c1.4,0.3,3,0.8,4,1.8c3.2,2.8,5.9,6.2,7.1,10.4c0.4,1.2,1.1,1.5,2.2,1.1c5.8-2.5,11.8-4.8,17.4-7.6c3.1-1.6,5.9-3.9,8.5-6.2
			c2-1.8,3.5-4.1,5.2-6.2c0.7-0.9,0.5-1.6-0.8-1.6c-1.2,0-2.5,0-3.7,0.3c-3.1,0.6-6-0.4-8.9-1.3c-0.3-0.1-0.7-0.7-0.6-1
			c0.1-0.5,0.5-1.1,0.9-1.2c1.1-0.4,2.2-0.7,3.3-0.8c5.1-0.2,10.1-1.1,14.9-2.7c5.5-1.9,11-4.1,16.4-6.3c3.3-1.3,3.2-1.3,5.3,1.4
			c3.9,4.9,9,6.7,15.1,5.7c0.6-0.1,1.6-1,1.6-1.5c0.3-4-0.5-7.7-2.7-11.1c-1.3-2-0.7-4.5,1.5-5.5
			C229.5,187.7,231.7,186.7,233.9,185.5z M233.9,105.4c3.6,0.5,3.6,0.4,2.5-2.9c-1.6-4.6-2.9-9.4-4.5-14c-1.9-5.5-3.8-10.9-5.8-16.4
			c-1-2.6-2.2-5-3.1-7.6c-0.5-1.3-1.2-1.7-2.4-1.6c-1.5,0.2-3.1,0.5-4.6,0.7c-1.6,0.2-2.1,1.1-1.7,2.6c0.5,2,1,4,1.6,5.9
			c2,6,4.1,12,6.1,18c1.7,4.9,3.3,9.7,5,14.6c0.5,1.5,1.3,2,3,1.4C231.3,105.6,232.7,105.6,233.9,105.4z M233.7,222.3
			c-0.9-4.4-1.6-8-2.5-11.7c-0.1-0.2-1.1-0.5-1.4-0.3c-2.3,1.3-4.7,1.6-7.3,1.3c-1.3-0.1-1.7,0.5-1.5,1.7c0.6,2.6,1.1,5.3,1.6,7.9
			c0.2,0.8,0.5,1.6,0.9,2.9C226.5,221.2,229.6,219.9,233.7,222.3z M223.7,58.5c0.9-0.1,1.8-0.2,1.6-1.4c-0.4-2.3-0.7-4.7-1.1-7
			c-0.3-1.7-0.6-3.3-1-5c-0.6-2.8-1.5-5.5-2.3-8.2c-0.3-1.1-0.7-2.2-1-3.3c-0.5-1.5-1.3-2.9-2.9-3.1c-3.3-0.3-6.7-0.8-10-0.4
			c-4.3,0.5-8.5,2-12.8,2.9c-7.9,1.7-15,5.1-22.1,8.9c-0.9,0.5-2.8,0.6-2.3,2.2c0.5,1.5,2,0.4,3,0.5c1,0.1,2.4,0.3,2.9,1
			c0.5,0.7,0.3,2,0.3,3.3c0.9-0.5,2.1-1.2,3.4-1.7c4.8-1.7,9.6-3.3,14.3-5.1c7.9-2.9,16-4.4,24.3-5.6c0.5-0.1,1.2,0.4,1.7,0.7
			c-0.5,0.3-1,0.7-1.5,0.8c-3.7,0.8-7.5,1.4-11.3,2.3c-4.4,1.1-8.8,2.3-13.1,3.7c-5.1,1.8-10.1,3.9-15.1,6c-1.5,0.6-3.5,1.6-4,2.8
			c-1,2.6-1.1,5.5-1.4,8.2c0,0.3,0.7,1.1,1,1.1c2.1-0.2,4.2-0.3,6.2-1c5.5-1.9,11-4,16.4-6.1c7.9-3,16.1-4.4,24.4-5.7
			c0.5-0.1,1.1-0.1,1.6,0c0.3,0.1,0.5,0.4,0.6,0.7c0,0,0,0,0,0c0,0.2-0.3,0.5-0.5,0.6c-0.4,0.2-0.9,0.1-1.4,0.2
			c-5.7,1.1-11.5,1.9-17.1,3.5c-6.6,1.9-13,4.4-19.8,6.8c3.8,0.9,7,0.5,9.7-1.9c2.8,1.1,1.9,3.5,1.9,5.4c0.3,0.1,0.5,0.2,0.6,0.2
			c1.2-0.4,2.4-0.9,3.5-1.3C208.3,61.3,215.9,59.1,223.7,58.5z M218.4,153c0.3-0.2,0.7-0.8,0.6-1.2c-0.1-1-0.5-2-0.8-2.9
			c-1.6-5.9-3.4-11.7-4.7-17.7c-1.6-8-3.3-16-6.6-23.6c-0.2-0.5-0.7-0.9-1-1.3c-0.4,0.4-1,0.7-1.3,1.1c-1.1,2.4-2.2,4.8-3.1,7.2
			c-0.9,2.6-1.5,5.2-0.4,8c0.8,2,1.1,4.3,1.7,6.4c0.1,0.5,0.4,1.1,0.7,1.4c2.3,1.6,4.6,3.2,6.9,4.8c0.6,0.4,1.1,0.9,1.6,1.4
			c2.7,2.9,3.3,6.6,3.3,10.4c0,2.2-0.2,4.5-0.3,7.1C216.4,153.7,217.5,153.4,218.4,153z M218.2,100.3c-0.7-1.6-1.1-2.8-1.7-3.9
			c-1.9-3.9-4.9-6.1-9.4-5.6c-1.6,0.2-2.2-1.1-2.4-2.2c-0.1-0.7,0.5-1.8,1.2-2.4c1.4-1.4,3.1-2.4,4.5-3.8c0.7-0.7,1.1-1.9,1.6-2.9
			c-0.9-0.3-1.9-0.8-2.8-0.8c-3.4-0.1-6.5-1.1-9.5-2.8c-2.4-1.3-5.1-1.6-7.7,0.1c-0.4,0.3-0.9,0.5-1.3,0.5c-0.5,0.1-1.2,0.1-1.5-0.2
			c-0.2-0.3-0.2-1,0-1.4c0.6-1.4,1.4-2.7,1.8-4.1c0.5-1.8,0.7-3.6,1.1-5.7c-1.1,0.2-1.6,0.3-2.2,0.3c-3.3,0.3-6.5,0.6-9.8,0.7
			c-3,0.1-5.7,0.7-7.5,3.4c-0.3,0.5-0.9,0.9-1.6,1.6c-0.4-1.2-0.9-2.1-1-3c-0.5-5.1-0.4-10.3,0.9-15.3c0.6-2.3,0.3-2.8-2.1-2.1
			c-7.3,2-13.6,5.3-15.9,13.3c-0.4,1.5-1.6,1.8-2.9,1.2c-2.8-1.2-5.5-2.7-8.4-3.5c-4.1-1.1-8.4-1.2-12.5,0.6c-0.7,0.3-1.2,1-1.8,1.5
			c0.5,0.5,1,1.1,1.6,1.6c2.4,1.7,4.8,3.4,7.2,5.1c0.5,0.3,0.8,0.9,1.1,1.4c1.1,1.9,0.2,3.5-2,3.6c-2,0.1-4-0.2-5.9,0.1
			c-1.7,0.3-3.4,1.1-4.9,1.9c-1.4,0.7-2.5,1.8-3.8,2.7c-1.5,1-3.1,2-4.6,3c0.1,0.1,0.1,0.3,0.2,0.4c2.6,2.2,5.7,3.2,8.8,4.1
			c0.4,0.1,0.9,0,1.4-0.2c5.2-1.4,10.6-2.2,15.9-2.1c5.4,0.2,10.5-0.5,15.1-3.4c1.4-0.8,2.8-1.6,4.2-2.4c2.7-1.6,5.8-2,8.5-1.1
			c5.1,1.6,10.1,3.5,14.1,7.2c1.8,1.7,3.6,2.1,5.9,1.9c4.5-0.3,8.1,1.3,10.7,5c1.5,2.1,2.5,4.5,2.6,7.1c0,1,0.1,2,1.8,1.7
			c2.5-0.4,5.1-0.6,7.6-0.8C214.5,100.5,216.1,100.4,218.2,100.3z M213.5,75.7c1,0.1,1.4-0.5,1.1-1.5c-0.9-2.9-1.7-5.7-2.6-8.6
			c-0.1-0.4-0.9-0.9-1.3-0.8c-5,0.7-9.5,2.5-14,5.8c2.2,1,4.4,1.5,5.9,2.8C205.9,76.3,209.8,75.5,213.5,75.7z M209.9,250.1
			c2-1.2,2.6-3.2,1.8-5.3c-0.7-1.8-1.8-2.3-4.4-1.9c-1.2,0.2-2.4,0.6-3.6,1.1c-1.4,0.7-2.3-0.2-3.2-0.9c-0.2-0.2,0.4-1.7,1-2.3
			c0.8-0.7,1.9-0.9,2.9-1.4c2-1,2.1-2.6,0.2-3.8c-0.7-0.4-1.7-0.4-2.5-0.3c-1,0.2-1.9,0.8-2.9,1c-0.5,0.1-1.6,0-1.7-0.2
			c-0.2-0.7-0.2-1.7,0.2-2.1c0.8-0.8,1.9-1.2,2.9-1.7c0.8-0.4,1.6-0.7,2.3-1.1c0-0.2-0.1-0.5-0.1-0.7c-0.9-0.1-1.7-0.3-2.6-0.3
			c-4.9,0.1-9.5,1.6-14.1,3.4c-1.9,0.7-3.9,1.3-5.8,1.7c-1.6,0.3-2.5-0.9-1.8-2.3c0.6-1.3,0.3-2-0.7-2.8c-1.1-0.9-2.1-1.1-3.2-0.1
			c-0.4,0.3-0.9,0.5-1.4,0.7c-5,2.4-9.9,4.7-14.9,7.1c-0.9,0.4-1.6,1.2-2.6,2c2.1,0.5,3.7,0.8,5.3,1.4c1.6,0.7,3.2,1.5,4.5,2.6
			c1.2,1,2.4,2.4,3,3.8c1.4,3.5,2.9,4.8,6.7,5c1.5,0.1,3-0.1,4.5,0c3.8,0.1,7.7,0.6,11.5,0.4c4.9-0.2,9.9-0.9,14.8-1.5
			C207.2,251.6,208.6,250.9,209.9,250.1z M210.1,25.9c1.9,0.2,2.1-0.2,1.6-2.1c-0.7-3.1-1.5-6.1-2.2-9.2c-0.3-1.4-1-2.4-2.3-2.7
			c-2.8-0.7-5.7-1.7-8.6-1.7c-10.5,0.1-19.6,4.1-27.2,11.2c-0.5,0.5-0.7,1.5-0.8,2.3c-0.2,1.7,0.1,3.5-0.2,5.1
			c-0.6,2.8,0,5.5,0.3,8.6c0.7-0.4,1-0.5,1.2-0.7c4.1-3.5,9.1-5.2,13.9-7.4c1.2-0.5,2.4-1.2,3.7-1.4
			C196.3,26.6,203.1,25.2,210.1,25.9z M200,106.1c0.6-5.1-1.2-9.4-5.5-12.5c-1.6-1.1-3.3-2.1-5.3-1.3s-2.9,2.3-2.6,4.5
			c0.1,0.6-0.3,1.3-0.3,1.9c-0.1,0.8,0,1.7,0,2.8c0.9-0.2,1.5-0.4,2-0.6c2.8-1.1,5.3,0.4,5.8,3.4c0.3,2-0.1,3.7-1.2,5.3
			c-0.6,0.9-0.5,1.5,0.5,2c0.6,0.3,1.2,0.5,1.7,0.9c1.2,0.9,2.3,0.6,2.8-0.6C198.7,110.2,199.8,108.2,200,106.1z M183.1,95.3
			c0.1-2.7-0.9-5.1-2.9-7.1c-3.3-3.2-7.3-4.4-11.8-4.3c-4.5,0.1-8.4,1.5-11.6,5.1c-3.6,4.1-6.3,8.4-6.9,13.8
			c-0.3,2.5,0.5,3.4,2.8,3.4c0.5-2.9,2.2-4.9,4.7-6.2c3.1-1.6,7.3-0.8,8.2,3.4c0.5,2,0.3,3.9-1,5.6c-1.1,1.5-1,1.9,0.8,2.6
			c4.7,1.8,9.1,0.8,13.2-1.8c0.8-0.5,1.4-1.4,1.8-2.2C182,103.7,183,99.6,183.1,95.3z M158.6,142.4c2.2,0.9,2.6,0.5,2.5-2
			c-0.1-0.8-0.2-1.7-0.3-2.5c-0.1-0.9-0.1-1.8-0.2-2.7c-0.2-2.1-1.8-3.4-3.9-3.2c-2.7,0.2-4.7,1.6-6.5,3.5c-1.2,1.3-1.3,2.2,0.3,3
			C153.1,139.9,155.8,141.2,158.6,142.4z M107.7,100c1.7-1.1,3.3-2.3,4.4-4.5c-1-0.1-1.6-0.2-2.3-0.1c-7.2,0.3-14.3,1.6-20.9,4.5
			c-2.4,1-4.3,3.4-6.3,5.4c-0.8,0.8-0.6,1.7,0.7,2.2c2.2,0.8,4.4,1.7,6.4,2.7c1.6,0.8,2.8,0.9,3.9-0.8c0.5-0.7,1.2-1.3,2-1.8
			C99.6,105,103.7,102.5,107.7,100z M95.1,165c1.1-3.4,2.5-6.7,2.4-10.4c-0.2-1.4-0.3-2.7-0.5-4.1c-0.4-2.9-2-4.7-4.7-6.1
			c-3.5-1.9-7-1.7-10.4-1c-1.6,0.3-3.5,1.4-4.5,2.7c-1.2,1.6-1.7,3.8-2.3,5.8c-1.3,4-2.4,8.1-3.9,12.1c-0.9,2.6-0.2,4.6,1.2,6.7
			c2.8,3.9,11.7,3.9,15.4,2.2C91.4,171.2,93.8,168.8,95.1,165z M86.9,117.4c-0.1-0.2-0.2-0.3-0.3-0.5c-0.9,0.2-1.8,0.4-2.7,0.7
			c-2.9,1.3-5.8,2.8-8.7,4.1c-5.4,2.5-9.3,6.4-12,11.6c-1.2,2.3-0.5,3.5,2.1,3.6c2.6,0.2,5.1,0.5,7.7,0.6c0.5,0,1.3-0.4,1.6-0.8
			c0.4-0.5,0.6-1.3,0.9-2c2-4.6,4.3-8.9,7.6-12.7C84.3,120.6,85.6,119,86.9,117.4z M68,151.7c0.2-0.6,0.4-1.2,0.5-1.8
			c-0.1-0.1-0.3-0.2-0.4-0.4c-0.8,0.5-1.7,0.9-2.5,1.5c-5.4,3.8-9.9,8.4-14,13.6c-0.8,1.1-1.8,2.2-2.2,3.5c-1.6,4.8-0.9,4.9,3.3,5.6
			c0.6,0.1,1.2,0,1.8,0c2.3,0.1,4.6,0.1,6.8,0.5c1.3,0.2,1.7-0.2,1.7-1.4c0.1-2.3,0-4.7,0.6-7C65,161,66.6,156.4,68,151.7z
			 M60.4,197.9c1.4-3.9,0-7.8,0-12.2c-1,0.6-1.6,0.8-2,1.3c-1.8,2-3.6,3.9-5.2,6.1c-1.3,1.7-0.9,3,1.1,4.1c1.2,0.6,2.5,1.1,3.7,1.8
			C59.2,199.7,59.9,199.4,60.4,197.9z M50.7,209.3c1.2-0.7,1.1-1.5-0.1-2.1c-1.6-0.7-3.3-1.3-5-1.9c-2.2-0.6-2.9-0.1-3.3,2.1
			c-0.1,0.5-0.1,1.1-0.1,1.6c0.1,1.1-0.4,2.5,1.5,2.4C46.1,211.4,48.5,210.6,50.7,209.3z M27.6,207.4c0.1-1.9-0.8-3.8-2-4.4
			c-0.4-0.2-1.1-0.2-1.5,0c-0.2,0.1-0.4,0.7-0.4,1C24,205.6,25.9,207.2,27.6,207.4z"/>
		<path class="st2" d="M265.8,210.8c0.1,1.1,0,2.3,0,3.4c0,0-0.1,0-0.1,0c-0.3,7.6-0.5,15.2-0.9,22.8c-0.1,2-1.1,2.8-3.1,2.8
			c-6.3,0-11,3.2-14.8,7.9c-1.2,1.4-2,1.2-3,0.1c-2.2-2.4-4.4-4.9-6.7-7.2c-3.2-3.1-6.5-6.2-9.9-9.1c-1.4-1.3-1.7-2.7-1.1-4.1
			c0.6-1.5,1.9-2.4,3.7-2.2c2.2,0.2,4.4,0.7,6.6,0.7c2.5-0.1,4.7-1.3,6-3.6c0.4-0.6,0.8-1.2,1.1-1.8c1.8-3.2,2.4-3.4,6.2-3.2
			c3.2,0.1,6.7,0.5,9.3-2.1c1.3-1.3,2.4-2.9,3.7-4.4c0.2-0.3,0.4-0.6,0.7-0.8c0.5-0.2,1.1-0.5,1.6-0.3
			C265.5,209.6,265.8,210.3,265.8,210.8z"/>
		<path class="st3" d="M264.2,201.7c0.2,1.6,0,2.9-1.3,3.9c-1.6,1.3-3.1,2.8-5.1,4.6c-0.9-3.7-1.8-6.9-2.6-10.1
			c-0.8-3.2-1.4-6.4-2.3-9.6c-2.4-8.2-4.9-16.3-7.4-24.4c-1.1-3.5-2.5-6.8-3.5-10.3c-1-3.2-1.6-6.5-2.4-9.7c-0.3-1.3,0.3-2,1.5-2.4
			c0.6-0.2,1.1-0.4,1.7-0.6c1.6-0.5,2.5,0.1,2.7,1.8c0.5,3.6,1,7.1,3,10.2c0.3,0.4,0.5,0.9,0.8,1.1c2.4,1.1,3.3,3.3,4.1,5.6
			c2,6.6,4,13.3,6.1,19.9C261.6,188.3,263.3,194.9,264.2,201.7z"/>
		<path class="st4" d="M256.2,134.1c2.1,2.8,2.4,6.2,1.9,9.5c-0.5,3.1-2,6-3.1,8.9c-0.2,0.5-1,1-1.5,1c-0.5-0.1-1.1-0.8-1.2-1.3
			c-1-4.2-2-8.5-2.8-12.8c-0.2-1.3-0.6-2.6-1.9-2.7c-1-0.1-2.2,0.4-3,1c-2.5,2-5,3.8-8.3,3.7c-2.6,0-3.9-1.7-3-4.2
			c0.7-2,1.9-3.8,3.1-5.7c1-1.6,2.2-3.1,3.3-4.7c1.3-1.8,1.1-3.3-0.8-4.1c-3.4-1.5-5.6-4.2-7.6-7.2c-0.2-0.2-0.5-0.5-0.5-0.7
			c-0.2-1.2-0.6-2.5-0.3-3.6c0.2-0.5,1.8-0.6,2.8-0.8c0.5-0.1,1.1,0,1.6,0.1c2.5,0.2,5.2-0.1,7.4,1.7c1.5,1.2,2.9,2.3,2.7,4.5
			c0,0.5,0.8,1.4,1.4,1.7c4.3,2,7.3,5.2,7.7,10.1C254.3,130.6,254.9,132.3,256.2,134.1z"/>
		<path class="st3" d="M256.1,211c0.1,0.4-0.3,1.3-0.6,1.4c-1.5,0.3-3.3,0.9-4.7,0.6c-5-1.4-5.5-0.1-8.9,3.6
			c-1.3,1.4-2.3,3.1-3.6,4.5c-0.6,0.6-1.6,0.9-2.9,1.7c-1-4.6-1.9-8.8-2.7-13c-0.2-0.8,0-1.9,0.5-2.5c2.3-3,1.5-5.9,0.4-9
			c-0.6-1.8-1.1-3.8-1.4-5.7c-0.1-0.7,0.7-1.7,1.4-2.2c1.4-1.1,3.1-1.8,4.5-2.9c2.2-1.7,3.2-5.6,2.4-8.4c-1.3-4.3-4.8-5.7-8.6-6.5
			c-2.7-0.6-3.5-1.6-3.3-4.4c0.3-3,0.5-6.1,0.4-9.1c-0.2-3.4-2.1-5.4-5.5-6.1c-2.1-0.4-3.2-1.4-3.7-3.5c-2.6-10.8-5.3-21.6-7.9-32.4
			c-0.7-2.7-1.6-5.4-2.4-8.1c-0.2-0.7-0.3-1.4-0.4-2.1c-0.2-2.4,0.1-3,2.6-3c1.9,0,3.9,0.5,5.8,0.8c1.4,0.2,2.8,0.4,4.2,0.3
			c1.3,0,2-0.9,1.5-2.2c-1.8-4.5-3.1-9.3-7-12.5c-1.2-1-2.5-1.7-3.9-2.6c1.6-1.7,3.2-3.3,4.9-5.2c1,2.2,2.1,4.3,2.9,6.4
			c1.7,4.7,3.2,9.5,4.8,14.3c0.2,0.7,0.6,1.3,0.9,2c0.6,1.3,0.8,2.4-0.4,3.7c-1.6,1.9-0.4,4.1,0.1,6.2c1,4.5,4.4,7.2,7.5,10.2
			c0.2,0.2,0.5,0.4,0.6,0.4c-1.2,2.4-2.7,4.5-3.4,6.8c-0.8,2.9-1,6-1.2,9c-0.1,1.5,1.6,3.3,3.1,3.5c1.4,0.2,2.9,0.2,4.3,0.1
			c0.9-0.1,1.3,0.1,1.6,1.1c2.1,6.8,4.3,13.6,6.4,20.4c2.4,7.7,4.6,15.5,7,23.2c0.5,1.6,1,3.2,1.4,4.8
			C253.9,200,255,205.5,256.1,211z"/>
		<path class="st4" d="M236.8,181.5c0.1,1.9-1.3,3.2-2.9,4c-2.2,1.1-4.4,2.2-6.6,3.2c-2.2,0.9-2.8,3.5-1.5,5.5
			c2.2,3.3,3,7.1,2.7,11.1c0,0.6-1,1.4-1.6,1.5c-6.1,1-11.2-0.8-15.1-5.7c-2.1-2.7-2-2.7-5.3-1.4c-5.4,2.2-10.8,4.4-16.4,6.3
			c-4.8,1.6-9.8,2.6-14.9,2.7c-1.1,0-2.3,0.4-3.3,0.8c-0.4,0.1-0.7,0.7-0.9,1.2c-0.1,0.3,0.3,0.9,0.6,1c2.9,0.9,5.7,2,8.9,1.3
			c1.2-0.2,2.5-0.3,3.7-0.3c1.3,0,1.5,0.7,0.8,1.6c-1.7,2.1-3.2,4.4-5.2,6.2c-2.6,2.3-5.4,4.7-8.5,6.2c-5.6,2.8-11.6,5.1-17.4,7.6
			c-1.1,0.5-1.8,0.2-2.2-1.1c-1.2-4.2-3.9-7.5-7.1-10.4c-1-0.9-2.6-1.4-4-1.8c-1.2-0.3-1.9,1.6-1.1,2.8c1,1.4,2,2.9,3.2,4.1
			c5.3,5.4,5.4,11.5,2.7,18.1c-0.2,0.5-0.4,1.1-0.7,1.7c-0.5,1.1-0.3,2.2,0.8,2.6c0.8,0.3,1.9,0,2.8-0.2c0.5-0.2,1-0.7,1.3-1.2
			c1-2,2.9-2.5,4.8-2.6c2.6-0.1,5.1-0.1,7.7,0.1c0.7,0,1.5,0.5,2,1c0.4,0.4,0.4,1.3,0.6,1.9c-0.6,0.1-1.2,0.3-1.8,0.2
			c-2.4-0.2-4.9-0.5-7.3-0.6c-1.6-0.1-2.7,0.9-2.6,2.1c0.1,1.8,1.5,1.8,2.8,1.6c2.8-0.5,5.6-0.3,8.4,0.5c0.8,0.2,1.6,0.5,2.3,1
			c0.6,0.4,1.4,1.2,1.3,1.7c-0.2,0.8-0.9,1.8-1.6,1.9c-2.4,0.5-4.9,0.9-7.4,0.9c-1.8,0-3.6-0.7-5.5-1c-0.4-0.1-0.9-0.3-1.2-0.2
			c-1,0.2-2.4,0.1-2.5,1.6c-0.1,1.4,0.9,1.9,2.2,2.2c3.9,1,7.9,1.9,11.8,3.1c4.2,1.2,3.2,4,0.8,5.8c-0.8,0.5-1.7,1-2.6,1.2
			c-3.1,0.7-6.3,1.5-9.5,1.9c-5.5,0.7-11,0.2-16.4-1.3c-4.3-1.2-8.4-3.1-12.8-4c-5.2-1.2-10.3-3-16-2.5C101.5,266,96,264.7,91,262
			c-2.6-1.4-2.9-2.3-1.4-4.9c0.9-1.6,1.9-3.2,3-4.7c2.2-3.2,2.9-6.5,1-10.1c-1.2-2.2-2.3-4.5-3.4-6.7c-0.3-0.6-0.6-1.2-0.7-1.8
			c-0.4-1.2-0.9-2.1-2.4-1.8c-1.5,0.3-1.7,1.4-1.5,2.6c0.1,1,0.2,2,0.5,3c0.4,1.3-0.1,2.2-1.3,2.7c-7.2,3.1-14.3,6.1-22.4,6.8
			c-4.9,0.4-9.8,0.6-14.7,0.4c-5.6-0.3-10.9-2.1-16.1-4.2c-4.9-1.9-9-4.9-12.5-8.8c-5.4-5.9-9.4-12.4-10.2-20.7
			c-0.4-4.2-0.8-8.2,1.1-12.1c0.9-1.9,2.6-2.7,4.5-2.9c1.8-0.2,2.5,1.4,3.2,2.7c0.5,0.8,0.6,1.9,1.2,2.6c1.3,1.8,2.6,3.6,4.2,5
			c3,2.7,6.1,5.3,10,6.9c4.9,2,9.8,2.2,14.9,0.9c4.8-1.2,8.9-3.9,12.8-6.7c1.9-1.3,3.4-3.4,4.8-5.3c0.5-0.8,0.3-2.1,0.3-3.2
			c0-1.9-0.2-3.8,0-5.7c0.7-6.2,1.5-12.5,2.3-18.7c0.1-0.5,0.1-1,0.2-1.4c0.2-1,0.7-1.2,1.8-0.9c3.6,1.1,7.2,2.1,10.8,3
			c5.7,1.3,10.4-1.2,14.4-4.9c5.4-4.9,8.1-11.4,8.5-18.6c0.2-3.3-0.7-6.5-2.7-9.1c-2.2-2.8-4.3-5.7-6.9-8.2
			c-2.2-2.2-5.1-2.7-8.2-1.5c-1.3,0.5-2.7,0.7-4.1,1.1c-0.1-0.1-0.3-0.2-0.4-0.4c0.4-0.8,0.9-1.6,1.2-2.5
			c4.2-9.6,10.9-17.3,18.6-24.2c3-2.7,7-4.2,10.5-6.4c1.6-1,3.2-2.1,4.4-3.5c3.1-3.8,7-6.4,11.5-7.9c5.5-1.9,11.1-3.3,17.1-2.7
			c0.4,0,0.8,0.1,1.2,0.2c3,0.6,3.4,1.4,2.3,4.1c-0.9,2.5-1.8,5.1-2.4,7.7c-0.4,1.5-0.8,2.1-2.5,1.7c-2.2-0.5-4.5-0.3-6.2,1.5
			c-0.5,0.5-0.5,1.4-0.7,2.1c0.6,0.2,1.3,0.4,1.9,0.5c2.6,0.4,5.4,0.5,7.9,1.2c4.2,1.3,8.4,2.9,12.5,4.4c2.4,0.9,4.7,1.7,7.1,2.6
			c2.6,0.9,5.3,0.8,8,0.1c2.5-0.6,5-1.6,7.6-2.2c6-1.3,9.3-1,12.5,4.4c4.1,6.9,5.1,14.5,5.1,22.3c0,1.3-0.6,2-1.8,2.3
			c-7.7,2.5-15.6,3.7-23.7,2.8c-2.4-0.2-4.8-0.5-7.1-0.6c-1.6-0.1-1.8-0.8-1.8-2.2c0.1-2.4,0.1-4.8-0.1-7.1c-0.5-5.3-5-7.9-10.1-6.1
			c-3.4,1.2-6,3.5-8.5,5.9c-1.1,1-1.9,1.1-3,0.2c-1.5-1.2-3-2.3-4.4-3.6c-2.2-2-2.2-5-0.2-7.3c0.5-0.6,0.9-1.4,0.9-2.1
			c0-0.8-0.5-1.9-1-2.2c-0.5-0.2-1.6,0.4-2.2,0.9c-4,3.4-8.7,4.3-13.8,4c-1.3-0.1-2.6-0.3-3.9-0.4c-0.4,0-1,0.2-1,0.4
			c0,0.4,0.1,1,0.4,1.2c1.4,0.8,2.9,1.7,4.5,2.1c3.2,1,6.5,1.7,9.7,2.5c0.5,0.1,1.1,0.4,1.4,0.7c4.6,4.5,9.9,7.9,15.4,11.1
			c3.5,2,7,4.2,11,5c4.1,0.8,8.2,1.6,12.4,1.7c5.7,0.2,11.5,0.1,17.2-0.5c3.7-0.4,7.4-1.9,11.1-2.9c0.4-0.1,0.8-0.3,1.2-0.5
			c3.3-0.9,3.3-1.1,2.9-4.5c-0.2-1.1-0.3-2.7,0.3-3.1c1.2-0.8,2.2,0.4,3.2,1.1c3.8,2.6,3.6,6.4,3.2,10.2c-0.2,2.2-0.8,4.4-1.2,6.5
			c-0.2,0.7-0.4,1.4-0.9,1.9c-2.5,2.9-4.9,5.8-7.5,8.6c-2.4,2.5-5.6,3.6-8.8,4.4c-4.8,1.2-9.7,2.2-14.6,3.1
			c-1.5,0.3-3.1,0.1-4.6,0.2c-1.4,0.1-2.8,0.3-4.2,0.6c-0.2,0.1-0.5,1.4-0.3,1.6c1.2,1.2,2.4,2.6,4.6,2.1c1.8-0.4,3.9,0.1,5.7-0.3
			c5.2-1.1,10.4-2.3,15.5-3.6c2-0.5,3.9-1.2,5.8-1.9c1.1-0.5,2.3-1.1,3-2c3.6-4.1,7.3-7.9,12.1-10.6c1.7-1,3.7-1.7,5.6-2.3
			c1.8-0.5,2.9,0.1,3,2c0.1,1.9,0.1,4-0.5,5.8c-0.9,2.6-2.3,5.1-3.8,7.5c-1.3,2.2-1,3.8,1.3,4.7c0.4,0.1,0.8,0.1,1.2,0.1
			c2.9-0.3,5.8-0.6,8.7-0.8c0.7-0.1,1.5,0.3,2.2,0.5C235.3,178.1,236.6,179.6,236.8,181.5z M129.4,170.7c0.4-3.3-0.6-6.1-3-8.4
			c-3.9-3.7-13-2.2-14.5,5c-0.9,4.2,0.1,7,3.2,8.5c1.4,0.7,3.1,0.7,4.7,1c0-0.1,0-0.2,0-0.2c0.5,0,1.1,0,1.6,0
			C125.2,176.6,129.1,173.3,129.4,170.7z M114.9,201.7c2.2-3.8-0.1-9-3.3-11.6c-3.2-2.6-6.8-2.6-10.5-2.9
			c-5.3-0.3-10.5,4.3-11.8,8.6c-0.8,2.6-0.6,5.2-0.3,7.8c0.4,2.7,1.5,4.9,4.1,6.1c1.1,0.5,2.3,1,3.4,1.7c5,3.2,15.9-0.9,17.2-6.9
			C114,203.6,114.4,202.6,114.9,201.7z"/>
		<path class="st3" d="M236.5,102.5c1.1,3.3,1,3.4-2.5,2.9c-1.3,0.2-2.6,0.2-3.8,0.7c-1.7,0.7-2.5,0.2-3-1.4
			c-1.7-4.9-3.3-9.7-5-14.6c-2.1-6-4.1-12-6.1-18c-0.6-1.9-1-3.9-1.6-5.9c-0.4-1.5,0-2.4,1.7-2.6c1.5-0.2,3.1-0.5,4.6-0.7
			c1.2-0.1,1.9,0.3,2.4,1.6c0.9,2.6,2.2,5.1,3.1,7.6c2,5.4,4,10.9,5.8,16.4C233.6,93.1,234.9,97.8,236.5,102.5z"/>
		<path class="st3" d="M231.2,210.6c0.8,3.6,1.6,7.3,2.5,11.7c-4.1-2.4-7.1-1-10.1,1.9c-0.4-1.3-0.7-2.1-0.9-2.9
			c-0.6-2.6-1.1-5.3-1.6-7.9c-0.3-1.2,0.2-1.9,1.5-1.7c2.6,0.3,5,0,7.3-1.3C230.1,210.1,231.2,210.4,231.2,210.6z"/>
		<path class="st5" d="M225.4,57.1c0.2,1.2-0.8,1.3-1.6,1.4c-7.9,0.7-15.4,2.8-22.9,5.3c-1.2,0.4-2.4,0.9-3.5,1.3
			c-0.1,0-0.3-0.1-0.6-0.2c0-2,0.9-4.3-1.9-5.4c-2.7,2.4-5.9,2.7-9.7,1.9c6.8-2.4,13.2-4.9,19.8-6.8c5.6-1.6,11.4-2.3,17.1-3.5
			c0.5-0.1,1-0.1,1.4-0.2c0.2-0.1,0.5-0.4,0.5-0.6l0.4-0.1C224.6,52.4,225,54.8,225.4,57.1z"/>
		<path class="st5" d="M224.2,50.1l-0.4,0.1c0,0,0,0,0,0c-0.1-0.3-0.4-0.6-0.6-0.7c-0.5-0.1-1.1-0.1-1.6,0
			c-8.3,1.3-16.5,2.7-24.4,5.7c-5.5,2.1-10.9,4.2-16.4,6.1c-1.9,0.7-4.1,0.8-6.2,1c-0.3,0-1.1-0.7-1-1.1c0.3-2.8,0.5-5.7,1.4-8.2
			c0.5-1.3,2.5-2.2,4-2.8c5-2.1,10-4.2,15.1-6c4.3-1.5,8.7-2.7,13.1-3.7c3.7-0.9,7.5-1.5,11.3-2.3c0.5-0.1,1-0.5,1.5-0.8l0.9-0.3
			c0.9,2.7,1.7,5.4,2.3,8.2C223.6,46.8,223.9,48.4,224.2,50.1z"/>
		<path class="st5" d="M220.9,36.9l-0.9,0.3c-0.6-0.2-1.2-0.7-1.7-0.7c-8.2,1.2-16.4,2.7-24.3,5.6c-4.8,1.8-9.6,3.4-14.3,5.1
			c-1.3,0.5-2.5,1.3-3.4,1.7c-0.1-1.3,0.2-2.6-0.3-3.3c-0.5-0.7-1.9-0.9-2.9-1c-1-0.1-2.5,1-3-0.5c-0.5-1.6,1.3-1.7,2.3-2.2
			c7-3.8,14.2-7.2,22.1-8.9c4.3-0.9,8.5-2.3,12.8-2.9c3.3-0.4,6.6,0.1,10,0.4c1.6,0.2,2.5,1.6,2.9,3.1
			C220.2,34.8,220.5,35.8,220.9,36.9z"/>
		<path class="st3" d="M219,151.7c0.1,0.4-0.3,1.1-0.6,1.2c-0.9,0.4-2,0.7-3.3,1.1c0.1-2.7,0.3-4.9,0.3-7.1c0-3.8-0.6-7.4-3.3-10.4
			c-0.5-0.5-1-1-1.6-1.4c-2.3-1.6-4.6-3.1-6.9-4.8c-0.4-0.3-0.6-0.9-0.7-1.4c-0.6-2.1-0.9-4.4-1.7-6.4c-1.1-2.8-0.6-5.4,0.4-8
			c0.9-2.5,2-4.9,3.1-7.2c0.2-0.5,0.8-0.8,1.3-1.1c0.3,0.4,0.8,0.8,1,1.3c3.3,7.5,5,15.6,6.6,23.6c1.2,6,3.1,11.8,4.7,17.7
			C218.5,149.8,218.9,150.8,219,151.7z"/>
		<path class="st6" d="M216.5,96.5c0.5,1.1,1,2.3,1.7,3.9c-2.1,0.1-3.7,0.1-5.3,0.3c-2.5,0.2-5.1,0.3-7.6,0.8
			c-1.6,0.3-1.7-0.7-1.8-1.7c-0.1-2.7-1.1-5-2.6-7.1c-2.6-3.7-6.2-5.3-10.7-5c-2.2,0.2-4.1-0.2-5.9-1.9c-4-3.7-9.1-5.6-14.1-7.2
			c-2.8-0.9-5.8-0.4-8.5,1.1c-1.4,0.8-2.8,1.6-4.2,2.4c-4.7,2.9-9.7,3.6-15.1,3.4c-5.4-0.2-10.7,0.6-15.9,2.1
			c-0.5,0.1-1,0.3-1.4,0.2c-3.2-0.9-6.3-1.9-8.8-4.1c-0.1-0.1-0.2-0.3-0.2-0.4c1.6-1,3.1-2,4.6-3c1.3-0.9,2.4-2,3.8-2.7
			c1.5-0.8,3.2-1.6,4.9-1.9c1.9-0.3,3.9,0,5.9-0.1c2.2-0.1,3.1-1.7,2-3.6c-0.3-0.5-0.6-1.1-1.1-1.4c-2.4-1.7-4.8-3.4-7.2-5.1
			c-0.6-0.4-1.1-1-1.6-1.6c0.6-0.5,1.1-1.2,1.8-1.5c4.1-1.8,8.3-1.7,12.5-0.6c2.9,0.8,5.6,2.2,8.4,3.5c1.4,0.6,2.5,0.3,2.9-1.2
			c2.3-8.1,8.6-11.3,15.9-13.3c2.4-0.7,2.7-0.2,2.1,2.1c-1.4,5-1.4,10.2-0.9,15.3c0.1,0.9,0.6,1.8,1,3c0.8-0.7,1.3-1,1.6-1.6
			c1.8-2.7,4.5-3.2,7.5-3.4c3.3-0.1,6.5-0.5,9.8-0.7c0.5,0,1-0.2,2.2-0.3c-0.4,2.1-0.6,3.9-1.1,5.7c-0.4,1.4-1.3,2.7-1.8,4.1
			c-0.2,0.4-0.3,1.2,0,1.4c0.3,0.3,1,0.3,1.5,0.2c0.5,0,0.9-0.3,1.3-0.5c2.6-1.7,5.3-1.4,7.7-0.1c3,1.7,6.1,2.7,9.5,2.8
			c1,0,1.9,0.5,2.8,0.8c-0.5,1-0.8,2.1-1.6,2.9c-1.4,1.4-3.1,2.4-4.5,3.8c-0.6,0.6-1.3,1.7-1.2,2.4c0.2,1.1,0.7,2.4,2.4,2.2
			C211.6,90.4,214.6,92.5,216.5,96.5z"/>
		<path class="st3" d="M214.6,74.2c0.3,1-0.1,1.6-1.1,1.5c-3.8-0.2-7.6,0.5-11-2.3c-1.5-1.3-3.6-1.7-5.9-2.8c4.4-3.3,9-5.1,14-5.8
			c0.4-0.1,1.2,0.4,1.3,0.8C213,68.5,213.8,71.4,214.6,74.2z"/>
		<path class="st4" d="M211.7,244.8c0.8,2,0.2,4.1-1.8,5.3c-1.3,0.8-2.7,1.5-4.1,1.7c-4.9,0.7-9.8,1.3-14.8,1.5
			c-3.8,0.2-7.6-0.3-11.5-0.4c-1.5-0.1-3,0.1-4.5,0c-3.8-0.2-5.2-1.4-6.7-5c-0.6-1.4-1.8-2.8-3-3.8c-1.3-1.1-2.9-1.9-4.5-2.6
			c-1.5-0.6-3.2-0.9-5.3-1.4c1-0.8,1.7-1.6,2.6-2c4.9-2.4,9.9-4.8,14.9-7.1c0.5-0.2,1-0.4,1.4-0.7c1.1-1,2.2-0.7,3.2,0.1
			c0.9,0.8,1.3,1.5,0.7,2.8c-0.7,1.4,0.2,2.6,1.8,2.3c2-0.4,4-0.9,5.8-1.7c4.5-1.8,9.1-3.2,14.1-3.4c0.9,0,1.7,0.2,2.6,0.3
			c0,0.2,0.1,0.5,0.1,0.7c-0.8,0.3-1.6,0.7-2.3,1.1c-1,0.5-2.1,1-2.9,1.7c-0.4,0.4-0.3,1.4-0.2,2.1c0.1,0.2,1.2,0.3,1.7,0.2
			c1-0.2,1.9-0.9,2.9-1c0.8-0.1,1.9-0.1,2.5,0.3c1.9,1.1,1.8,2.7-0.2,3.8c-1,0.5-2.1,0.7-2.9,1.4c-0.6,0.5-1.2,2.1-1,2.3
			c0.9,0.7,1.8,1.6,3.2,0.9c1.1-0.5,2.4-0.9,3.6-1.1C209.9,242.5,211.1,243,211.7,244.8z"/>
		<path class="st7" d="M211.7,23.8c0.5,1.9,0.2,2.2-1.6,2.1c-7-0.7-13.8,0.7-20.6,2.1c-1.3,0.3-2.5,0.9-3.7,1.4
			c-4.8,2.2-9.8,3.9-13.9,7.4c-0.2,0.2-0.5,0.3-1.2,0.7c-0.4-3.1-1-5.7-0.3-8.6c0.4-1.6,0.1-3.4,0.2-5.1c0.1-0.8,0.2-1.9,0.8-2.3
			c7.7-7.1,16.7-11.1,27.2-11.2c2.9,0,5.7,1,8.6,1.7c1.3,0.3,2,1.3,2.3,2.7C210.2,17.7,211,20.8,211.7,23.8z"/>
		<path class="st8" d="M194.5,93.7c4.3,3.1,6.1,7.3,5.5,12.5c-0.2,2-1.3,4-2.2,6c-0.6,1.2-1.6,1.5-2.8,0.6c-0.5-0.4-1.2-0.6-1.7-0.9
			c-0.9-0.5-1.1-1.1-0.5-2c1.1-1.6,1.5-3.3,1.2-5.3c-0.5-3-3-4.4-5.8-3.4c-0.5,0.2-1.1,0.3-2,0.6c0-1.1-0.1-2,0-2.8
			c0.1-0.6,0.4-1.3,0.3-1.9c-0.2-2.2,0.6-3.7,2.6-4.5S192.9,92.5,194.5,93.7z"/>
		<path class="st8" d="M180.2,88.2c2,2,3,4.3,2.9,7.1c-0.1,4.3-1.2,8.4-2.8,12.4c-0.4,0.9-1,1.7-1.8,2.2c-4.1,2.6-8.5,3.6-13.2,1.8
			c-1.7-0.7-1.9-1-0.8-2.6c1.3-1.7,1.5-3.6,1-5.6c-1-4.2-5.1-5-8.2-3.4c-2.4,1.2-4.2,3.3-4.7,6.2c-2.3,0-3.1-0.9-2.8-3.4
			c0.6-5.4,3.3-9.8,6.9-13.8c3.2-3.6,7-5,11.6-5.1C172.9,83.7,176.9,85,180.2,88.2z"/>
		<path class="st8" d="M161.1,140.4c0,2.5-0.3,2.9-2.5,2c-2.8-1.1-5.4-2.4-8.1-3.9c-1.5-0.8-1.5-1.7-0.3-3c1.8-1.8,3.8-3.3,6.5-3.5
			c2.1-0.2,3.7,1.1,3.9,3.2c0.1,0.9,0.1,1.8,0.2,2.7C160.9,138.7,161,139.6,161.1,140.4z"/>
		<path d="M126.4,162.2c2.4,2.3,3.4,5.1,3,8.4c-0.3,2.7-4.2,5.9-7.9,5.9c-0.5,0-1.1,0-1.6,0c0,0.1,0,0.2,0,0.2
			c-1.6-0.3-3.3-0.4-4.7-1c-3.2-1.5-4.1-4.4-3.2-8.5C113.5,160,122.6,158.5,126.4,162.2z M125.6,169c0-2.9-2.5-5.1-5.8-5.1
			c-1.9,0-3.4,1.6-3.4,3.6c0,3,2.4,5.3,5.7,5.3C123.9,172.8,125.5,171.1,125.6,169z"/>
		<path class="st9" d="M119.7,163.9c3.3,0,5.8,2.3,5.8,5.1c0,2.1-1.6,3.8-3.5,3.8c-3.3,0-5.7-2.3-5.7-5.3
			C116.3,165.5,117.8,163.9,119.7,163.9z"/>
		<path d="M111.6,190.2c3.2,2.6,5.5,7.8,3.3,11.6c-0.5,0.9-0.9,1.8-1.2,2.8c-1.3,6-12.1,10.1-17.2,6.9c-1.1-0.7-2.2-1.2-3.4-1.7
			c-2.7-1.2-3.8-3.4-4.1-6.1c-0.4-2.6-0.5-5.2,0.3-7.8c1.3-4.3,6.6-9,11.8-8.6C104.8,187.6,108.5,187.6,111.6,190.2z M102.7,208.9
			c4.1-0.1,8.4-4.3,8.3-8.3c-0.1-4.9-4-9-8.6-9c-4.8,0-9.4,4.5-9.3,9.1C93.1,204.6,98.2,208.9,102.7,208.9z"/>
		<path class="st9" d="M111.1,200.6c0.1,4-4.2,8.3-8.3,8.3c-4.6,0.1-9.6-4.3-9.7-8.2c0-4.6,4.6-9.1,9.3-9.1
			C107.1,191.6,111,195.6,111.1,200.6z"/>
		<path class="st6" d="M112.1,95.5c-1.1,2.2-2.6,3.4-4.4,4.5c-4.1,2.5-8.1,5-12.1,7.6c-0.7,0.5-1.5,1.1-2,1.8
			c-1.1,1.7-2.3,1.5-3.9,0.8c-2.1-1-4.3-1.9-6.4-2.7c-1.3-0.5-1.5-1.4-0.7-2.2c2-1.9,3.9-4.3,6.3-5.4c6.6-2.8,13.7-4.2,20.9-4.5
			C110.4,95.3,111.1,95.4,112.1,95.5z"/>
		<path class="st9" d="M97.5,154.5c0.1,3.7-1.3,7-2.4,10.4c-1.3,3.8-3.7,6.3-7.3,7.9c-3.7,1.7-12.6,1.7-15.4-2.2
			c-1.5-2.1-2.1-4.1-1.2-6.7c1.4-4,2.5-8.1,3.9-12.1c0.7-2,1.1-4.2,2.3-5.8c1-1.3,2.8-2.3,4.5-2.7c3.5-0.7,7-0.9,10.4,1
			c2.6,1.4,4.2,3.2,4.7,6.1C97.2,151.8,97.4,153.2,97.5,154.5z"/>
		<path class="st6" d="M86.5,116.9c0.1,0.2,0.2,0.3,0.3,0.5c-1.3,1.6-2.6,3.2-3.9,4.7c-3.3,3.8-5.6,8.1-7.6,12.7
			c-0.3,0.7-0.4,1.4-0.9,2c-0.4,0.4-1.1,0.9-1.6,0.8c-2.6-0.1-5.1-0.4-7.7-0.6c-2.6-0.2-3.3-1.3-2.1-3.6c2.7-5.2,6.7-9.1,12-11.6
			c2.9-1.3,5.8-2.8,8.7-4.1C84.7,117.3,85.6,117.2,86.5,116.9z"/>
		<path class="st6" d="M68.6,149.9c-0.2,0.6-0.4,1.2-0.5,1.8c-1.4,4.7-3,9.3-4.2,14c-0.6,2.2-0.5,4.6-0.6,7
			c-0.1,1.3-0.4,1.6-1.7,1.4c-2.2-0.3-4.5-0.3-6.8-0.5c-0.6,0-1.2,0.1-1.8,0c-4.3-0.7-4.9-0.8-3.3-5.6c0.4-1.3,1.3-2.4,2.2-3.5
			c4-5.2,8.6-9.8,14-13.6c0.8-0.5,1.7-1,2.5-1.5C68.3,149.7,68.4,149.8,68.6,149.9z"/>
		<path class="st6" d="M60.3,185.7c0,4.4,1.4,8.3,0,12.2c-0.5,1.5-1.2,1.8-2.5,1c-1.2-0.7-2.5-1.2-3.7-1.8c-1.9-1-2.4-2.3-1.1-4.1
			c1.6-2.1,3.4-4.1,5.2-6.1C58.7,186.5,59.4,186.3,60.3,185.7z"/>
		<path class="st6" d="M50.5,207.2c1.3,0.6,1.3,1.4,0.1,2.1c-2.2,1.3-4.6,2.1-7.1,2.2c-1.9,0.1-1.4-1.3-1.5-2.4c0-0.5,0-1,0.1-1.6
			c0.4-2.2,1.2-2.8,3.3-2.1C47.2,205.9,48.9,206.5,50.5,207.2z"/>
		<path class="st6" d="M25.6,203.1c1.3,0.6,2.1,2.4,2,4.4c-1.8-0.3-3.6-1.9-3.9-3.4c-0.1-0.3,0.1-1,0.4-1
			C24.6,202.9,25.2,202.9,25.6,203.1z"/>
	</g>
</g>
</svg>
