<?xml version="1.0" encoding="utf-8"?>
<!-- Generator: Adobe Illustrator 19.1.0, SVG Export Plug-In . SVG Version: 6.00 Build 0)  -->
<svg version="1.1" id="Layer_1" xmlns="http://www.w3.org/2000/svg" xmlns:xlink="http://www.w3.org/1999/xlink" x="0px" y="0px"
	 viewBox="0 0 100.2 70.8" style="enable-background:new 0 0 100.2 70.8;" xml:space="preserve">
<style type="text/css">
	.st0{fill:#FFFFFF;stroke:#1C75BC;stroke-width:4;stroke-miterlimit:10;}
	.st1{fill:#414042;}
	.st2{font-family:'Wingdings-Regular';}
	.st3{font-size:49.9369px;}
	.st4{fill:none;}
	.st5{fill:#F4E5BA;}
	.st6{fill:#FFC60B;}
	.st7{fill:#71BFD8;}
	.st8{fill:#D8D6EC;}
	.st9{fill:#F15A29;}
	.st10{fill:#F190AC;}
	.st11{fill:#FFFFFF;}
	.st12{fill:#0071B5;}
</style>
<g>
	<path class="st0" d="M85,67.5H68.8c-6.6,0-12-5.4-12-12V35.9c0-6.6,5.4-12,12-12H85c6.6,0,12,5.4,12,12v19.6
		C97,62.1,91.6,67.5,85,67.5z"/>
	<text transform="matrix(1.2101 -0.2062 0.168 0.9858 58.7729 72.0883)" class="st1 st2 st3">ü</text>
	<g id="XMLID_2_">
		<path class="st4" d="M78.1-1.9c0,25.4,0,50.8,0,76.2c-26.5,0-53.1,0-79.6,0c0-25.4,0-50.8,0-76.2C25.1-1.9,51.6-1.9,78.1-1.9z
			 M66.9,52.9c0-0.4,0.1-0.7,0-1.1c0-0.6-0.1-1.3-0.2-1.9c-0.1-0.5-0.4-1-0.5-1.5c-0.3-1.1-0.5-2.2-0.9-3.3c-0.5-1.7-1-3.4-1.5-5.1
			c-0.2-0.7-0.4-1.4,0.1-2.1c0.5-0.8,0.7-1.7,0.8-2.6c0.1-0.9,0-1.7-0.3-2.5c-0.2-0.6-0.4-1.2-0.7-1.7c-0.2-0.4-0.3-0.9-0.6-1.3
			c-0.7-0.9-1.4-1.9-2.2-2.6c-0.5-0.5-0.8-0.9-1-1.6c-0.7-2.2-1.6-4.3-2.4-6.5c-0.4-1.2-0.9-2.3-1-3.6c0-0.2-0.1-0.4,0-0.5
			c0.5-0.5,0.2-1.1,0.1-1.6c-0.4-1.7-0.8-3.3-1.2-4.9c-0.2-0.6-0.2-1.3-0.9-1.7c-0.1,0-0.1-0.2-0.2-0.3c-0.4-1.1-0.8-2.1-1.2-3.2
			c-0.2-0.5-0.5-1-0.8-1.3c-0.8-0.8-1.8-0.9-2.8-0.9c-0.7,0.1-1.4,0.3-2.1,0.5c-1.8,0.4-3.6,1-5.2,2.1c-1.4,1.1-2.1,2.4-1.8,4.2
			c0.1,0.8,0.4,1.6,0.5,2.4c0.1,0.4,0.2,0.8-0.3,1.1c-0.7,0.4-1.5,0.8-2.1,1.3c-0.5,0.4-0.9,1-1.3,1.5c-0.3,0.4-0.4,0.5-0.8,0.3
			c-1.5-0.4-3-0.7-4.5-0.1c-0.9,0.4-1.6,0.9-2,1.9c-0.1,0.2-0.1,0.4,0.2,0.5c0.2,0.1,0.5,0.1,0.7,0.2c0.6,0.1,1.1,0.3,1.5,0.8
			c-0.1,0.1-0.1,0.1-0.1,0.1c0,0-0.1,0-0.1,0c-1.1,0-2,0.5-2.8,1.3c-0.1,0.1-0.4,0.2-0.6,0.2c-0.6,0.1-1.1,0.1-1.7,0.2
			c-0.4,0-0.5,0.2-0.3,0.5c0.6,0.8,1.2,1.5,2.2,1.9c0.3,0.1,0.6,0.3,1,0.4c-0.4,0.3-0.6,0.8-1.2,0.6c-1.2-0.5-2.5-0.4-3.8-0.2
			c-1.6,0.2-3.1,0.8-4.5,1.7c-0.5,0.3-0.9,0.8-1.3,1.2c-0.3,0.4-0.3,0.8,0.1,1.2c0.3,0.3,0.8,0.4,1.1,0.7c0.3,0.1,0.5,0.2,0.9,0.4
			c-0.1,0.1-0.2,0.1-0.2,0.2c-1.4,0.7-2.8,1.4-4.2,2.1c-1.4,0.7-2,2-2.6,3.4c-0.1,0.3,0,0.5,0.2,0.8c0.4,0.4,0.8,0.4,1.3,0.4
			c0.6,0.1,1.2,0.2,1.8,0.3c0.1,0,0.2,0.1,0.2,0.2c-0.1,0.1-0.1,0.2-0.2,0.2c-0.5,0.2-0.9,0.5-1.4,0.7c-0.7,0.5-1.4,1-2.2,1.5
			c-0.3,0.2-0.7,0.5-1,0.8c-0.5,0.7-1,1.5-1.5,2.2c-0.4,0.5-0.5,1.1-0.6,1.7c-0.1,0.9,0.4,1.2,1.1,1.4c0.4,0.1,0.9,0.1,1.4,0.1
			c0.6,0,1.2,0.1,1.8,0.5c-0.3,0.1-0.6,0.2-0.8,0.4c-1.2,1-2.5,1.9-2.9,3.5c0,0.2,0,0.6,0.1,0.7c0.4,0.3,0.9,0.5,1.3,0.8
			c0.4,0.2,0.7,0.4,1,0.6c0.1,0.1,0,0.3,0,0.5c-0.2,0-0.3,0-0.4,0c-0.5-0.4-1-0.6-1.6-0.7c-0.2,0-0.5-0.1-0.7-0.2
			c-1.1-0.4-2,0.2-2.1,1.4c0,0.3,0,0.5,0,0.8c0,0.1-0.1,0.3-0.2,0.4c-0.5,0.2-1.1-0.2-1.2-0.7c-0.1-0.6-0.3-1.2-0.7-1.7
			c-0.5-0.6-0.9-0.8-1.6-0.6c-0.4,0.1-0.5,0-0.7-0.3c-0.1-0.1-0.2-0.3-0.3-0.4C4.5,48,3.9,47.8,3.2,48c-0.7,0.2-0.9,0.7-1.2,1.1
			c-0.8,1.2-1.2,2.5-0.8,4c0.3,1.1,0.6,2.3,1.4,3.3C3,56.9,3.3,57.5,3.7,58c1,1.2,2.3,2.1,3.7,2.8c1,0.5,2,0.9,3.2,1.1
			c0.5,0.1,1,0.2,1.4,0.2c0.9,0,1.7,0,2.6,0c1.8,0,3.5-0.5,5.2-0.9c0.5-0.1,1-0.2,1.5-0.2c0.3,0,0.5,0.2,0.4,0.6
			c-0.2,0.7-0.5,1.4-0.7,2.2c-0.2,0.5-0.1,1,0.3,1.4c1,0.9,2.2,1.1,3.5,1.3c1.3,0.2,2.6,0.4,3.9,0.6c1.3,0.3,2.6,0.7,3.9,1
			c1.5,0.2,3,0.4,4.5,0.4c0.7,0,1.4,0,2.1-0.2c0.5-0.1,1.1-0.4,1.6-0.6c0.7-0.3,1.2-0.9,1.4-1.7c0.1-0.4,0.1-0.8-0.1-1.2
			c-0.1-0.1-0.1-0.3,0-0.4c0.3-0.4,0.7-0.8,1.3-0.8c1.9-0.1,3.9-0.2,5.8-0.2c1.5,0,2.8-0.5,3.8-1.7c0.8-1,0.6-2.4-0.4-3.2
			c-0.2-0.2-0.3-0.5-0.4-0.8c-0.4-0.7-0.7-1.5-1.6-1.8c-0.7-0.2-1.4-0.1-2.1,0.1c-0.9,0.3-1.8,0.5-2.7,0.2c-0.2-0.1-0.5-0.3-0.6-0.5
			c-0.1-0.3-0.1-0.7,0.2-0.9c0.9-0.7,1.6-1.6,2.2-2.6c0.4-0.7,0.9-1.2,1.7-1.4c0.9-0.3,1.7-0.9,2.7-0.2c0.6,0.4,1.3,0.8,1.4,1.6
			c0.1,0.7,0.3,1.4,0.4,2.1c0.1,0.5,0.3,1,0.3,1.6c0.1,0.6,0.4,1.1,0.8,1.5c0.5,0.5,0.9,1,1.4,1.5c0.4,0.4,0.7,0.8,1.1,1.2
			c0.8,0.7,1.7,1.3,2.6,1.9c0.8,0.6,1.5,1.3,2.2,2c0.6,0.5,1.1,1.1,1.8,1.3c1.2,0.3,1.9,0.3,2.3-1.1c0.1-0.2,0.1-0.4,0.1-0.7
			c0-0.8-0.1-1.7,0-2.5c0-0.6,0.2-1.2,0.2-1.8C66.8,57.2,66.8,55,66.9,52.9z"/>
		<path d="M66.9,51.7c0,0.4,0,0.7,0,1.1c-0.1,2.2-0.1,4.3-0.2,6.5c0,0.6-0.2,1.2-0.2,1.8c0,0.8,0,1.7,0,2.5c0,0.2-0.1,0.4-0.1,0.7
			c-0.3,1.4-1.1,1.5-2.3,1.1c-0.8-0.2-1.3-0.8-1.8-1.3c-0.7-0.7-1.5-1.3-2.2-2c-0.8-0.7-1.7-1.3-2.6-1.9c-0.4-0.3-0.7-0.8-1.1-1.2
			c-0.5-0.5-0.9-1.1-1.4-1.5c-0.4-0.4-0.7-0.9-0.8-1.5c0-0.5-0.2-1-0.3-1.6c-0.1-0.7-0.3-1.4-0.4-2.1c-0.1-0.9-0.8-1.2-1.4-1.6
			c-1-0.6-1.8,0-2.7,0.2c-0.8,0.3-1.3,0.8-1.7,1.4c-0.6,1-1.3,1.9-2.2,2.6c-0.3,0.3-0.3,0.6-0.2,0.9c0.1,0.2,0.4,0.4,0.6,0.5
			c0.9,0.3,1.8,0.1,2.7-0.2c0.7-0.2,1.4-0.3,2.1-0.1c0.9,0.3,1.2,1.1,1.6,1.8c0.1,0.3,0.2,0.6,0.4,0.8c0.9,0.9,1.1,2.2,0.4,3.2
			c-0.9,1.3-2.2,1.7-3.8,1.7c-1.9,0.1-3.9,0.2-5.8,0.2c-0.6,0-0.9,0.4-1.3,0.8c-0.1,0.1-0.1,0.3,0,0.4c0.2,0.4,0.2,0.8,0.1,1.2
			c-0.3,0.7-0.7,1.3-1.4,1.7c-0.5,0.2-1,0.5-1.6,0.6c-0.7,0.1-1.4,0.2-2.1,0.2c-1.5-0.1-3-0.2-4.5-0.4c-1.3-0.2-2.6-0.7-3.9-1
			c-1.3-0.3-2.6-0.4-3.9-0.6c-1.3-0.2-2.5-0.4-3.5-1.3c-0.4-0.4-0.5-0.9-0.3-1.4c0.2-0.7,0.5-1.4,0.7-2.2c0.1-0.4-0.1-0.6-0.4-0.6
			c-0.5,0-1,0.1-1.5,0.2c-1.7,0.4-3.4,0.9-5.2,0.9c-0.9,0-1.7,0-2.6,0c-0.5,0-1-0.1-1.4-0.2c-1.1-0.2-2.2-0.6-3.2-1.1
			C6,60.1,4.8,59.2,3.7,58c-0.4-0.5-0.8-1.1-1.2-1.7c-0.8-1-1.1-2.1-1.4-3.3c-0.4-1.4,0.1-2.8,0.8-4c0.3-0.5,0.6-1,1.2-1.1
			c0.7-0.2,1.2,0,1.7,0.5c0.1,0.1,0.2,0.3,0.3,0.4c0.2,0.3,0.3,0.4,0.7,0.3c0.7-0.2,1.1-0.1,1.6,0.6c0.4,0.5,0.6,1.1,0.7,1.7
			c0.1,0.5,0.7,0.9,1.2,0.7c0.1,0,0.2-0.2,0.2-0.4c0-0.3,0-0.5,0-0.8c0.1-1.2,1-1.8,2.1-1.4c0.2,0.1,0.4,0.2,0.7,0.2
			c0.6,0.1,1.1,0.4,1.6,0.7c0.1,0.1,0.3,0,0.4,0c0-0.2,0.1-0.4,0-0.5c-0.3-0.2-0.7-0.4-1-0.6c-0.4-0.3-0.9-0.5-1.3-0.8
			c-0.1-0.1-0.2-0.5-0.1-0.7c0.4-1.6,1.7-2.6,2.9-3.5c0.2-0.2,0.5-0.2,0.8-0.4c-0.6-0.4-1.2-0.5-1.8-0.5c-0.5,0-0.9,0-1.4-0.1
			c-0.6-0.1-1.2-0.5-1.1-1.4c0.1-0.6,0.2-1.2,0.6-1.7c0.5-0.7,1-1.5,1.5-2.2c0.3-0.3,0.6-0.6,1-0.8c0.7-0.5,1.4-1,2.2-1.5
			c0.4-0.3,0.9-0.5,1.4-0.7c0.1-0.1,0.2-0.1,0.2-0.2c-0.1-0.1-0.2-0.2-0.2-0.2c-0.6-0.1-1.2-0.2-1.8-0.3c-0.5,0-0.9-0.1-1.3-0.4
			c-0.3-0.2-0.3-0.5-0.2-0.8c0.5-1.4,1.2-2.7,2.6-3.4c1.4-0.7,2.8-1.4,4.2-2.1c0.1,0,0.1-0.1,0.2-0.2c-0.3-0.2-0.6-0.3-0.9-0.4
			c-0.4-0.2-0.8-0.4-1.1-0.7c-0.4-0.3-0.5-0.8-0.1-1.2c0.4-0.4,0.8-0.9,1.3-1.2c1.4-0.9,2.9-1.5,4.5-1.7c1.3-0.2,2.5-0.3,3.8,0.2
			c0.6,0.2,0.8-0.3,1.2-0.6c-0.4-0.2-0.7-0.3-1-0.4c-1-0.4-1.6-1.1-2.2-1.9c-0.2-0.3-0.1-0.5,0.3-0.5c0.6-0.1,1.1-0.1,1.7-0.2
			c0.2,0,0.5-0.1,0.6-0.2c0.8-0.8,1.7-1.3,2.8-1.3c0,0,0.1,0,0.1,0c0,0,0,0,0.1-0.1c-0.4-0.4-1-0.6-1.5-0.8
			c-0.2-0.1-0.5-0.1-0.7-0.2c-0.3-0.1-0.3-0.2-0.2-0.5c0.4-0.9,1.1-1.5,2-1.9c1.5-0.6,3-0.3,4.5,0.1c0.5,0.1,0.6,0.1,0.8-0.3
			c0.4-0.6,0.8-1.1,1.3-1.5c0.6-0.5,1.4-0.9,2.1-1.3c0.4-0.3,0.4-0.7,0.3-1.1c-0.2-0.8-0.4-1.6-0.5-2.4c-0.2-1.8,0.4-3.1,1.8-4.2
			c1.6-1.2,3.3-1.7,5.2-2.1c0.7-0.2,1.4-0.4,2.1-0.5c1-0.1,2,0.1,2.8,0.9c0.4,0.4,0.6,0.9,0.8,1.3c0.4,1,0.8,2.1,1.2,3.2
			c0,0.1,0.1,0.3,0.2,0.3c0.7,0.4,0.7,1.1,0.9,1.7c0.5,1.6,0.9,3.3,1.2,4.9c0.1,0.5,0.4,1.1-0.1,1.6c-0.1,0.1,0,0.3,0,0.5
			c0.1,1.3,0.6,2.4,1,3.6c0.8,2.2,1.6,4.3,2.4,6.5c0.2,0.7,0.5,1.1,1,1.6c0.8,0.8,1.5,1.7,2.2,2.6c0.3,0.4,0.4,0.8,0.6,1.3
			c0.2,0.6,0.4,1.2,0.7,1.7c0.3,0.8,0.4,1.7,0.3,2.5c-0.1,0.9-0.3,1.8-0.8,2.6c-0.5,0.7-0.3,1.4-0.1,2.1c0.5,1.7,1,3.4,1.5,5.1
			c0.3,1.1,0.6,2.2,0.9,3.3c0.1,0.5,0.4,1,0.5,1.5C66.9,50.5,66.9,51.1,66.9,51.7z M65.9,52.8c0-0.3,0-0.6,0-0.8
			c0-0.1-0.1-0.3-0.2-0.3c-0.1,0-0.3,0-0.4,0.1c-0.1,0-0.1,0.1-0.2,0.2c-0.3,0.4-0.6,0.8-0.9,1.1c-0.6,0.6-1.5,0.5-2.3,0.5
			c-0.9,0-1.1,0-1.5,0.8c-0.1,0.2-0.2,0.3-0.3,0.5c-0.3,0.6-0.9,0.9-1.5,0.9c-0.5,0-1.1-0.1-1.6-0.2c-0.4-0.1-0.8,0.2-0.9,0.6
			c-0.2,0.4-0.1,0.7,0.3,1c0.8,0.7,1.6,1.5,2.4,2.3c0.6,0.6,1.1,1.2,1.7,1.8c0.3,0.3,0.5,0.3,0.7,0c0.9-1.2,2.1-1.9,3.7-2
			c0.5,0,0.7-0.2,0.8-0.7C65.8,56.6,65.8,54.7,65.9,52.8C65.9,52.8,65.9,52.8,65.9,52.8z M65.2,50.7c0.3-0.3,0.4-0.6,0.3-1
			c-0.2-1.7-0.6-3.3-1.2-4.9c-0.5-1.6-1-3.3-1.5-4.9c-0.2-0.6-0.4-1.1-1-1.4c-0.1,0-0.1-0.2-0.2-0.3c-0.5-0.8-0.6-1.7-0.8-2.5
			c-0.1-0.4-0.3-0.6-0.7-0.4c-0.1,0-0.3,0.1-0.4,0.1c-0.3,0.1-0.5,0.3-0.4,0.6c0.2,0.8,0.4,1.6,0.6,2.4c0.3,0.9,0.6,1.7,0.9,2.6
			c0.6,2,1.2,4,1.8,6c0.2,0.8,0.4,1.6,0.6,2.4c0.2,0.8,0.4,1.6,0.6,2.5C64.4,51.4,64.8,51,65.2,50.7z M64,35.3
			c0.1-0.8,0-1.7-0.5-2.3c-0.3-0.4-0.5-0.8-0.5-1.4c-0.1-1.2-0.8-2-1.9-2.5c-0.2-0.1-0.4-0.3-0.3-0.4c0.1-0.6-0.3-0.8-0.7-1.1
			c-0.5-0.4-1.2-0.4-1.8-0.4c-0.1,0-0.3,0-0.4,0c-0.3,0-0.7,0.1-0.7,0.2c-0.1,0.3,0,0.6,0.1,0.9c0,0.1,0.1,0.1,0.1,0.2
			c0.5,0.7,1,1.4,1.9,1.8c0.5,0.2,0.5,0.6,0.2,1c-0.3,0.4-0.6,0.8-0.8,1.2c-0.3,0.4-0.6,0.9-0.8,1.4c-0.2,0.6,0.1,1,0.7,1
			c0.8,0,1.4-0.4,2.1-0.9c0.2-0.2,0.5-0.3,0.7-0.3c0.3,0,0.4,0.3,0.5,0.7c0.2,1.1,0.4,2.1,0.7,3.2c0,0.1,0.2,0.3,0.3,0.3
			c0.1,0,0.3-0.1,0.4-0.2C63.5,36.8,63.9,36.1,64,35.3z M63.4,52.4c0.1,0,0.2-0.2,0.2-0.3c-0.3-1.4-0.6-2.7-0.9-4.1
			c-0.1-0.4-0.2-0.8-0.3-1.2c-0.6-1.9-1.1-3.8-1.7-5.7c-0.5-1.7-1.1-3.4-1.6-5c-0.1-0.2-0.2-0.3-0.4-0.3c-0.4,0-0.7,0-1.1,0
			c-0.4,0-0.8-0.5-0.8-0.9c0.1-0.8,0.1-1.5,0.3-2.2c0.2-0.6,0.5-1.1,0.8-1.7c0,0-0.1-0.1-0.1-0.1c-0.8-0.7-1.6-1.4-1.9-2.5
			c-0.1-0.5-0.4-1.1,0-1.5c0.3-0.3,0.3-0.6,0.1-0.9c-0.1-0.2-0.2-0.3-0.2-0.5c-0.4-1.2-0.8-2.4-1.2-3.5c-0.2-0.5-0.5-1-0.7-1.6
			c-0.4,0.5-0.8,0.9-1.2,1.3c0.3,0.2,0.7,0.4,1,0.6c1,0.8,1.3,2,1.7,3.1c0.1,0.3,0,0.5-0.4,0.5c-0.3,0-0.7,0-1-0.1
			c-0.5-0.1-1-0.2-1.4-0.2c-0.6,0-0.7,0.1-0.6,0.8c0,0.2,0,0.4,0.1,0.5c0.2,0.7,0.4,1.3,0.6,2c0.7,2.7,1.3,5.3,2,8
			c0.1,0.5,0.4,0.8,0.9,0.9c0.8,0.2,1.3,0.7,1.4,1.5c0,0.7,0,1.5-0.1,2.3c-0.1,0.7,0.1,0.9,0.8,1.1c0.9,0.2,1.8,0.5,2.1,1.6
			c0.2,0.7,0,1.6-0.6,2.1c-0.3,0.3-0.8,0.4-1.1,0.7c-0.2,0.1-0.4,0.4-0.3,0.5c0.1,0.5,0.2,1,0.3,1.4c0.3,0.8,0.5,1.5-0.1,2.2
			c-0.1,0.2-0.2,0.4-0.1,0.6c0.2,1,0.4,2.1,0.7,3.2c0.3-0.2,0.6-0.3,0.7-0.4c0.3-0.3,0.6-0.8,0.9-1.1c0.8-0.9,1-1.2,2.2-0.9
			C62.5,52.6,63,52.5,63.4,52.4z M58,45.7c0.4-0.2,0.7-0.5,0.7-1c0-0.5-0.4-0.8-0.8-1c-0.2-0.1-0.4-0.1-0.6-0.1
			c-0.7,0.1-1.4,0.1-2.1,0.2c-0.1,0-0.2,0-0.3,0c-0.6-0.2-0.6-0.6-0.3-1.2c0.4-0.6,0.7-1.2,0.9-1.9c0.2-0.4,0.2-1,0.1-1.4
			c0-0.5-0.3-0.6-0.8-0.5c-0.5,0.1-1,0.3-1.4,0.6c-1.2,0.7-2.1,1.6-3,2.6c-0.2,0.2-0.5,0.4-0.7,0.5c-0.5,0.2-0.9,0.4-1.4,0.5
			c-1.3,0.3-2.5,0.6-3.8,0.9c-0.5,0.1-1,0-1.4,0.1c-0.5,0.1-0.8-0.2-1.1-0.5c-0.1-0.1,0-0.4,0.1-0.4c0.3-0.1,0.7-0.1,1-0.1
			c0.4,0,0.8,0,1.1-0.1c1.2-0.2,2.4-0.5,3.6-0.8c0.8-0.2,1.6-0.5,2.2-1.1c0.6-0.7,1.3-1.4,1.9-2.1c0.1-0.1,0.2-0.3,0.2-0.5
			c0.1-0.5,0.2-1.1,0.3-1.6c0.1-0.9,0.2-1.9-0.8-2.5c-0.3-0.2-0.5-0.5-0.8-0.3c-0.1,0.1-0.1,0.5-0.1,0.8c0.1,0.8,0.1,0.9-0.7,1.1
			c-0.1,0-0.2,0.1-0.3,0.1c-0.9,0.2-1.8,0.6-2.7,0.7c-1.4,0.1-2.8,0.2-4.3,0.1c-1,0-2-0.2-3.1-0.4c-1-0.2-1.9-0.7-2.7-1.2
			c-1.4-0.8-2.7-1.6-3.8-2.7c-0.1-0.1-0.2-0.1-0.3-0.2c-0.8-0.2-1.6-0.4-2.4-0.6c-0.4-0.1-0.7-0.3-1.1-0.5c-0.1,0-0.1-0.2-0.1-0.3
			c0,0,0.2-0.1,0.3-0.1c0.3,0,0.6,0.1,1,0.1c1.3,0.1,2.4-0.1,3.4-1c0.2-0.1,0.4-0.3,0.5-0.2c0.1,0.1,0.3,0.3,0.3,0.5
			c0,0.2-0.1,0.4-0.2,0.5c-0.5,0.6-0.5,1.3,0.1,1.8c0.3,0.3,0.7,0.6,1.1,0.9c0.3,0.2,0.5,0.2,0.7-0.1c0.6-0.6,1.3-1.2,2.1-1.5
			c1.2-0.4,2.4,0.2,2.5,1.5c0.1,0.6,0.1,1.2,0,1.8c0,0.4,0,0.5,0.4,0.5c0.6,0,1.2,0.1,1.8,0.2c2,0.2,4-0.1,5.9-0.7
			c0.3-0.1,0.4-0.3,0.4-0.6c0-1.9-0.3-3.8-1.3-5.5c-0.8-1.3-1.6-1.4-3.1-1.1c-0.6,0.1-1.2,0.4-1.9,0.5c-0.7,0.2-1.3,0.2-2,0
			c-0.6-0.2-1.2-0.4-1.7-0.6c-1-0.4-2-0.8-3.1-1.1c-0.6-0.2-1.3-0.2-2-0.3c-0.2,0-0.3-0.1-0.5-0.1c0.1-0.2,0.1-0.4,0.2-0.5
			c0.4-0.4,1-0.5,1.5-0.4c0.4,0.1,0.5,0,0.6-0.4c0.2-0.6,0.4-1.3,0.6-1.9c0.3-0.7,0.2-0.9-0.6-1c-0.1,0-0.2,0-0.3,0
			c-1.5-0.2-2.9,0.2-4.2,0.7c-1.1,0.4-2.1,1-2.9,2c-0.3,0.3-0.7,0.6-1.1,0.9c-0.9,0.5-1.9,0.9-2.6,1.6c-1.9,1.7-3.6,3.6-4.6,6
			c-0.1,0.2-0.2,0.4-0.3,0.6c0,0,0.1,0.1,0.1,0.1c0.3-0.1,0.7-0.1,1-0.3c0.8-0.3,1.5-0.2,2,0.4c0.6,0.6,1.2,1.3,1.7,2
			c0.5,0.7,0.7,1.4,0.7,2.3c-0.1,1.8-0.8,3.4-2.1,4.6c-1,0.9-2.1,1.5-3.6,1.2c-0.9-0.2-1.8-0.5-2.7-0.7c-0.3-0.1-0.4,0-0.4,0.2
			c0,0.1,0,0.2-0.1,0.4c-0.2,1.5-0.4,3.1-0.6,4.6c-0.1,0.5,0,0.9,0,1.4c0,0.3,0.1,0.6-0.1,0.8c-0.3,0.5-0.7,1-1.2,1.3
			c-1,0.7-2,1.4-3.2,1.7c-1.3,0.3-2.5,0.3-3.7-0.2c-1-0.4-1.7-1-2.5-1.7c-0.4-0.4-0.7-0.8-1-1.2c-0.1-0.2-0.2-0.4-0.3-0.6
			C4.3,49.4,4.2,49,3.7,49c-0.5,0-0.9,0.2-1.1,0.7c-0.5,1-0.4,2-0.3,3c0.2,2,1.2,3.7,2.5,5.1C5.7,58.8,6.7,59.6,8,60
			c1.3,0.5,2.6,1,4,1c1.2,0.1,2.4,0,3.6-0.1c2-0.2,3.7-0.9,5.5-1.7c0.3-0.1,0.4-0.3,0.3-0.7c-0.1-0.2-0.1-0.5-0.1-0.7
			c0-0.3,0-0.6,0.4-0.6c0.4-0.1,0.5,0.1,0.6,0.4c0,0.2,0.1,0.3,0.2,0.4c0.3,0.6,0.6,1.1,0.8,1.7c0.5,0.9,0.3,1.7-0.2,2.5
			c-0.3,0.4-0.5,0.8-0.7,1.2c-0.4,0.6-0.3,0.9,0.4,1.2c1.2,0.7,2.6,1,4,0.9c1.4-0.1,2.7,0.3,4,0.6c1.1,0.2,2.1,0.7,3.2,1
			c1.3,0.4,2.7,0.5,4,0.3c0.8-0.1,1.6-0.3,2.3-0.5c0.2-0.1,0.4-0.2,0.6-0.3c0.6-0.4,0.8-1.1-0.2-1.4c-1-0.3-1.9-0.5-2.9-0.8
			c-0.3-0.1-0.6-0.2-0.5-0.5c0-0.4,0.4-0.3,0.6-0.4c0.1,0,0.2,0,0.3,0c0.4,0.1,0.9,0.3,1.3,0.3c0.6,0,1.2-0.1,1.8-0.2
			c0.2,0,0.3-0.3,0.4-0.5c0-0.1-0.2-0.3-0.3-0.4c-0.2-0.1-0.4-0.2-0.6-0.2c-0.7-0.2-1.4-0.2-2.1-0.1C38.4,62.4,38,62.4,38,62
			c0-0.3,0.3-0.5,0.6-0.5c0.6,0,1.2,0.1,1.8,0.2c0.1,0,0.3,0,0.4-0.1c0-0.2-0.1-0.4-0.2-0.5c-0.1-0.1-0.3-0.2-0.5-0.2
			c-0.6,0-1.3,0-1.9,0c-0.5,0-0.9,0.1-1.2,0.6c-0.1,0.1-0.2,0.3-0.3,0.3c-0.2,0.1-0.5,0.1-0.7,0.1c-0.3-0.1-0.3-0.4-0.2-0.6
			c0.1-0.1,0.1-0.3,0.2-0.4c0.7-1.6,0.6-3.1-0.7-4.5c-0.3-0.3-0.6-0.7-0.8-1c-0.2-0.3,0-0.8,0.3-0.7c0.3,0.1,0.7,0.2,1,0.4
			c0.8,0.7,1.5,1.5,1.8,2.6c0.1,0.3,0.3,0.4,0.5,0.3c1.4-0.6,2.9-1.2,4.3-1.9c0.8-0.4,1.5-1,2.1-1.5c0.5-0.4,0.9-1,1.3-1.5
			c0.2-0.2,0.1-0.4-0.2-0.4c-0.3,0-0.6,0-0.9,0.1c-0.8,0.2-1.5-0.1-2.2-0.3c-0.1,0-0.2-0.2-0.1-0.2c0-0.1,0.1-0.3,0.2-0.3
			c0.3-0.1,0.5-0.2,0.8-0.2c1.3,0,2.5-0.3,3.7-0.7c1.4-0.5,2.7-1,4.1-1.6c0.8-0.3,0.8-0.3,1.3,0.3c1,1.2,2.2,1.7,3.7,1.4
			c0.2,0,0.4-0.2,0.4-0.4c0.1-1-0.1-1.9-0.7-2.7c-0.3-0.5-0.2-1.1,0.4-1.4C56.9,46.3,57.5,46,58,45.7z M58,25.9
			c0.9,0.1,0.9,0.1,0.6-0.7c-0.4-1.1-0.7-2.3-1.1-3.5c-0.5-1.4-0.9-2.7-1.4-4c-0.2-0.6-0.6-1.2-0.8-1.9c-0.1-0.3-0.3-0.4-0.6-0.4
			c-0.4,0-0.8,0.1-1.1,0.2c-0.4,0.1-0.5,0.3-0.4,0.7c0.1,0.5,0.2,1,0.4,1.5c0.5,1.5,1,3,1.5,4.4c0.4,1.2,0.8,2.4,1.2,3.6
			c0.1,0.4,0.3,0.5,0.7,0.3C57.4,26,57.7,26,58,25.9z M58,54.8c-0.2-1.1-0.4-2-0.6-2.9c0-0.1-0.3-0.1-0.3-0.1
			c-0.6,0.3-1.2,0.4-1.8,0.3c-0.3,0-0.4,0.1-0.4,0.4c0.1,0.7,0.3,1.3,0.4,2c0,0.2,0.1,0.4,0.2,0.7C56.2,54.6,56.9,54.2,58,54.8z
			 M55.5,14.3c0.2,0,0.5,0,0.4-0.3c-0.1-0.6-0.2-1.2-0.3-1.7c-0.1-0.4-0.2-0.8-0.2-1.2c-0.2-0.7-0.4-1.4-0.6-2
			c-0.1-0.3-0.2-0.5-0.3-0.8c-0.1-0.4-0.3-0.7-0.7-0.8c-0.8-0.1-1.7-0.2-2.5-0.1c-1.1,0.1-2.1,0.5-3.2,0.7c-2,0.4-3.7,1.3-5.5,2.2
			c-0.2,0.1-0.7,0.1-0.6,0.6c0.1,0.4,0.5,0.1,0.7,0.1c0.3,0,0.6,0.1,0.7,0.2c0.1,0.2,0.1,0.5,0.1,0.8c0.2-0.1,0.5-0.3,0.8-0.4
			c1.2-0.4,2.4-0.8,3.5-1.3c1.9-0.7,4-1.1,6-1.4c0.1,0,0.3,0.1,0.4,0.2c-0.1,0.1-0.2,0.2-0.4,0.2c-0.9,0.2-1.9,0.3-2.8,0.6
			c-1.1,0.3-2.2,0.6-3.2,0.9c-1.3,0.4-2.5,1-3.7,1.5c-0.4,0.2-0.9,0.4-1,0.7c-0.2,0.6-0.3,1.4-0.4,2c0,0.1,0.2,0.3,0.3,0.3
			c0.5-0.1,1-0.1,1.5-0.2c1.4-0.5,2.7-1,4.1-1.5c2-0.7,4-1.1,6-1.4c0.1,0,0.3,0,0.4,0c0.1,0,0.1,0.1,0.2,0.2c0,0,0,0,0,0
			c0,0-0.1,0.1-0.1,0.1c-0.1,0-0.2,0-0.3,0.1c-1.4,0.3-2.8,0.5-4.2,0.9c-1.6,0.5-3.2,1.1-4.9,1.7c0.9,0.2,1.7,0.1,2.4-0.5
			c0.7,0.3,0.5,0.9,0.5,1.3c0.1,0,0.1,0.1,0.2,0c0.3-0.1,0.6-0.2,0.9-0.3C51.7,15,53.6,14.5,55.5,14.3z M54.2,37.7
			c0.1,0,0.2-0.2,0.1-0.3c0-0.2-0.1-0.5-0.2-0.7c-0.4-1.5-0.8-2.9-1.2-4.4c-0.4-2-0.8-4-1.6-5.8c-0.1-0.1-0.2-0.2-0.2-0.3
			c-0.1,0.1-0.3,0.2-0.3,0.3c-0.3,0.6-0.6,1.2-0.8,1.8c-0.2,0.6-0.4,1.3-0.1,2c0.2,0.5,0.3,1.1,0.4,1.6c0,0.1,0.1,0.3,0.2,0.3
			c0.6,0.4,1.1,0.8,1.7,1.2c0.1,0.1,0.3,0.2,0.4,0.3c0.7,0.7,0.8,1.6,0.8,2.6c0,0.6,0,1.1-0.1,1.8C53.7,37.9,54,37.8,54.2,37.7z
			 M54.1,24.7c-0.2-0.4-0.3-0.7-0.4-1c-0.5-1-1.2-1.5-2.3-1.4c-0.4,0-0.5-0.3-0.6-0.5c0-0.2,0.1-0.5,0.3-0.6
			c0.3-0.3,0.8-0.6,1.1-0.9c0.2-0.2,0.3-0.5,0.4-0.7c-0.2-0.1-0.5-0.2-0.7-0.2c-0.9,0-1.6-0.3-2.3-0.7c-0.6-0.3-1.3-0.4-1.9,0
			c-0.1,0.1-0.2,0.1-0.3,0.1c-0.1,0-0.3,0-0.4-0.1c-0.1-0.1,0-0.2,0-0.4c0.1-0.3,0.3-0.7,0.5-1c0.1-0.4,0.2-0.9,0.3-1.4
			c-0.3,0-0.4,0.1-0.5,0.1c-0.8,0.1-1.6,0.1-2.4,0.2c-0.7,0-1.4,0.2-1.9,0.8c-0.1,0.1-0.2,0.2-0.4,0.4c-0.1-0.3-0.2-0.5-0.2-0.7
			c-0.1-1.3-0.1-2.5,0.2-3.8c0.2-0.6,0.1-0.7-0.5-0.5c-1.8,0.5-3.4,1.3-3.9,3.3c-0.1,0.4-0.4,0.5-0.7,0.3c-0.7-0.3-1.4-0.7-2.1-0.9
			c-1-0.3-2.1-0.3-3.1,0.1c-0.2,0.1-0.3,0.2-0.5,0.4c0.1,0.1,0.3,0.3,0.4,0.4c0.6,0.4,1.2,0.8,1.8,1.3c0.1,0.1,0.2,0.2,0.3,0.3
			c0.3,0.5,0,0.9-0.5,0.9c-0.5,0-1-0.1-1.5,0c-0.4,0.1-0.8,0.3-1.2,0.5c-0.3,0.2-0.6,0.5-0.9,0.7c-0.4,0.3-0.8,0.5-1.1,0.7
			c0,0,0,0.1,0.1,0.1c0.6,0.5,1.4,0.8,2.2,1c0.1,0,0.2,0,0.3,0c1.3-0.4,2.6-0.6,3.9-0.5c1.3,0,2.6-0.1,3.7-0.8
			c0.3-0.2,0.7-0.4,1-0.6c0.7-0.4,1.4-0.5,2.1-0.3c1.3,0.4,2.5,0.9,3.5,1.8c0.4,0.4,0.9,0.5,1.4,0.5c1.1-0.1,2,0.3,2.6,1.2
			c0.4,0.5,0.6,1.1,0.7,1.8c0,0.3,0,0.5,0.4,0.4c0.6-0.1,1.3-0.1,1.9-0.2C53.2,24.7,53.6,24.7,54.1,24.7z M53,18.6
			c0.3,0,0.3-0.1,0.3-0.4c-0.2-0.7-0.4-1.4-0.6-2.1c0-0.1-0.2-0.2-0.3-0.2c-1.2,0.2-2.4,0.6-3.5,1.4c0.6,0.3,1.1,0.4,1.4,0.7
			C51.1,18.7,52,18.5,53,18.6z M52.1,61.7c0.5-0.3,0.6-0.8,0.4-1.3c-0.2-0.4-0.5-0.6-1.1-0.5c-0.3,0.1-0.6,0.1-0.9,0.3
			c-0.3,0.2-0.6,0-0.8-0.2c0,0,0.1-0.4,0.2-0.6c0.2-0.2,0.5-0.2,0.7-0.3c0.5-0.3,0.5-0.6,0-0.9c-0.2-0.1-0.4-0.1-0.6-0.1
			c-0.2,0-0.5,0.2-0.7,0.3c-0.1,0-0.4,0-0.4,0c0-0.2-0.1-0.4,0-0.5c0.2-0.2,0.5-0.3,0.7-0.4c0.2-0.1,0.4-0.2,0.6-0.3
			c0-0.1,0-0.1,0-0.2c-0.2,0-0.4-0.1-0.6-0.1c-1.2,0-2.4,0.4-3.5,0.8c-0.5,0.2-1,0.3-1.4,0.4c-0.4,0.1-0.6-0.2-0.4-0.6
			c0.2-0.3,0.1-0.5-0.2-0.7c-0.3-0.2-0.5-0.3-0.8,0c-0.1,0.1-0.2,0.1-0.4,0.2c-1.2,0.6-2.5,1.2-3.7,1.8c-0.2,0.1-0.4,0.3-0.7,0.5
			c0.5,0.1,0.9,0.2,1.3,0.3c0.4,0.2,0.8,0.4,1.1,0.6c0.3,0.3,0.6,0.6,0.7,0.9c0.4,0.9,0.7,1.2,1.7,1.2c0.4,0,0.7,0,1.1,0
			c0.9,0,1.9,0.2,2.8,0.1c1.2-0.1,2.4-0.2,3.7-0.4C51.4,62.1,51.8,61.9,52.1,61.7z M52.1,6.3c0.5,0,0.5,0,0.4-0.5
			C52.3,5,52.1,4.2,52,3.5c-0.1-0.3-0.2-0.6-0.6-0.7c-0.7-0.2-1.4-0.4-2.1-0.4c-2.6,0-4.8,1-6.7,2.8c-0.1,0.1-0.2,0.4-0.2,0.6
			c0,0.4,0,0.9-0.1,1.3c-0.2,0.7,0,1.4,0.1,2.1C42.6,9,42.6,9,42.7,8.9c1-0.9,2.3-1.3,3.4-1.8C46.4,7,46.7,6.8,47,6.8
			C48.7,6.4,50.4,6.1,52.1,6.3z M49.6,26.1c0.1-1.3-0.3-2.3-1.4-3.1c-0.4-0.3-0.8-0.5-1.3-0.3s-0.7,0.6-0.7,1.1
			c0,0.2-0.1,0.3-0.1,0.5c0,0.2,0,0.4,0,0.7c0.2-0.1,0.4-0.1,0.5-0.1c0.7-0.3,1.3,0.1,1.4,0.8c0.1,0.5,0,0.9-0.3,1.3
			c-0.2,0.2-0.1,0.4,0.1,0.5c0.1,0.1,0.3,0.1,0.4,0.2c0.3,0.2,0.6,0.1,0.7-0.1C49.3,27.1,49.6,26.6,49.6,26.1z M45.5,23.4
			c0-0.7-0.2-1.3-0.7-1.8c-0.8-0.8-1.8-1.1-2.9-1.1c-1.1,0-2.1,0.4-2.9,1.3c-0.9,1-1.6,2.1-1.7,3.4c-0.1,0.6,0.1,0.8,0.7,0.8
			c0.1-0.7,0.6-1.2,1.2-1.5c0.8-0.4,1.8-0.2,2,0.8c0.1,0.5,0.1,1-0.3,1.4c-0.3,0.4-0.2,0.5,0.2,0.6c1.2,0.4,2.2,0.2,3.3-0.4
			c0.2-0.1,0.3-0.3,0.4-0.5C45.2,25.5,45.4,24.5,45.5,23.4z M39.4,35.1c0.6,0.2,0.6,0.1,0.6-0.5c0-0.2-0.1-0.4-0.1-0.6
			c0-0.2,0-0.4,0-0.7c-0.1-0.5-0.4-0.8-1-0.8c-0.7,0.1-1.2,0.4-1.6,0.9c-0.3,0.3-0.3,0.5,0.1,0.7C38,34.5,38.7,34.8,39.4,35.1z
			 M26.8,24.6c0.4-0.3,0.8-0.6,1.1-1.1c-0.2,0-0.4,0-0.6,0c-1.8,0.1-3.5,0.4-5.2,1.1c-0.6,0.3-1.1,0.9-1.6,1.3
			c-0.2,0.2-0.1,0.4,0.2,0.5c0.5,0.2,1.1,0.4,1.6,0.7c0.4,0.2,0.7,0.2,1-0.2c0.1-0.2,0.3-0.3,0.5-0.4C24.8,25.8,25.8,25.2,26.8,24.6
			z M23.7,40.6c0.3-0.8,0.6-1.7,0.6-2.6c0-0.3-0.1-0.7-0.1-1c-0.1-0.7-0.5-1.2-1.2-1.5c-0.9-0.5-1.7-0.4-2.6-0.2
			c-0.4,0.1-0.9,0.3-1.1,0.7c-0.3,0.4-0.4,0.9-0.6,1.4c-0.3,1-0.6,2-1,3c-0.2,0.6-0.1,1.1,0.3,1.6c0.7,1,2.9,1,3.8,0.6
			C22.8,42.2,23.4,41.6,23.7,40.6z M21.6,28.9c0,0-0.1-0.1-0.1-0.1c-0.2,0.1-0.5,0.1-0.7,0.2c-0.7,0.3-1.4,0.7-2.2,1
			c-1.3,0.6-2.3,1.6-3,2.9c-0.3,0.6-0.1,0.9,0.5,0.9c0.6,0,1.3,0.1,1.9,0.1c0.1,0,0.3-0.1,0.4-0.2c0.1-0.1,0.1-0.3,0.2-0.5
			c0.5-1.1,1.1-2.2,1.9-3.1C21,29.7,21.3,29.3,21.6,28.9z M17,37.4c0-0.1,0.1-0.3,0.1-0.4c0,0-0.1-0.1-0.1-0.1
			c-0.2,0.1-0.4,0.2-0.6,0.4c-1.3,0.9-2.5,2.1-3.5,3.4c-0.2,0.3-0.4,0.5-0.5,0.9c-0.4,1.2-0.2,1.2,0.8,1.4c0.1,0,0.3,0,0.4,0
			c0.6,0,1.1,0,1.7,0.1c0.3,0,0.4,0,0.4-0.4c0-0.6,0-1.2,0.1-1.7C16.2,39.7,16.6,38.5,17,37.4z M15.1,48.8c0.3-1,0-1.9,0-3
			c-0.2,0.1-0.4,0.2-0.5,0.3c-0.4,0.5-0.9,1-1.3,1.5c-0.3,0.4-0.2,0.7,0.3,1c0.3,0.2,0.6,0.3,0.9,0.4C14.8,49.2,15,49.2,15.1,48.8z
			 M12.7,51.6c0.3-0.2,0.3-0.4,0-0.5c-0.4-0.2-0.8-0.3-1.2-0.5c-0.5-0.2-0.7,0-0.8,0.5c0,0.1,0,0.3,0,0.4c0,0.3-0.1,0.6,0.4,0.6
			C11.6,52.1,12.2,51.9,12.7,51.6z M7,51.2c0-0.5-0.2-0.9-0.5-1.1c-0.1,0-0.3,0-0.4,0c-0.1,0-0.1,0.2-0.1,0.3
			C6.1,50.7,6.6,51.1,7,51.2z"/>
		<path class="st5" d="M65.9,52c0,0.3,0,0.6,0,0.8c0,0,0,0,0,0c-0.1,1.9-0.1,3.8-0.2,5.6c0,0.5-0.3,0.7-0.8,0.7
			c-1.6,0-2.7,0.8-3.7,2c-0.3,0.4-0.5,0.3-0.7,0c-0.6-0.6-1.1-1.2-1.7-1.8c-0.8-0.8-1.6-1.5-2.4-2.3c-0.4-0.3-0.4-0.7-0.3-1
			c0.2-0.4,0.5-0.6,0.9-0.6c0.5,0.1,1.1,0.2,1.6,0.2c0.6,0,1.2-0.3,1.5-0.9c0.1-0.2,0.2-0.3,0.3-0.5c0.4-0.8,0.6-0.8,1.5-0.8
			c0.8,0,1.7,0.1,2.3-0.5c0.3-0.3,0.6-0.7,0.9-1.1c0.1-0.1,0.1-0.2,0.2-0.2c0.1-0.1,0.3-0.1,0.4-0.1C65.8,51.7,65.9,51.9,65.9,52z"
			/>
		<path class="st6" d="M65.5,49.7c0.1,0.4,0,0.7-0.3,1c-0.4,0.3-0.8,0.7-1.3,1.1c-0.2-0.9-0.4-1.7-0.6-2.5c-0.2-0.8-0.3-1.6-0.6-2.4
			c-0.6-2-1.2-4-1.8-6c-0.3-0.9-0.6-1.7-0.9-2.6c-0.2-0.8-0.4-1.6-0.6-2.4c-0.1-0.3,0.1-0.5,0.4-0.6c0.1,0,0.3-0.1,0.4-0.1
			c0.4-0.1,0.6,0,0.7,0.4c0.1,0.9,0.2,1.8,0.8,2.5c0.1,0.1,0.1,0.2,0.2,0.3c0.6,0.3,0.8,0.8,1,1.4c0.5,1.6,1,3.3,1.5,4.9
			C64.9,46.4,65.3,48.1,65.5,49.7z"/>
		<path class="st7" d="M63.5,33c0.5,0.7,0.6,1.5,0.5,2.3c-0.1,0.8-0.5,1.5-0.8,2.2c0,0.1-0.3,0.3-0.4,0.2c-0.1,0-0.3-0.2-0.3-0.3
			c-0.2-1.1-0.5-2.1-0.7-3.2c-0.1-0.3-0.1-0.6-0.5-0.7c-0.2,0-0.5,0.1-0.7,0.3c-0.6,0.5-1.2,0.9-2.1,0.9c-0.7,0-1-0.4-0.7-1
			c0.2-0.5,0.5-0.9,0.8-1.4c0.3-0.4,0.6-0.8,0.8-1.2c0.3-0.4,0.3-0.8-0.2-1c-0.9-0.4-1.4-1-1.9-1.8c0-0.1-0.1-0.1-0.1-0.2
			c0-0.3-0.2-0.6-0.1-0.9c0-0.1,0.5-0.2,0.7-0.2c0.1,0,0.3,0,0.4,0c0.6,0.1,1.3,0,1.8,0.4c0.4,0.3,0.7,0.6,0.7,1.1
			c0,0.1,0.2,0.4,0.3,0.4c1.1,0.5,1.8,1.3,1.9,2.5C63.1,32.2,63.2,32.6,63.5,33z"/>
		<path class="st6" d="M63.5,52c0,0.1-0.1,0.3-0.2,0.3c-0.4,0.1-0.8,0.2-1.2,0.1c-1.2-0.3-1.4,0-2.2,0.9c-0.3,0.3-0.6,0.8-0.9,1.1
			c-0.1,0.2-0.4,0.2-0.7,0.4c-0.2-1.1-0.5-2.2-0.7-3.2c0-0.2,0-0.5,0.1-0.6c0.6-0.7,0.4-1.5,0.1-2.2c-0.2-0.5-0.3-0.9-0.3-1.4
			c0-0.2,0.2-0.4,0.3-0.5c0.4-0.3,0.8-0.4,1.1-0.7c0.6-0.4,0.8-1.4,0.6-2.1c-0.3-1.1-1.2-1.4-2.1-1.6c-0.7-0.1-0.9-0.4-0.8-1.1
			c0.1-0.7,0.1-1.5,0.1-2.3c0-0.8-0.5-1.3-1.4-1.5c-0.5-0.1-0.8-0.4-0.9-0.9c-0.6-2.7-1.3-5.3-2-8c-0.2-0.7-0.4-1.3-0.6-2
			c0-0.2-0.1-0.3-0.1-0.5c0-0.6,0-0.7,0.6-0.8c0.5,0,1,0.1,1.4,0.2c0.3,0,0.7,0.1,1,0.1c0.3,0,0.5-0.2,0.4-0.5
			c-0.4-1.1-0.8-2.3-1.7-3.1c-0.3-0.2-0.6-0.4-1-0.6c0.4-0.4,0.8-0.8,1.2-1.3c0.3,0.6,0.5,1.1,0.7,1.6c0.4,1.2,0.8,2.4,1.2,3.5
			c0.1,0.2,0.1,0.3,0.2,0.5c0.2,0.3,0.2,0.6-0.1,0.9c-0.4,0.5-0.1,1,0,1.5c0.3,1.1,1.1,1.8,1.9,2.5c0.1,0.1,0.1,0.1,0.1,0.1
			c-0.3,0.6-0.7,1.1-0.8,1.7c-0.2,0.7-0.2,1.5-0.3,2.2c0,0.4,0.4,0.8,0.8,0.9c0.3,0,0.7,0,1.1,0c0.2,0,0.3,0,0.4,0.3
			c0.5,1.7,1.1,3.4,1.6,5c0.6,1.9,1.1,3.8,1.7,5.7c0.1,0.4,0.2,0.8,0.3,1.2C63,49.3,63.2,50.7,63.5,52z"/>
		<path class="st7" d="M58.7,44.7c0,0.5-0.3,0.8-0.7,1c-0.5,0.3-1.1,0.5-1.6,0.8c-0.5,0.2-0.7,0.9-0.4,1.4c0.5,0.8,0.7,1.8,0.7,2.7
			c0,0.1-0.2,0.4-0.4,0.4c-1.5,0.3-2.8-0.2-3.7-1.4c-0.5-0.7-0.5-0.7-1.3-0.3c-1.3,0.5-2.7,1.1-4.1,1.6c-1.2,0.4-2.4,0.6-3.7,0.7
			c-0.3,0-0.6,0.1-0.8,0.2c-0.1,0-0.2,0.2-0.2,0.3c0,0.1,0.1,0.2,0.1,0.2c0.7,0.2,1.4,0.5,2.2,0.3c0.3-0.1,0.6-0.1,0.9-0.1
			c0.3,0,0.4,0.2,0.2,0.4c-0.4,0.5-0.8,1.1-1.3,1.5c-0.6,0.6-1.3,1.2-2.1,1.5c-1.4,0.7-2.9,1.3-4.3,1.9c-0.3,0.1-0.5,0-0.5-0.3
			c-0.3-1-1-1.9-1.8-2.6c-0.3-0.2-0.6-0.3-1-0.4c-0.3-0.1-0.5,0.4-0.3,0.7c0.2,0.4,0.5,0.7,0.8,1c1.3,1.3,1.3,2.9,0.7,4.5
			C36.1,60.9,36,61,36,61.2c-0.1,0.3-0.1,0.5,0.2,0.6c0.2,0.1,0.5,0,0.7-0.1c0.1,0,0.3-0.2,0.3-0.3c0.3-0.5,0.7-0.6,1.2-0.6
			c0.6,0,1.3,0,1.9,0c0.2,0,0.4,0.1,0.5,0.2c0.1,0.1,0.1,0.3,0.2,0.5c-0.1,0-0.3,0.1-0.4,0.1c-0.6,0-1.2-0.1-1.8-0.2
			c-0.4,0-0.7,0.2-0.6,0.5c0,0.4,0.4,0.4,0.7,0.4c0.7-0.1,1.4-0.1,2.1,0.1c0.2,0.1,0.4,0.1,0.6,0.2c0.1,0.1,0.3,0.3,0.3,0.4
			c-0.1,0.2-0.2,0.4-0.4,0.5c-0.6,0.1-1.2,0.2-1.8,0.2c-0.4,0-0.9-0.2-1.3-0.3c-0.1,0-0.2-0.1-0.3,0c-0.2,0.1-0.6,0-0.6,0.4
			c0,0.3,0.2,0.5,0.5,0.5c1,0.2,2,0.5,2.9,0.8c1,0.3,0.8,1,0.2,1.4c-0.2,0.1-0.4,0.2-0.6,0.3c-0.8,0.2-1.6,0.4-2.3,0.5
			c-1.4,0.2-2.7,0-4-0.3c-1.1-0.3-2.1-0.8-3.2-1c-1.3-0.3-2.6-0.7-4-0.6c-1.4,0.1-2.7-0.2-4-0.9c-0.6-0.3-0.7-0.6-0.4-1.2
			c0.2-0.4,0.5-0.8,0.7-1.2c0.5-0.8,0.7-1.6,0.2-2.5c-0.3-0.5-0.6-1.1-0.8-1.7c-0.1-0.1-0.1-0.3-0.2-0.4c-0.1-0.3-0.2-0.5-0.6-0.4
			c-0.4,0.1-0.4,0.3-0.4,0.6c0,0.3,0.1,0.5,0.1,0.7c0.1,0.3,0,0.5-0.3,0.7c-1.8,0.8-3.5,1.5-5.5,1.7c-1.2,0.1-2.4,0.2-3.6,0.1
			c-1.4-0.1-2.7-0.5-4-1c-1.2-0.5-2.2-1.2-3.1-2.2c-1.3-1.5-2.3-3.1-2.5-5.1c-0.1-1-0.2-2,0.3-3c0.2-0.5,0.6-0.7,1.1-0.7
			c0.4,0,0.6,0.3,0.8,0.7c0.1,0.2,0.2,0.5,0.3,0.6c0.3,0.4,0.6,0.9,1,1.2c0.7,0.7,1.5,1.3,2.5,1.7c1.2,0.5,2.4,0.5,3.7,0.2
			c1.2-0.3,2.2-1,3.2-1.7c0.5-0.3,0.8-0.8,1.2-1.3c0.1-0.2,0.1-0.5,0.1-0.8c0-0.5-0.1-0.9,0-1.4c0.2-1.5,0.4-3.1,0.6-4.6
			c0-0.1,0-0.2,0.1-0.4c0.1-0.3,0.2-0.3,0.4-0.2c0.9,0.3,1.8,0.5,2.7,0.7c1.4,0.3,2.6-0.3,3.6-1.2c1.3-1.2,2-2.8,2.1-4.6
			c0-0.8-0.2-1.6-0.7-2.3c-0.5-0.7-1.1-1.4-1.7-2c-0.6-0.5-1.3-0.7-2-0.4c-0.3,0.1-0.7,0.2-1,0.3c0,0-0.1-0.1-0.1-0.1
			c0.1-0.2,0.2-0.4,0.3-0.6c1-2.4,2.7-4.3,4.6-6c0.7-0.7,1.7-1,2.6-1.6c0.4-0.2,0.8-0.5,1.1-0.9c0.8-0.9,1.7-1.6,2.9-2
			c1.4-0.5,2.8-0.8,4.2-0.7c0.1,0,0.2,0,0.3,0c0.7,0.1,0.8,0.4,0.6,1c-0.2,0.6-0.4,1.3-0.6,1.9c-0.1,0.4-0.2,0.5-0.6,0.4
			c-0.5-0.1-1.1-0.1-1.5,0.4C34,25.8,34,26,33.9,26.2c0.2,0,0.3,0.1,0.5,0.1c0.7,0.1,1.3,0.1,2,0.3c1,0.3,2.1,0.7,3.1,1.1
			c0.6,0.2,1.2,0.4,1.7,0.6c0.7,0.2,1.3,0.2,2,0c0.6-0.2,1.2-0.4,1.9-0.5c1.5-0.3,2.3-0.3,3.1,1.1c1,1.7,1.3,3.6,1.3,5.5
			c0,0.3-0.1,0.5-0.4,0.6c-1.9,0.6-3.9,0.9-5.9,0.7c-0.6-0.1-1.2-0.1-1.8-0.2c-0.4,0-0.5-0.2-0.4-0.5c0-0.6,0-1.2,0-1.8
			c-0.1-1.3-1.2-2-2.5-1.5c-0.8,0.3-1.5,0.9-2.1,1.5c-0.3,0.2-0.5,0.3-0.7,0.1c-0.4-0.3-0.7-0.6-1.1-0.9c-0.5-0.5-0.5-1.2-0.1-1.8
			c0.1-0.1,0.2-0.3,0.2-0.5c0-0.2-0.1-0.5-0.3-0.5c-0.1-0.1-0.4,0.1-0.5,0.2c-1,0.8-2.2,1.1-3.4,1c-0.3,0-0.6-0.1-1-0.1
			c-0.1,0-0.3,0.1-0.3,0.1c0,0.1,0,0.3,0.1,0.3c0.4,0.2,0.7,0.4,1.1,0.5c0.8,0.2,1.6,0.4,2.4,0.6c0.1,0,0.3,0.1,0.3,0.2
			c1.1,1.1,2.4,2,3.8,2.7c0.9,0.5,1.7,1,2.7,1.2c1,0.2,2,0.4,3.1,0.4c1.4,0.1,2.8,0,4.3-0.1c0.9-0.1,1.8-0.5,2.7-0.7
			c0.1,0,0.2-0.1,0.3-0.1c0.8-0.2,0.8-0.3,0.7-1.1c0-0.3-0.1-0.7,0.1-0.8c0.3-0.2,0.5,0.1,0.8,0.3c0.9,0.6,0.9,1.6,0.8,2.5
			c-0.1,0.5-0.2,1.1-0.3,1.6c0,0.2-0.1,0.3-0.2,0.5c-0.6,0.7-1.2,1.4-1.9,2.1c-0.6,0.6-1.4,0.9-2.2,1.1c-1.2,0.3-2.4,0.5-3.6,0.8
			c-0.4,0.1-0.8,0-1.1,0.1c-0.3,0-0.7,0.1-1,0.1c-0.1,0-0.1,0.3-0.1,0.4c0.3,0.3,0.6,0.6,1.1,0.5c0.5-0.1,1,0,1.4-0.1
			c1.3-0.3,2.6-0.6,3.8-0.9c0.5-0.1,1-0.3,1.4-0.5c0.3-0.1,0.6-0.3,0.7-0.5c0.9-1,1.8-2,3-2.6c0.4-0.2,0.9-0.4,1.4-0.6
			c0.4-0.1,0.7,0,0.8,0.5c0,0.5,0,1-0.1,1.4c-0.2,0.6-0.6,1.3-0.9,1.9c-0.3,0.5-0.3,0.9,0.3,1.2c0.1,0,0.2,0,0.3,0
			c0.7-0.1,1.4-0.2,2.1-0.2c0.2,0,0.4,0.1,0.6,0.1C58.4,43.9,58.7,44.3,58.7,44.7z M32.2,42.1c0.1-0.8-0.1-1.5-0.7-2.1
			c-1-0.9-3.2-0.5-3.6,1.2c-0.2,1,0,1.7,0.8,2.1c0.3,0.2,0.8,0.2,1.2,0.3c0,0,0,0,0-0.1c0.1,0,0.3,0,0.4,0
			C31.1,43.5,32.1,42.7,32.2,42.1z M28.6,49.7c0.5-0.9,0-2.2-0.8-2.9c-0.8-0.6-1.7-0.6-2.6-0.7c-1.3-0.1-2.6,1.1-2.9,2.1
			c-0.2,0.6-0.2,1.3-0.1,1.9c0.1,0.7,0.4,1.2,1,1.5c0.3,0.1,0.6,0.3,0.8,0.4c1.2,0.8,3.9-0.2,4.2-1.7C28.3,50.2,28.5,50,28.6,49.7z"
			/>
		<path class="st6" d="M58.6,25.2c0.3,0.8,0.3,0.8-0.6,0.7c-0.3,0.1-0.6,0.1-0.9,0.2c-0.4,0.2-0.6,0-0.7-0.3
			c-0.4-1.2-0.8-2.4-1.2-3.6c-0.5-1.5-1-3-1.5-4.4c-0.2-0.5-0.3-1-0.4-1.5c-0.1-0.4,0-0.6,0.4-0.7c0.4-0.1,0.8-0.1,1.1-0.2
			c0.3,0,0.5,0.1,0.6,0.4c0.2,0.6,0.5,1.3,0.8,1.9c0.5,1.3,1,2.7,1.4,4C57.9,22.9,58.3,24,58.6,25.2z"/>
		<path class="st6" d="M57.3,51.9c0.2,0.9,0.4,1.8,0.6,2.9c-1-0.6-1.8-0.3-2.5,0.5c-0.1-0.3-0.2-0.5-0.2-0.7c-0.1-0.6-0.3-1.3-0.4-2
			c-0.1-0.3,0-0.5,0.4-0.4c0.6,0.1,1.2,0,1.8-0.3C57.1,51.8,57.3,51.9,57.3,51.9z"/>
		<path class="st8" d="M55.9,14c0,0.3-0.2,0.3-0.4,0.3c-1.9,0.2-3.8,0.7-5.7,1.3c-0.3,0.1-0.6,0.2-0.9,0.3c0,0-0.1,0-0.2,0
			c0-0.5,0.2-1.1-0.5-1.3c-0.7,0.6-1.4,0.7-2.4,0.5c1.7-0.6,3.3-1.2,4.9-1.7c1.4-0.4,2.8-0.6,4.2-0.9c0.1,0,0.2,0,0.3-0.1
			c0.1,0,0.1-0.1,0.1-0.1l0.1,0C55.7,12.8,55.8,13.4,55.9,14z"/>
		<path class="st8" d="M55.6,12.2L55.6,12.2C55.5,12.3,55.5,12.3,55.6,12.2c-0.1-0.1-0.2-0.1-0.2-0.2c-0.1,0-0.3,0-0.4,0
			c-2.1,0.3-4.1,0.7-6,1.4c-1.4,0.5-2.7,1-4.1,1.5c-0.5,0.2-1,0.2-1.5,0.2c-0.1,0-0.3-0.2-0.3-0.3c0.1-0.7,0.1-1.4,0.4-2
			c0.1-0.3,0.6-0.5,1-0.7c1.2-0.5,2.5-1,3.7-1.5c1.1-0.4,2.1-0.7,3.2-0.9c0.9-0.2,1.9-0.4,2.8-0.6c0.1,0,0.3-0.1,0.4-0.2L54.8,9
			c0.2,0.7,0.4,1.3,0.6,2C55.5,11.4,55.6,11.8,55.6,12.2z"/>
		<path class="st8" d="M54.8,9l-0.2,0.1c-0.1-0.1-0.3-0.2-0.4-0.2c-2,0.3-4.1,0.7-6,1.4c-1.2,0.4-2.4,0.8-3.5,1.3
			c-0.3,0.1-0.6,0.3-0.8,0.4c0-0.3,0.1-0.7-0.1-0.8c-0.1-0.2-0.5-0.2-0.7-0.2c-0.3,0-0.6,0.3-0.7-0.1c-0.1-0.4,0.3-0.4,0.6-0.6
			c1.7-0.9,3.5-1.8,5.5-2.2c1.1-0.2,2.1-0.6,3.2-0.7c0.8-0.1,1.6,0,2.5,0.1c0.4,0,0.6,0.4,0.7,0.8C54.6,8.4,54.7,8.7,54.8,9z"/>
		<path class="st6" d="M54.3,37.4c0,0.1-0.1,0.3-0.1,0.3c-0.2,0.1-0.5,0.2-0.8,0.3c0-0.7,0.1-1.2,0.1-1.8c0-0.9-0.1-1.8-0.8-2.6
			c-0.1-0.1-0.3-0.2-0.4-0.3c-0.6-0.4-1.1-0.8-1.7-1.2c-0.1-0.1-0.2-0.2-0.2-0.3c-0.1-0.5-0.2-1.1-0.4-1.6c-0.3-0.7-0.1-1.3,0.1-2
			c0.2-0.6,0.5-1.2,0.8-1.8c0.1-0.1,0.2-0.2,0.3-0.3c0.1,0.1,0.2,0.2,0.2,0.3c0.8,1.9,1.2,3.8,1.6,5.8c0.3,1.5,0.8,2.9,1.2,4.4
			C54.2,36.9,54.3,37.1,54.3,37.4z"/>
		<path class="st9" d="M53.7,23.7c0.1,0.3,0.2,0.6,0.4,1c-0.5,0-0.9,0-1.3,0.1c-0.6,0.1-1.3,0.1-1.9,0.2c-0.4,0.1-0.4-0.2-0.4-0.4
			c0-0.7-0.3-1.2-0.7-1.8c-0.6-0.9-1.5-1.3-2.6-1.2c-0.6,0-1-0.1-1.4-0.5c-1-0.9-2.2-1.4-3.5-1.8c-0.7-0.2-1.4-0.1-2.1,0.3
			c-0.3,0.2-0.7,0.4-1,0.6c-1.2,0.7-2.4,0.9-3.7,0.8c-1.3,0-2.7,0.2-3.9,0.5c-0.1,0-0.2,0.1-0.3,0c-0.8-0.2-1.6-0.5-2.2-1
			c0,0,0-0.1-0.1-0.1c0.4-0.2,0.8-0.5,1.1-0.7c0.3-0.2,0.6-0.5,0.9-0.7c0.4-0.2,0.8-0.4,1.2-0.5c0.5-0.1,1,0,1.5,0
			c0.5,0,0.8-0.4,0.5-0.9c-0.1-0.1-0.2-0.3-0.3-0.3c-0.6-0.4-1.2-0.8-1.8-1.3c-0.1-0.1-0.3-0.3-0.4-0.4c0.2-0.1,0.3-0.3,0.5-0.4
			c1-0.4,2.1-0.4,3.1-0.1c0.7,0.2,1.4,0.6,2.1,0.9c0.3,0.2,0.6,0.1,0.7-0.3c0.6-2,2.1-2.8,3.9-3.3c0.6-0.2,0.7,0,0.5,0.5
			c-0.3,1.2-0.3,2.5-0.2,3.8c0,0.2,0.1,0.4,0.2,0.7c0.2-0.2,0.3-0.3,0.4-0.4c0.4-0.7,1.1-0.8,1.9-0.8c0.8,0,1.6-0.1,2.4-0.2
			c0.1,0,0.3,0,0.5-0.1c-0.1,0.5-0.2,1-0.3,1.4c-0.1,0.4-0.3,0.7-0.5,1c0,0.1-0.1,0.3,0,0.4c0.1,0.1,0.2,0.1,0.4,0.1
			c0.1,0,0.2-0.1,0.3-0.1c0.6-0.4,1.3-0.3,1.9,0c0.7,0.4,1.5,0.7,2.3,0.7c0.2,0,0.5,0.1,0.7,0.2c-0.1,0.2-0.2,0.5-0.4,0.7
			c-0.3,0.3-0.8,0.6-1.1,0.9c-0.2,0.2-0.3,0.4-0.3,0.6c0,0.3,0.2,0.6,0.6,0.5C52.5,22.2,53.2,22.7,53.7,23.7z"/>
		<path class="st6" d="M53.2,18.2c0.1,0.3,0,0.4-0.3,0.4c-0.9-0.1-1.9,0.1-2.7-0.6c-0.4-0.3-0.9-0.4-1.4-0.7
			c1.1-0.8,2.2-1.3,3.5-1.4c0.1,0,0.3,0.1,0.3,0.2C52.8,16.8,53,17.5,53.2,18.2z"/>
		<path class="st7" d="M52.5,60.4c0.2,0.5,0,1-0.4,1.3c-0.3,0.2-0.7,0.4-1,0.4c-1.2,0.2-2.4,0.3-3.7,0.4c-0.9,0-1.9-0.1-2.8-0.1
			c-0.4,0-0.7,0-1.1,0c-0.9,0-1.3-0.4-1.7-1.2c-0.1-0.4-0.4-0.7-0.7-0.9c-0.3-0.3-0.7-0.5-1.1-0.6c-0.4-0.2-0.8-0.2-1.3-0.3
			c0.3-0.2,0.4-0.4,0.7-0.5c1.2-0.6,2.5-1.2,3.7-1.8c0.1-0.1,0.3-0.1,0.4-0.2c0.3-0.2,0.5-0.2,0.8,0c0.2,0.2,0.3,0.4,0.2,0.7
			c-0.2,0.4,0.1,0.6,0.4,0.6c0.5-0.1,1-0.2,1.4-0.4c1.1-0.4,2.3-0.8,3.5-0.8c0.2,0,0.4,0,0.6,0.1c0,0.1,0,0.1,0,0.2
			c-0.2,0.1-0.4,0.2-0.6,0.3c-0.2,0.1-0.5,0.2-0.7,0.4c-0.1,0.1-0.1,0.3,0,0.5c0,0.1,0.3,0.1,0.4,0c0.2-0.1,0.5-0.2,0.7-0.3
			c0.2,0,0.5,0,0.6,0.1c0.5,0.3,0.4,0.7,0,0.9c-0.2,0.1-0.5,0.2-0.7,0.3c-0.1,0.1-0.3,0.5-0.2,0.6c0.2,0.2,0.4,0.4,0.8,0.2
			c0.3-0.1,0.6-0.2,0.9-0.3C52.1,59.8,52.4,60,52.5,60.4z"/>
		<path class="st10" d="M52.5,5.7c0.1,0.5,0.1,0.6-0.4,0.5c-1.7-0.2-3.4,0.2-5.1,0.5c-0.3,0.1-0.6,0.2-0.9,0.4
			c-1.2,0.5-2.4,1-3.4,1.8c-0.1,0-0.1,0.1-0.3,0.2c-0.1-0.8-0.2-1.4-0.1-2.1c0.1-0.4,0-0.8,0.1-1.3c0-0.2,0.1-0.5,0.2-0.6
			c1.9-1.8,4.1-2.7,6.7-2.8c0.7,0,1.4,0.2,2.1,0.4c0.3,0.1,0.5,0.3,0.6,0.7C52.1,4.2,52.3,5,52.5,5.7z"/>
		<path class="st11" d="M48.3,23c1.1,0.8,1.5,1.8,1.4,3.1c-0.1,0.5-0.3,1-0.5,1.5c-0.1,0.3-0.4,0.4-0.7,0.1
			c-0.1-0.1-0.3-0.2-0.4-0.2c-0.2-0.1-0.3-0.3-0.1-0.5c0.3-0.4,0.4-0.8,0.3-1.3c-0.1-0.7-0.7-1.1-1.4-0.8c-0.1,0.1-0.3,0.1-0.5,0.1
			c0-0.3,0-0.5,0-0.7c0-0.2,0.1-0.3,0.1-0.5c-0.1-0.5,0.1-0.9,0.7-1.1S47.9,22.7,48.3,23z"/>
		<path class="st11" d="M44.7,21.7c0.5,0.5,0.7,1.1,0.7,1.8c0,1.1-0.3,2.1-0.7,3.1c-0.1,0.2-0.2,0.4-0.4,0.5c-1,0.6-2.1,0.9-3.3,0.4
			c-0.4-0.2-0.5-0.3-0.2-0.6c0.3-0.4,0.4-0.9,0.3-1.4c-0.2-1-1.3-1.2-2-0.8c-0.6,0.3-1,0.8-1.2,1.5c-0.6,0-0.8-0.2-0.7-0.8
			c0.2-1.3,0.8-2.4,1.7-3.4c0.8-0.9,1.7-1.2,2.9-1.3C42.9,20.6,43.9,20.9,44.7,21.7z"/>
		<path class="st11" d="M40,34.6c0,0.6-0.1,0.7-0.6,0.5c-0.7-0.3-1.3-0.6-2-1c-0.4-0.2-0.4-0.4-0.1-0.7c0.4-0.5,0.9-0.8,1.6-0.9
			c0.5,0,0.9,0.3,1,0.8c0,0.2,0,0.4,0,0.7C40,34.2,40,34.4,40,34.6z"/>
		<path d="M31.4,40c0.6,0.6,0.8,1.3,0.7,2.1c-0.1,0.7-1,1.5-2,1.5c-0.1,0-0.3,0-0.4,0c0,0,0,0,0,0.1c-0.4-0.1-0.8-0.1-1.2-0.3
			c-0.8-0.4-1-1.1-0.8-2.1C28.2,39.4,30.5,39.1,31.4,40z M31.2,41.6c0-0.7-0.6-1.3-1.4-1.3c-0.5,0-0.8,0.4-0.8,0.9
			c0,0.8,0.6,1.3,1.4,1.3C30.8,42.6,31.2,42.2,31.2,41.6z"/>
		<path class="st12" d="M29.8,40.4c0.8,0,1.4,0.6,1.4,1.3c0,0.5-0.4,0.9-0.9,0.9c-0.8,0-1.4-0.6-1.4-1.3
			C28.9,40.8,29.3,40.4,29.8,40.4z"/>
		<path d="M27.8,46.9c0.8,0.6,1.4,1.9,0.8,2.9c-0.1,0.2-0.2,0.5-0.3,0.7c-0.3,1.5-3,2.5-4.2,1.7c-0.3-0.2-0.5-0.3-0.8-0.4
			c-0.7-0.3-0.9-0.8-1-1.5c-0.1-0.6-0.1-1.3,0.1-1.9c0.3-1.1,1.6-2.2,2.9-2.1C26.1,46.2,27,46.2,27.8,46.9z M25.6,51.5
			c1,0,2.1-1.1,2.1-2.1c0-1.2-1-2.2-2.1-2.2c-1.2,0-2.3,1.1-2.3,2.2C23.2,50.5,24.4,51.5,25.6,51.5z"/>
		<path class="st12" d="M27.6,49.5c0,1-1,2-2.1,2.1c-1.1,0-2.4-1.1-2.4-2c0-1.1,1.1-2.2,2.3-2.2C26.7,47.2,27.6,48.2,27.6,49.5z"/>
		<path class="st9" d="M27.9,23.5c-0.3,0.5-0.7,0.8-1.1,1.1c-1,0.6-2,1.2-3,1.9c-0.2,0.1-0.4,0.3-0.5,0.4c-0.3,0.4-0.6,0.4-1,0.2
			c-0.5-0.3-1.1-0.5-1.6-0.7c-0.3-0.1-0.4-0.3-0.2-0.5c0.5-0.5,1-1.1,1.6-1.3c1.6-0.7,3.4-1,5.2-1.1C27.5,23.4,27.6,23.5,27.9,23.5z
			"/>
		<path class="st12" d="M24.3,38.1c0,0.9-0.3,1.7-0.6,2.6c-0.3,0.9-0.9,1.6-1.8,1.9C21,43,18.8,43,18.1,42c-0.4-0.5-0.5-1-0.3-1.6
			c0.4-1,0.6-2,1-3c0.2-0.5,0.3-1,0.6-1.4c0.2-0.3,0.7-0.6,1.1-0.7c0.9-0.2,1.7-0.2,2.6,0.2c0.6,0.4,1,0.8,1.2,1.5
			C24.2,37.4,24.2,37.7,24.3,38.1z"/>
		<path class="st9" d="M21.6,28.8c0,0,0.1,0.1,0.1,0.1c-0.3,0.4-0.6,0.8-1,1.2c-0.8,0.9-1.4,2-1.9,3.1c-0.1,0.2-0.1,0.4-0.2,0.5
			c-0.1,0.1-0.3,0.2-0.4,0.2c-0.6,0-1.3-0.1-1.9-0.1c-0.6,0-0.8-0.3-0.5-0.9c0.7-1.3,1.6-2.3,3-2.9c0.7-0.3,1.4-0.7,2.2-1
			C21.1,28.9,21.3,28.8,21.6,28.8z"/>
		<path class="st9" d="M17.1,36.9c0,0.1-0.1,0.3-0.1,0.4c-0.4,1.2-0.7,2.3-1,3.5c-0.1,0.6-0.1,1.1-0.1,1.7c0,0.3-0.1,0.4-0.4,0.4
			c-0.6-0.1-1.1-0.1-1.7-0.1c-0.1,0-0.3,0-0.4,0c-1.1-0.2-1.2-0.2-0.8-1.4c0.1-0.3,0.3-0.6,0.5-0.9c1-1.3,2.1-2.4,3.5-3.4
			C16.6,37.1,16.8,37,17.1,36.9C17.1,36.9,17.1,36.9,17.1,36.9z"/>
		<path class="st9" d="M15.1,45.8c0,1.1,0.4,2,0,3c-0.1,0.4-0.3,0.4-0.6,0.3c-0.3-0.2-0.6-0.3-0.9-0.4c-0.5-0.3-0.6-0.6-0.3-1
			c0.4-0.5,0.8-1,1.3-1.5C14.7,46,14.8,45.9,15.1,45.8z"/>
		<path class="st9" d="M12.7,51.1c0.3,0.1,0.3,0.3,0,0.5c-0.5,0.3-1.1,0.5-1.8,0.5c-0.5,0-0.4-0.3-0.4-0.6c0-0.1,0-0.3,0-0.4
			c0.1-0.6,0.3-0.7,0.8-0.5C11.8,50.8,12.3,50.9,12.7,51.1z"/>
		<path class="st9" d="M6.5,50.1C6.8,50.2,7,50.7,7,51.2c-0.4-0.1-0.9-0.5-1-0.8c0-0.1,0-0.2,0.1-0.3C6.2,50,6.4,50,6.5,50.1z"/>
	</g>
</g>
</svg>
