<?xml version="1.0" encoding="utf-8"?>
<!-- Generator: Adobe Illustrator 19.1.0, SVG Export Plug-In . SVG Version: 6.00 Build 0)  -->
<svg version="1.1" id="Layer_1" xmlns="http://www.w3.org/2000/svg" xmlns:xlink="http://www.w3.org/1999/xlink" x="0px" y="0px"
	 viewBox="0 0 63.6 63.7" style="enable-background:new 0 0 63.6 63.7;" xml:space="preserve">
<style type="text/css">
	.st0{fill:#FFFFFF;stroke:#D54799;stroke-width:3;stroke-miterlimit:10;}
	.st1{fill:none;}
	.st2{fill:#F4E5BA;}
	.st3{fill:#FFC60B;}
	.st4{fill:#71BFD8;}
	.st5{fill:#D8D6EC;}
	.st6{fill:#AB4A9C;}
	.st7{fill:#F190AC;}
	.st8{fill:#FFFFFF;}
	.st9{fill:#0071B5;}
</style>
<g>
	<circle class="st0" cx="31.7" cy="32.5" r="29"/>
	<g id="XMLID_1_">
		<path class="st1" d="M63.6-1.2c0,20.6,0,41.2,0,61.9c-21.5,0-43.1,0-64.6,0c0-20.6,0-41.2,0-61.9C20.5-1.2,42.1-1.2,63.6-1.2z
			 M54.5,43.3c0-0.3,0.1-0.6,0-0.9c0-0.5-0.1-1-0.2-1.5c-0.1-0.4-0.3-0.8-0.4-1.2c-0.2-0.9-0.4-1.8-0.7-2.7
			c-0.4-1.4-0.8-2.7-1.2-4.1c-0.2-0.6-0.3-1.1,0.1-1.7c0.4-0.6,0.6-1.4,0.7-2.1c0.1-0.7,0-1.4-0.2-2.1c-0.2-0.5-0.3-0.9-0.5-1.4
			c-0.1-0.4-0.3-0.7-0.5-1c-0.6-0.7-1.1-1.5-1.8-2.1c-0.4-0.4-0.7-0.8-0.8-1.3c-0.6-1.8-1.3-3.5-1.9-5.2c-0.3-0.9-0.7-1.9-0.8-2.9
			c0-0.1-0.1-0.3,0-0.4c0.4-0.4,0.2-0.9,0.1-1.3c-0.3-1.3-0.6-2.7-1-4c-0.1-0.5-0.2-1.1-0.7-1.4c-0.1,0-0.1-0.2-0.2-0.3
			c-0.3-0.9-0.6-1.7-1-2.6c-0.2-0.4-0.4-0.8-0.7-1.1c-0.6-0.6-1.4-0.8-2.3-0.7c-0.6,0-1.1,0.2-1.7,0.4c-1.5,0.3-2.9,0.8-4.2,1.7
			c-1.2,0.9-1.7,2-1.5,3.4c0.1,0.6,0.3,1.3,0.4,1.9c0.1,0.3,0.1,0.6-0.2,0.9c-0.6,0.3-1.2,0.6-1.7,1c-0.4,0.3-0.8,0.8-1.1,1.2
			c-0.2,0.3-0.3,0.4-0.7,0.3c-1.2-0.3-2.4-0.6-3.7-0.1c-0.7,0.3-1.3,0.7-1.7,1.5c-0.1,0.2,0,0.3,0.2,0.4c0.2,0,0.4,0.1,0.6,0.1
			c0.5,0.1,0.9,0.3,1.3,0.6c0,0.1-0.1,0.1-0.1,0.1c0,0-0.1,0-0.1,0c-0.9,0-1.7,0.4-2.3,1.1c-0.1,0.1-0.3,0.2-0.5,0.2
			c-0.5,0.1-0.9,0.1-1.4,0.1c-0.3,0-0.4,0.2-0.2,0.4c0.5,0.6,1,1.2,1.8,1.5c0.3,0.1,0.5,0.2,0.8,0.4c-0.4,0.2-0.5,0.7-1,0.5
			c-1-0.4-2-0.3-3.1-0.2c-1.3,0.2-2.5,0.6-3.6,1.4c-0.4,0.3-0.7,0.6-1,1c-0.3,0.3-0.2,0.7,0.1,1c0.3,0.2,0.6,0.4,0.9,0.5
			c0.2,0.1,0.4,0.2,0.7,0.3C17.5,23,17.5,23,17.4,23c-1.1,0.6-2.3,1.1-3.4,1.7c-1.1,0.6-1.7,1.6-2.1,2.8c-0.1,0.2,0,0.4,0.2,0.6
			c0.3,0.3,0.7,0.3,1.1,0.4c0.5,0,1,0.1,1.5,0.2c0.1,0,0.1,0.1,0.2,0.2c-0.1,0.1-0.1,0.1-0.2,0.2c-0.4,0.2-0.8,0.4-1.1,0.6
			c-0.6,0.4-1.2,0.8-1.7,1.2c-0.3,0.2-0.6,0.4-0.8,0.7c-0.4,0.6-0.8,1.2-1.2,1.8c-0.3,0.4-0.4,0.9-0.5,1.4c-0.1,0.7,0.4,1,0.9,1.1
			c0.4,0.1,0.7,0.1,1.1,0.1c0.5,0,1,0,1.5,0.4c-0.3,0.1-0.5,0.2-0.7,0.3c-1,0.8-2,1.5-2.3,2.9c0,0.2,0,0.4,0.1,0.5
			c0.3,0.3,0.7,0.4,1.1,0.6c0.3,0.2,0.6,0.3,0.9,0.5c0.1,0,0,0.2,0,0.4c-0.1,0-0.3,0-0.4,0c-0.4-0.3-0.8-0.5-1.3-0.6
			c-0.2,0-0.4-0.1-0.6-0.2c-0.9-0.3-1.7,0.1-1.7,1.1c0,0.2,0,0.4,0,0.6c0,0.1-0.1,0.3-0.2,0.3c-0.4,0.1-0.9-0.2-1-0.6
			c-0.1-0.5-0.3-1-0.6-1.4c-0.4-0.5-0.7-0.7-1.3-0.5c-0.3,0.1-0.4,0-0.5-0.2c-0.1-0.1-0.1-0.2-0.2-0.3c-0.4-0.4-0.8-0.6-1.3-0.4
			c-0.5,0.1-0.7,0.5-1,0.9c-0.6,1-1,2.1-0.7,3.2c0.2,0.9,0.5,1.9,1.1,2.6c0.3,0.4,0.6,0.9,1,1.3c0.8,1,1.8,1.7,3,2.3
			c0.8,0.4,1.7,0.7,2.6,0.9c0.4,0.1,0.8,0.1,1.2,0.2c0.7,0,1.4,0,2.1,0c1.5,0,2.9-0.4,4.3-0.7c0.4-0.1,0.8-0.1,1.2-0.2
			c0.2,0,0.4,0.2,0.3,0.5c-0.2,0.6-0.4,1.2-0.6,1.8c-0.2,0.4-0.1,0.8,0.3,1.1c0.8,0.7,1.8,0.9,2.9,1.1c1.1,0.2,2.1,0.3,3.2,0.5
			c1.1,0.2,2.1,0.6,3.2,0.8c1.2,0.2,2.4,0.3,3.6,0.4c0.6,0,1.2,0,1.7-0.1c0.4-0.1,0.9-0.3,1.3-0.5c0.6-0.3,0.9-0.8,1.2-1.4
			c0.1-0.3,0.1-0.6-0.1-0.9c-0.1-0.1,0-0.3,0-0.3c0.3-0.3,0.6-0.6,1-0.6c1.6-0.1,3.1-0.1,4.7-0.2c1.2,0,2.3-0.4,3-1.4
			c0.6-0.8,0.5-1.9-0.3-2.6c-0.2-0.2-0.2-0.4-0.3-0.6c-0.3-0.6-0.6-1.2-1.3-1.5c-0.6-0.2-1.1-0.1-1.7,0.1c-0.7,0.2-1.4,0.4-2.2,0.2
			c-0.2-0.1-0.4-0.2-0.5-0.4c-0.1-0.2-0.1-0.5,0.2-0.7c0.8-0.6,1.3-1.3,1.8-2.1c0.3-0.6,0.7-1,1.3-1.2c0.7-0.2,1.4-0.7,2.2-0.2
			c0.5,0.3,1.1,0.6,1.2,1.3c0.1,0.6,0.2,1.2,0.3,1.7c0.1,0.4,0.2,0.8,0.3,1.3c0,0.5,0.3,0.9,0.6,1.2c0.4,0.4,0.8,0.8,1.1,1.2
			c0.3,0.3,0.6,0.7,0.9,0.9c0.7,0.5,1.4,1,2.1,1.6c0.6,0.5,1.2,1.1,1.8,1.6c0.5,0.4,0.9,0.9,1.5,1.1c1,0.3,1.6,0.2,1.8-0.9
			c0-0.2,0.1-0.4,0.1-0.5c0-0.7,0-1.4,0-2c0-0.5,0.1-1,0.1-1.4C54.4,46.8,54.4,45,54.5,43.3z"/>
		<path d="M54.5,42.4c0,0.3,0,0.6,0,0.9c0,1.8-0.1,3.5-0.1,5.3c0,0.5-0.1,1-0.1,1.4c0,0.7,0,1.4,0,2c0,0.2,0,0.4-0.1,0.5
			c-0.3,1.2-0.9,1.2-1.8,0.9c-0.6-0.2-1-0.7-1.5-1.1c-0.6-0.5-1.2-1.1-1.8-1.6c-0.7-0.5-1.4-1-2.1-1.6c-0.3-0.3-0.6-0.6-0.9-0.9
			c-0.4-0.4-0.7-0.9-1.1-1.2c-0.4-0.4-0.6-0.7-0.6-1.2c0-0.4-0.2-0.8-0.3-1.3c-0.1-0.6-0.2-1.2-0.3-1.7c-0.1-0.7-0.7-1-1.2-1.3
			c-0.8-0.5-1.5,0-2.2,0.2c-0.6,0.2-1,0.6-1.3,1.2c-0.5,0.8-1,1.5-1.8,2.1c-0.3,0.2-0.3,0.5-0.2,0.7c0.1,0.2,0.3,0.3,0.5,0.4
			c0.7,0.2,1.5,0.1,2.2-0.2c0.6-0.2,1.1-0.3,1.7-0.1c0.7,0.2,1,0.9,1.3,1.5c0.1,0.2,0.2,0.5,0.3,0.6c0.8,0.7,0.9,1.8,0.3,2.6
			c-0.7,1-1.8,1.4-3,1.4c-1.6,0-3.1,0.1-4.7,0.2c-0.5,0-0.8,0.3-1,0.6c-0.1,0.1-0.1,0.3,0,0.3c0.2,0.3,0.2,0.6,0.1,0.9
			c-0.2,0.6-0.6,1.1-1.2,1.4c-0.4,0.2-0.8,0.4-1.3,0.5C31.6,56,31,56.1,30.4,56c-1.2-0.1-2.4-0.2-3.6-0.4c-1.1-0.2-2.1-0.6-3.2-0.8
			c-1.1-0.2-2.1-0.4-3.2-0.5c-1-0.2-2-0.4-2.9-1.1c-0.4-0.3-0.4-0.7-0.3-1.1c0.2-0.6,0.4-1.2,0.6-1.8c0.1-0.3-0.1-0.5-0.3-0.5
			c-0.4,0-0.8,0.1-1.2,0.2c-1.4,0.3-2.8,0.7-4.3,0.7c-0.7,0-1.4,0-2.1,0c-0.4,0-0.8-0.1-1.2-0.2c-0.9-0.1-1.8-0.5-2.6-0.9
			c-1.1-0.6-2.1-1.3-3-2.3c-0.4-0.4-0.6-0.9-1-1.3c-0.6-0.8-0.9-1.7-1.1-2.6c-0.3-1.2,0-2.2,0.7-3.2c0.3-0.4,0.5-0.8,1-0.9
			c0.6-0.1,1,0,1.3,0.4c0.1,0.1,0.2,0.2,0.2,0.3c0.1,0.2,0.3,0.3,0.5,0.2c0.6-0.2,0.9-0.1,1.3,0.5c0.3,0.4,0.5,0.9,0.6,1.4
			c0.1,0.4,0.6,0.7,1,0.6c0.1,0,0.2-0.2,0.2-0.3c0-0.2,0-0.4,0-0.6c0.1-1,0.8-1.4,1.7-1.1c0.2,0.1,0.4,0.1,0.6,0.2
			c0.5,0.1,0.9,0.3,1.3,0.6c0.1,0.1,0.2,0,0.4,0c0-0.1,0-0.3,0-0.4c-0.3-0.2-0.6-0.3-0.9-0.5c-0.4-0.2-0.7-0.4-1.1-0.6
			c-0.1-0.1-0.1-0.4-0.1-0.5c0.3-1.3,1.3-2.1,2.3-2.9c0.2-0.1,0.4-0.2,0.7-0.3c-0.5-0.3-1-0.4-1.5-0.4c-0.4,0-0.8,0-1.1-0.1
			c-0.5-0.1-1-0.4-0.9-1.1c0.1-0.5,0.2-1,0.5-1.4c0.4-0.6,0.8-1.2,1.2-1.8c0.2-0.3,0.5-0.5,0.8-0.7c0.6-0.4,1.2-0.8,1.7-1.2
			c0.4-0.2,0.7-0.4,1.1-0.6c0.1,0,0.1-0.1,0.2-0.2c-0.1-0.1-0.1-0.2-0.2-0.2c-0.5-0.1-1-0.2-1.5-0.2c-0.4,0-0.7-0.1-1.1-0.4
			c-0.2-0.2-0.3-0.4-0.2-0.6c0.4-1.1,1-2.2,2.1-2.8c1.1-0.6,2.2-1.1,3.4-1.7c0,0,0.1,0,0.2-0.1c-0.3-0.1-0.5-0.2-0.7-0.3
			c-0.3-0.2-0.7-0.3-0.9-0.5c-0.3-0.3-0.4-0.6-0.1-1c0.3-0.4,0.6-0.7,1-1c1.1-0.7,2.3-1.2,3.6-1.4c1-0.1,2.1-0.2,3.1,0.2
			c0.5,0.2,0.6-0.2,1-0.5c-0.3-0.1-0.6-0.3-0.8-0.4c-0.8-0.3-1.3-0.9-1.8-1.5c-0.2-0.2-0.1-0.4,0.2-0.4c0.5-0.1,0.9-0.1,1.4-0.1
			c0.2,0,0.4-0.1,0.5-0.2c0.7-0.6,1.4-1,2.3-1.1c0,0,0.1,0,0.1,0c0,0,0,0,0.1-0.1c-0.3-0.4-0.8-0.5-1.3-0.6
			c-0.2-0.1-0.4-0.1-0.6-0.1c-0.2,0-0.3-0.2-0.2-0.4c0.3-0.8,0.9-1.2,1.7-1.5c1.2-0.5,2.5-0.3,3.7,0.1c0.4,0.1,0.5,0.1,0.7-0.3
			c0.3-0.4,0.6-0.9,1.1-1.2c0.5-0.4,1.1-0.7,1.7-1c0.4-0.2,0.3-0.5,0.2-0.9c-0.1-0.6-0.3-1.3-0.4-1.9c-0.2-1.4,0.3-2.5,1.5-3.4
			c1.3-0.9,2.7-1.4,4.2-1.7c0.6-0.1,1.1-0.3,1.7-0.4c0.8-0.1,1.7,0.1,2.3,0.7C43,2.2,43.2,2.6,43.4,3c0.3,0.8,0.6,1.7,1,2.6
			c0,0.1,0.1,0.2,0.2,0.3c0.6,0.3,0.6,0.9,0.7,1.4c0.4,1.3,0.7,2.7,1,4c0.1,0.4,0.3,0.9-0.1,1.3c-0.1,0.1,0,0.3,0,0.4
			c0.1,1,0.5,2,0.8,2.9c0.6,1.8,1.3,3.5,1.9,5.2c0.2,0.5,0.4,0.9,0.8,1.3c0.7,0.6,1.2,1.4,1.8,2.1c0.2,0.3,0.3,0.7,0.5,1
			c0.2,0.5,0.3,0.9,0.5,1.4c0.3,0.7,0.3,1.4,0.2,2.1c-0.1,0.7-0.2,1.5-0.7,2.1c-0.4,0.6-0.3,1.1-0.1,1.7c0.4,1.4,0.8,2.7,1.2,4.1
			c0.3,0.9,0.5,1.8,0.7,2.7c0.1,0.4,0.3,0.8,0.4,1.2C54.4,41.3,54.5,41.9,54.5,42.4z M53.7,43.3c0-0.2,0-0.5,0-0.7
			c0-0.1-0.1-0.2-0.1-0.3c-0.1,0-0.2,0-0.3,0.1c-0.1,0-0.1,0.1-0.1,0.2c-0.2,0.3-0.5,0.6-0.7,0.9c-0.5,0.5-1.2,0.4-1.9,0.4
			c-0.8,0-0.9,0-1.2,0.6c-0.1,0.1-0.1,0.2-0.2,0.4c-0.3,0.5-0.7,0.7-1.2,0.7c-0.4,0-0.9-0.1-1.3-0.1c-0.4,0-0.6,0.2-0.7,0.5
			c-0.1,0.3-0.1,0.6,0.2,0.8c0.7,0.6,1.3,1.2,2,1.8c0.5,0.5,0.9,1,1.4,1.4c0.2,0.2,0.4,0.3,0.6,0c0.8-0.9,1.7-1.6,3-1.6
			c0.4,0,0.6-0.2,0.6-0.6C53.6,46.3,53.6,44.8,53.7,43.3C53.7,43.3,53.7,43.3,53.7,43.3z M53.1,41.5c0.3-0.2,0.3-0.5,0.3-0.8
			c-0.2-1.4-0.5-2.7-0.9-4c-0.4-1.3-0.8-2.7-1.2-4c-0.1-0.5-0.3-0.9-0.8-1.1c-0.1,0-0.1-0.1-0.2-0.2c-0.4-0.6-0.5-1.3-0.6-2.1
			C49.5,29,49.4,28.9,49,29c-0.1,0-0.2,0.1-0.3,0.1c-0.2,0.1-0.4,0.2-0.3,0.5c0.2,0.7,0.3,1.3,0.5,2c0.2,0.7,0.5,1.4,0.7,2.1
			c0.5,1.6,1,3.3,1.5,4.9c0.2,0.6,0.3,1.3,0.5,1.9c0.2,0.6,0.3,1.3,0.5,2C52.5,42.1,52.8,41.8,53.1,41.5z M52.1,29.1
			c0.1-0.6,0-1.3-0.4-1.9c-0.3-0.3-0.4-0.7-0.4-1.1c-0.1-1-0.7-1.6-1.5-2c-0.1-0.1-0.3-0.2-0.3-0.3c0-0.5-0.2-0.7-0.5-0.9
			c-0.4-0.4-1-0.3-1.5-0.3c-0.1,0-0.2,0-0.3,0c-0.2,0-0.5,0.1-0.6,0.2c-0.1,0.2,0,0.5,0.1,0.7c0,0.1,0.1,0.1,0.1,0.1
			c0.4,0.6,0.8,1.1,1.5,1.4c0.4,0.2,0.4,0.5,0.2,0.8c-0.2,0.3-0.5,0.6-0.7,0.9c-0.2,0.4-0.5,0.7-0.6,1.1c-0.2,0.5,0.1,0.8,0.6,0.8
			c0.7,0,1.2-0.3,1.7-0.7c0.2-0.1,0.4-0.2,0.6-0.2c0.3,0,0.3,0.3,0.4,0.5c0.2,0.9,0.4,1.7,0.6,2.6c0,0.1,0.2,0.3,0.2,0.3
			c0.1,0,0.3-0.1,0.3-0.2C51.7,30.3,52,29.7,52.1,29.1z M51.6,42.9c0.1,0,0.1-0.2,0.1-0.3c-0.2-1.1-0.5-2.2-0.7-3.3
			c-0.1-0.3-0.2-0.6-0.3-1c-0.5-1.6-0.9-3.1-1.4-4.7c-0.4-1.4-0.9-2.7-1.3-4.1c-0.1-0.2-0.1-0.2-0.3-0.2c-0.3,0-0.6,0-0.9,0
			c-0.3,0-0.7-0.4-0.6-0.7c0-0.6,0.1-1.2,0.2-1.8c0.1-0.5,0.4-0.9,0.7-1.4c0,0-0.1,0-0.1-0.1c-0.6-0.6-1.3-1.2-1.5-2.1
			c-0.1-0.4-0.3-0.9,0-1.2c0.2-0.3,0.2-0.5,0.1-0.7c-0.1-0.1-0.1-0.3-0.2-0.4c-0.3-1-0.6-1.9-1-2.9c-0.2-0.4-0.4-0.8-0.6-1.3
			c-0.4,0.4-0.7,0.7-1,1c0.3,0.2,0.5,0.3,0.8,0.5c0.8,0.7,1,1.6,1.4,2.5c0.1,0.3,0,0.4-0.3,0.4c-0.3,0-0.6,0-0.8-0.1
			c-0.4,0-0.8-0.2-1.2-0.2c-0.5,0-0.6,0.1-0.5,0.6c0,0.1,0,0.3,0.1,0.4c0.2,0.5,0.3,1.1,0.5,1.6c0.5,2.2,1.1,4.3,1.6,6.5
			c0.1,0.4,0.3,0.6,0.7,0.7c0.7,0.1,1.1,0.5,1.1,1.2c0,0.6,0,1.2-0.1,1.8c-0.1,0.6,0.1,0.8,0.7,0.9c0.8,0.2,1.5,0.4,1.7,1.3
			c0.2,0.6,0,1.3-0.5,1.7c-0.3,0.2-0.6,0.4-0.9,0.6c-0.1,0.1-0.3,0.3-0.3,0.4c0,0.4,0.1,0.8,0.3,1.1c0.2,0.6,0.4,1.2-0.1,1.8
			C47,42,47,42.2,47,42.4c0.2,0.8,0.3,1.7,0.5,2.6c0.3-0.2,0.5-0.2,0.6-0.3c0.3-0.3,0.5-0.6,0.7-0.9c0.7-0.8,0.8-1,1.8-0.7
			C50.9,43.1,51.3,43,51.6,42.9z M47.3,37.5c0.3-0.2,0.6-0.4,0.6-0.8c0-0.4-0.3-0.7-0.7-0.8c-0.1-0.1-0.3-0.1-0.5-0.1
			c-0.6,0-1.2,0.1-1.7,0.2c-0.1,0-0.2,0-0.2,0c-0.5-0.2-0.5-0.5-0.3-0.9c0.3-0.5,0.6-1,0.8-1.5c0.1-0.4,0.1-0.8,0.1-1.2
			c0-0.4-0.2-0.5-0.6-0.4c-0.4,0.1-0.8,0.3-1.1,0.5c-1,0.5-1.7,1.3-2.4,2.1c-0.2,0.2-0.4,0.3-0.6,0.4c-0.4,0.2-0.8,0.3-1.2,0.4
			c-1,0.3-2.1,0.5-3.1,0.7c-0.4,0.1-0.8,0-1.1,0.1c-0.4,0.1-0.7-0.2-0.9-0.4c0,0,0-0.3,0.1-0.3c0.3-0.1,0.6-0.1,0.8-0.1
			c0.3,0,0.6,0,0.9,0c1-0.2,2-0.4,2.9-0.6c0.6-0.2,1.3-0.4,1.8-0.9c0.5-0.6,1-1.1,1.5-1.7c0.1-0.1,0.1-0.3,0.2-0.4
			c0.1-0.4,0.2-0.9,0.2-1.3c0.1-0.8,0.1-1.5-0.6-2c-0.2-0.1-0.4-0.4-0.7-0.2c-0.1,0.1-0.1,0.4-0.1,0.6c0.1,0.7,0.1,0.7-0.6,0.9
			c-0.1,0-0.2,0.1-0.2,0.1c-0.7,0.2-1.5,0.5-2.2,0.6c-1.1,0.1-2.3,0.1-3.5,0.1c-0.8,0-1.7-0.2-2.5-0.4c-0.8-0.2-1.5-0.6-2.2-1
			c-1.1-0.6-2.2-1.3-3.1-2.2c-0.1-0.1-0.2-0.1-0.3-0.1c-0.6-0.2-1.3-0.3-1.9-0.5c-0.3-0.1-0.6-0.3-0.9-0.4c-0.1,0-0.1-0.2-0.1-0.2
			c0,0,0.1-0.1,0.2-0.1c0.3,0,0.5,0.1,0.8,0.1c1,0.1,2-0.1,2.8-0.8c0.1-0.1,0.3-0.2,0.4-0.2c0.1,0,0.2,0.3,0.2,0.4
			c0,0.1-0.1,0.3-0.2,0.4c-0.4,0.5-0.4,1,0,1.5c0.3,0.3,0.6,0.5,0.9,0.7c0.2,0.2,0.4,0.2,0.6,0c0.5-0.5,1-0.9,1.7-1.2
			c1-0.4,1.9,0.2,2,1.2c0,0.5,0,1,0,1.4c0,0.3,0,0.4,0.4,0.4c0.5,0,1,0.1,1.4,0.1c1.6,0.2,3.2-0.1,4.8-0.6c0.2-0.1,0.4-0.2,0.4-0.5
			c0-1.6-0.2-3.1-1-4.5c-0.6-1.1-1.3-1.1-2.5-0.9c-0.5,0.1-1,0.3-1.5,0.4c-0.5,0.1-1.1,0.2-1.6,0c-0.5-0.2-0.9-0.3-1.4-0.5
			c-0.8-0.3-1.7-0.6-2.5-0.9c-0.5-0.1-1.1-0.2-1.6-0.2c-0.1,0-0.3-0.1-0.4-0.1c0-0.1,0-0.3,0.1-0.4c0.3-0.4,0.8-0.4,1.2-0.3
			c0.3,0.1,0.4,0,0.5-0.3c0.1-0.5,0.3-1,0.5-1.5c0.2-0.5,0.1-0.7-0.5-0.8c-0.1,0-0.2,0-0.2,0c-1.2-0.1-2.3,0.2-3.4,0.5
			c-0.9,0.3-1.7,0.8-2.3,1.6c-0.2,0.3-0.6,0.5-0.9,0.7c-0.7,0.4-1.5,0.7-2.1,1.3c-1.5,1.4-2.9,2.9-3.7,4.9c-0.1,0.2-0.2,0.3-0.2,0.5
			c0,0,0,0,0.1,0.1c0.3-0.1,0.6-0.1,0.8-0.2c0.6-0.3,1.2-0.2,1.6,0.3c0.5,0.5,0.9,1.1,1.4,1.6c0.4,0.5,0.6,1.2,0.5,1.8
			c-0.1,1.5-0.6,2.8-1.7,3.7c-0.8,0.7-1.7,1.2-2.9,1c-0.7-0.2-1.5-0.4-2.2-0.6c-0.2-0.1-0.3,0-0.4,0.2c0,0.1,0,0.2,0,0.3
			c-0.2,1.3-0.3,2.5-0.5,3.8c0,0.4,0,0.8,0,1.1c0,0.2,0.1,0.5-0.1,0.6c-0.3,0.4-0.6,0.8-1,1.1c-0.8,0.6-1.6,1.1-2.6,1.3
			c-1,0.3-2,0.2-3-0.2c-0.8-0.3-1.4-0.8-2-1.4c-0.3-0.3-0.6-0.7-0.8-1C4,41.1,4,40.9,3.9,40.7c-0.1-0.3-0.3-0.6-0.6-0.5
			c-0.4,0-0.7,0.2-0.9,0.6c-0.4,0.8-0.3,1.6-0.2,2.4c0.2,1.7,1,3,2,4.2c0.7,0.8,1.5,1.4,2.5,1.8c1,0.4,2.1,0.8,3.2,0.8
			c1,0,2,0,2.9-0.1c1.6-0.1,3-0.7,4.5-1.4c0.3-0.1,0.3-0.3,0.3-0.5c-0.1-0.2-0.1-0.4-0.1-0.6c0-0.2,0-0.5,0.3-0.5
			c0.3-0.1,0.4,0.1,0.5,0.4c0,0.1,0.1,0.2,0.1,0.4c0.2,0.5,0.4,0.9,0.7,1.3c0.4,0.7,0.2,1.4-0.2,2c-0.2,0.3-0.4,0.6-0.6,0.9
			c-0.3,0.5-0.2,0.7,0.3,1c1,0.5,2.1,0.8,3.2,0.7C23,53.4,24,53.8,25,54c0.9,0.2,1.7,0.6,2.6,0.8c1.1,0.3,2.2,0.4,3.3,0.3
			c0.6-0.1,1.3-0.2,1.9-0.4c0.2,0,0.4-0.1,0.5-0.2c0.5-0.3,0.7-0.9-0.2-1.2c-0.8-0.2-1.6-0.4-2.4-0.6c-0.2-0.1-0.4-0.2-0.4-0.4
			c0-0.3,0.3-0.3,0.5-0.3c0.1,0,0.2,0,0.2,0c0.4,0.1,0.7,0.2,1.1,0.2c0.5,0,1-0.1,1.5-0.2c0.1,0,0.3-0.2,0.3-0.4
			c0-0.1-0.1-0.3-0.3-0.3c-0.1-0.1-0.3-0.1-0.5-0.2c-0.6-0.2-1.1-0.2-1.7-0.1c-0.3,0-0.5,0-0.6-0.3c0-0.2,0.2-0.4,0.5-0.4
			c0.5,0,1,0.1,1.5,0.1c0.1,0,0.2,0,0.4,0c0-0.1,0-0.3-0.1-0.4c-0.1-0.1-0.3-0.2-0.4-0.2c-0.5,0-1,0-1.5,0c-0.4,0-0.8,0.1-1,0.5
			c0,0.1-0.2,0.2-0.3,0.2c-0.2,0.1-0.4,0.1-0.6,0c-0.2-0.1-0.3-0.3-0.2-0.5c0-0.1,0.1-0.2,0.1-0.3c0.5-1.3,0.5-2.6-0.6-3.6
			c-0.2-0.2-0.5-0.5-0.6-0.8c-0.2-0.3,0-0.6,0.2-0.6c0.3,0.1,0.6,0.2,0.8,0.4c0.6,0.6,1.2,1.2,1.4,2.1c0.1,0.2,0.2,0.3,0.4,0.2
			c1.2-0.5,2.4-1,3.5-1.5c0.6-0.3,1.2-0.8,1.7-1.2c0.4-0.4,0.7-0.8,1-1.2c0.1-0.2,0.1-0.3-0.2-0.3c-0.2,0-0.5,0-0.7,0.1
			c-0.6,0.1-1.2-0.1-1.8-0.3c-0.1,0-0.1-0.1-0.1-0.2c0-0.1,0.1-0.2,0.2-0.2c0.2-0.1,0.4-0.1,0.7-0.2c1,0,2-0.2,3-0.5
			c1.1-0.4,2.2-0.8,3.3-1.3c0.7-0.3,0.6-0.3,1.1,0.3c0.8,1,1.8,1.4,3,1.2c0.1,0,0.3-0.2,0.3-0.3c0.1-0.8-0.1-1.6-0.5-2.2
			c-0.3-0.4-0.1-0.9,0.3-1.1C46.4,37.9,46.8,37.7,47.3,37.5z M47.3,21.4c0.7,0.1,0.7,0.1,0.5-0.6c-0.3-0.9-0.6-1.9-0.9-2.8
			c-0.4-1.1-0.8-2.2-1.2-3.3c-0.2-0.5-0.4-1-0.6-1.5c-0.1-0.3-0.2-0.3-0.5-0.3c-0.3,0-0.6,0.1-0.9,0.1c-0.3,0-0.4,0.2-0.3,0.5
			c0.1,0.4,0.2,0.8,0.3,1.2c0.4,1.2,0.8,2.4,1.2,3.6c0.3,1,0.7,1.9,1,2.9c0.1,0.3,0.3,0.4,0.6,0.3C46.7,21.5,47,21.5,47.3,21.4z
			 M47.2,44.9c-0.2-0.9-0.3-1.6-0.5-2.3c0,0-0.2-0.1-0.3-0.1c-0.5,0.3-0.9,0.3-1.5,0.3c-0.3,0-0.3,0.1-0.3,0.3
			c0.1,0.5,0.2,1.1,0.3,1.6c0,0.2,0.1,0.3,0.2,0.6C45.8,44.7,46.4,44.4,47.2,44.9z M45.2,12c0.2,0,0.4,0,0.3-0.3
			c-0.1-0.5-0.1-0.9-0.2-1.4c-0.1-0.3-0.1-0.7-0.2-1c-0.1-0.6-0.3-1.1-0.5-1.6c-0.1-0.2-0.1-0.4-0.2-0.7c-0.1-0.3-0.3-0.6-0.6-0.6
			c-0.7-0.1-1.3-0.2-2-0.1c-0.9,0.1-1.7,0.4-2.6,0.6c-1.6,0.3-3,1-4.4,1.8c-0.2,0.1-0.6,0.1-0.5,0.4c0.1,0.3,0.4,0.1,0.6,0.1
			c0.2,0,0.5,0.1,0.6,0.2c0.1,0.1,0.1,0.4,0.1,0.7c0.2-0.1,0.4-0.2,0.7-0.3c1-0.4,1.9-0.7,2.9-1c1.6-0.6,3.2-0.9,4.9-1.1
			c0.1,0,0.2,0.1,0.4,0.1c-0.1,0.1-0.2,0.1-0.3,0.2c-0.8,0.2-1.5,0.3-2.3,0.5c-0.9,0.2-1.8,0.5-2.6,0.8c-1,0.4-2,0.8-3,1.2
			c-0.3,0.1-0.7,0.3-0.8,0.6c-0.2,0.5-0.2,1.1-0.3,1.7c0,0.1,0.1,0.2,0.2,0.2c0.4,0,0.8-0.1,1.2-0.2c1.1-0.4,2.2-0.8,3.3-1.2
			c1.6-0.6,3.2-0.9,4.9-1.1c0.1,0,0.2,0,0.3,0c0.1,0,0.1,0.1,0.1,0.1c0,0,0,0,0,0c0,0-0.1,0.1-0.1,0.1c-0.1,0-0.2,0-0.3,0
			c-1.1,0.2-2.3,0.4-3.4,0.7c-1.3,0.4-2.6,0.9-4,1.4c0.8,0.2,1.4,0.1,1.9-0.4c0.6,0.2,0.4,0.7,0.4,1.1c0.1,0,0.1,0,0.1,0
			c0.2-0.1,0.5-0.2,0.7-0.3C42.1,12.6,43.7,12.1,45.2,12z M44.2,31c0.1,0,0.1-0.2,0.1-0.2c0-0.2-0.1-0.4-0.2-0.6
			c-0.3-1.2-0.7-2.4-0.9-3.5c-0.3-1.6-0.7-3.2-1.3-4.7c0-0.1-0.1-0.2-0.2-0.3c-0.1,0.1-0.2,0.1-0.3,0.2c-0.2,0.5-0.5,1-0.6,1.5
			c-0.2,0.5-0.3,1.1-0.1,1.6c0.2,0.4,0.2,0.9,0.3,1.3c0,0.1,0.1,0.2,0.1,0.3c0.5,0.3,0.9,0.6,1.4,1c0.1,0.1,0.2,0.2,0.3,0.3
			c0.5,0.6,0.7,1.3,0.7,2.1c0,0.5,0,0.9-0.1,1.4C43.8,31.1,44,31.1,44.2,31z M44.1,20.4c-0.1-0.3-0.2-0.6-0.3-0.8
			c-0.4-0.8-1-1.2-1.9-1.1c-0.3,0-0.4-0.2-0.5-0.4c0-0.1,0.1-0.4,0.2-0.5c0.3-0.3,0.6-0.5,0.9-0.8c0.1-0.1,0.2-0.4,0.3-0.6
			c-0.2-0.1-0.4-0.2-0.6-0.2c-0.7,0-1.3-0.2-1.9-0.6c-0.5-0.3-1-0.3-1.5,0c-0.1,0.1-0.2,0.1-0.3,0.1c-0.1,0-0.2,0-0.3,0
			c0-0.1,0-0.2,0-0.3c0.1-0.3,0.3-0.5,0.4-0.8c0.1-0.4,0.1-0.7,0.2-1.1c-0.2,0-0.3,0.1-0.4,0.1c-0.7,0.1-1.3,0.1-2,0.1
			c-0.6,0-1.1,0.1-1.5,0.7c-0.1,0.1-0.2,0.2-0.3,0.3c-0.1-0.2-0.2-0.4-0.2-0.6c-0.1-1-0.1-2.1,0.2-3.1c0.1-0.5,0.1-0.6-0.4-0.4
			c-1.5,0.4-2.7,1.1-3.2,2.7c-0.1,0.3-0.3,0.4-0.6,0.2c-0.6-0.2-1.1-0.5-1.7-0.7c-0.8-0.2-1.7-0.2-2.5,0.1c-0.1,0.1-0.2,0.2-0.4,0.3
			c0.1,0.1,0.2,0.2,0.3,0.3c0.5,0.3,1,0.7,1.4,1c0.1,0.1,0.2,0.2,0.2,0.3c0.2,0.4,0,0.7-0.4,0.7c-0.4,0-0.8,0-1.2,0
			c-0.3,0.1-0.7,0.2-1,0.4c-0.3,0.1-0.5,0.4-0.8,0.5c-0.3,0.2-0.6,0.4-0.9,0.6c0,0,0,0.1,0,0.1c0.5,0.4,1.1,0.7,1.8,0.8
			c0.1,0,0.2,0,0.3,0c1-0.3,2.1-0.5,3.2-0.4c1.1,0,2.1-0.1,3-0.7c0.3-0.2,0.6-0.3,0.8-0.5c0.5-0.3,1.2-0.4,1.7-0.2
			c1,0.3,2,0.7,2.8,1.4c0.4,0.3,0.7,0.4,1.2,0.4c0.9-0.1,1.6,0.3,2.1,1c0.3,0.4,0.5,0.9,0.5,1.4c0,0.2,0,0.4,0.4,0.3
			c0.5-0.1,1-0.1,1.5-0.2C43.4,20.4,43.7,20.4,44.1,20.4z M43.2,15.5c0.2,0,0.3-0.1,0.2-0.3c-0.2-0.6-0.3-1.2-0.5-1.7
			c0-0.1-0.2-0.2-0.3-0.2c-1,0.1-1.9,0.5-2.8,1.2c0.5,0.2,0.9,0.3,1.2,0.6C41.7,15.6,42.4,15.4,43.2,15.5z M42.5,50.5
			c0.4-0.2,0.5-0.6,0.4-1.1c-0.1-0.4-0.4-0.5-0.9-0.4c-0.2,0-0.5,0.1-0.7,0.2c-0.3,0.1-0.5,0-0.6-0.2c0,0,0.1-0.4,0.2-0.5
			c0.2-0.1,0.4-0.2,0.6-0.3c0.4-0.2,0.4-0.5,0-0.8c-0.1-0.1-0.3-0.1-0.5-0.1c-0.2,0-0.4,0.2-0.6,0.2c-0.1,0-0.3,0-0.3,0
			c0-0.1,0-0.3,0-0.4c0.2-0.2,0.4-0.2,0.6-0.3c0.2-0.1,0.3-0.1,0.5-0.2c0,0,0-0.1,0-0.1c-0.2,0-0.3-0.1-0.5-0.1
			c-1,0-1.9,0.3-2.8,0.7c-0.4,0.1-0.8,0.3-1.2,0.3c-0.3,0.1-0.5-0.2-0.4-0.5c0.1-0.3,0.1-0.4-0.1-0.6c-0.2-0.2-0.4-0.2-0.6,0
			c-0.1,0.1-0.2,0.1-0.3,0.1c-1,0.5-2,0.9-3,1.4c-0.2,0.1-0.3,0.2-0.5,0.4c0.4,0.1,0.8,0.2,1.1,0.3c0.3,0.1,0.6,0.3,0.9,0.5
			c0.2,0.2,0.5,0.5,0.6,0.8c0.3,0.7,0.6,1,1.3,1c0.3,0,0.6,0,0.9,0c0.8,0,1.5,0.1,2.3,0.1c1,0,2-0.2,3-0.3
			C41.9,50.8,42.2,50.6,42.5,50.5z M42.5,5.5c0.4,0,0.4,0,0.3-0.4c-0.1-0.6-0.3-1.2-0.4-1.9c-0.1-0.3-0.2-0.5-0.5-0.5
			c-0.6-0.1-1.1-0.3-1.7-0.3c-2.1,0-3.9,0.8-5.5,2.2c-0.1,0.1-0.1,0.3-0.2,0.5c0,0.3,0,0.7,0,1c-0.1,0.6,0,1.1,0.1,1.7
			c0.1-0.1,0.2-0.1,0.2-0.1c0.8-0.7,1.8-1,2.8-1.5c0.2-0.1,0.5-0.2,0.7-0.3C39.7,5.6,41.1,5.3,42.5,5.5z M40.5,21.6
			c0.1-1-0.2-1.9-1.1-2.5c-0.3-0.2-0.7-0.4-1.1-0.3c-0.4,0.2-0.6,0.5-0.5,0.9c0,0.1-0.1,0.3-0.1,0.4c0,0.2,0,0.3,0,0.6
			c0.2,0,0.3-0.1,0.4-0.1c0.6-0.2,1.1,0.1,1.2,0.7c0.1,0.4,0,0.7-0.2,1.1c-0.1,0.2-0.1,0.3,0.1,0.4c0.1,0.1,0.2,0.1,0.4,0.2
			c0.2,0.2,0.5,0.1,0.6-0.1C40.2,22.4,40.4,22,40.5,21.6z M37.1,19.4c0-0.6-0.2-1-0.6-1.4c-0.7-0.6-1.5-0.9-2.4-0.9
			c-0.9,0-1.7,0.3-2.3,1c-0.7,0.8-1.3,1.7-1.4,2.8c-0.1,0.5,0.1,0.7,0.6,0.7c0.1-0.6,0.4-1,0.9-1.2c0.6-0.3,1.5-0.2,1.7,0.7
			c0.1,0.4,0.1,0.8-0.2,1.1c-0.2,0.3-0.2,0.4,0.2,0.5c0.9,0.4,1.8,0.2,2.6-0.4c0.2-0.1,0.3-0.3,0.4-0.4
			C36.8,21.1,37.1,20.2,37.1,19.4z M32.2,28.8c0.4,0.2,0.5,0.1,0.5-0.4c0-0.2,0-0.3-0.1-0.5c0-0.2,0-0.4,0-0.5
			c0-0.4-0.4-0.7-0.8-0.6c-0.5,0-0.9,0.3-1.3,0.7c-0.2,0.3-0.3,0.4,0.1,0.6C31.1,28.3,31.6,28.6,32.2,28.8z M21.9,20.3
			c0.3-0.2,0.7-0.5,0.9-0.9c-0.2,0-0.3,0-0.5,0c-1.4,0.1-2.9,0.3-4.2,0.9c-0.5,0.2-0.9,0.7-1.3,1.1c-0.2,0.2-0.1,0.3,0.1,0.4
			c0.4,0.2,0.9,0.3,1.3,0.5c0.3,0.2,0.6,0.2,0.8-0.2c0.1-0.1,0.2-0.3,0.4-0.4C20.3,21.3,21.1,20.8,21.9,20.3z M19.4,33.4
			c0.2-0.7,0.5-1.4,0.5-2.1c0-0.3-0.1-0.5-0.1-0.8c-0.1-0.6-0.4-0.9-0.9-1.2c-0.7-0.4-1.4-0.3-2.1-0.2c-0.3,0.1-0.7,0.3-0.9,0.5
			c-0.2,0.3-0.3,0.8-0.5,1.2c-0.3,0.8-0.5,1.6-0.8,2.4c-0.2,0.5,0,0.9,0.2,1.3c0.6,0.8,2.3,0.8,3.1,0.4
			C18.7,34.6,19.2,34.1,19.4,33.4z M17.8,23.8C17.7,23.8,17.7,23.8,17.8,23.8c-0.2,0-0.4,0-0.6,0.1c-0.6,0.3-1.2,0.6-1.8,0.8
			C14.3,25.2,13.5,26,13,27c-0.2,0.5-0.1,0.7,0.4,0.7c0.5,0,1,0.1,1.5,0.1c0.1,0,0.3-0.1,0.3-0.2c0.1-0.1,0.1-0.3,0.2-0.4
			c0.4-0.9,0.9-1.8,1.5-2.5C17.2,24.5,17.5,24.1,17.8,23.8z M14,30.7c0-0.1,0.1-0.2,0.1-0.4c0,0-0.1,0-0.1-0.1
			c-0.2,0.1-0.3,0.2-0.5,0.3c-1.1,0.8-2,1.7-2.8,2.7c-0.2,0.2-0.4,0.4-0.4,0.7c-0.3,1-0.2,1,0.7,1.1c0.1,0,0.2,0,0.4,0
			c0.5,0,0.9,0,1.4,0.1c0.3,0,0.3,0,0.4-0.3c0-0.5,0-0.9,0.1-1.4C13.4,32.6,13.7,31.6,14,30.7z M12.4,40c0.3-0.8,0-1.6,0-2.5
			c-0.2,0.1-0.3,0.2-0.4,0.3c-0.4,0.4-0.7,0.8-1,1.2c-0.3,0.3-0.2,0.6,0.2,0.8c0.2,0.1,0.5,0.2,0.7,0.4C12.2,40.3,12.3,40.3,12.4,40
			z M10.5,42.3c0.2-0.1,0.2-0.3,0-0.4c-0.3-0.1-0.7-0.3-1-0.4c-0.4-0.1-0.6,0-0.7,0.4c0,0.1,0,0.2,0,0.3c0,0.2-0.1,0.5,0.3,0.5
			C9.6,42.7,10.1,42.5,10.5,42.3z M5.9,41.9c0-0.4-0.2-0.8-0.4-0.9c-0.1,0-0.2,0-0.3,0c0,0-0.1,0.1-0.1,0.2
			C5.1,41.5,5.5,41.8,5.9,41.9z"/>
		<path class="st2" d="M53.7,42.6c0,0.2,0,0.5,0,0.7c0,0,0,0,0,0c-0.1,1.5-0.1,3-0.2,4.6c0,0.4-0.2,0.6-0.6,0.6
			c-1.3,0-2.2,0.6-3,1.6c-0.2,0.3-0.4,0.2-0.6,0c-0.5-0.5-0.9-1-1.4-1.4c-0.6-0.6-1.3-1.2-2-1.8c-0.3-0.3-0.3-0.5-0.2-0.8
			c0.1-0.3,0.4-0.5,0.7-0.5c0.4,0,0.9,0.1,1.3,0.1c0.5,0,0.9-0.3,1.2-0.7c0.1-0.1,0.2-0.2,0.2-0.4c0.4-0.6,0.5-0.7,1.2-0.6
			c0.6,0,1.3,0.1,1.9-0.4c0.3-0.3,0.5-0.6,0.7-0.9c0-0.1,0.1-0.1,0.1-0.2c0.1,0,0.2-0.1,0.3-0.1C53.6,42.3,53.7,42.5,53.7,42.6z"/>
		<path class="st3" d="M53.4,40.7c0,0.3,0,0.6-0.3,0.8c-0.3,0.3-0.6,0.6-1,0.9c-0.2-0.7-0.4-1.4-0.5-2c-0.2-0.6-0.3-1.3-0.5-1.9
			c-0.5-1.6-1-3.3-1.5-4.9c-0.2-0.7-0.5-1.4-0.7-2.1c-0.2-0.6-0.3-1.3-0.5-2c-0.1-0.3,0.1-0.4,0.3-0.5c0.1,0,0.2-0.1,0.3-0.1
			c0.3-0.1,0.5,0,0.6,0.4c0.1,0.7,0.2,1.4,0.6,2.1c0.1,0.1,0.1,0.2,0.2,0.2c0.5,0.2,0.7,0.7,0.8,1.1c0.4,1.3,0.8,2.7,1.2,4
			C52.8,38.1,53.2,39.4,53.4,40.7z"/>
		<path class="st4" d="M51.7,27.2c0.4,0.6,0.5,1.3,0.4,1.9c-0.1,0.6-0.4,1.2-0.6,1.8c0,0.1-0.2,0.2-0.3,0.2c-0.1,0-0.2-0.2-0.2-0.3
			c-0.2-0.9-0.4-1.7-0.6-2.6c0-0.3-0.1-0.5-0.4-0.5c-0.2,0-0.4,0.1-0.6,0.2c-0.5,0.4-1,0.8-1.7,0.7c-0.5,0-0.8-0.3-0.6-0.8
			c0.1-0.4,0.4-0.8,0.6-1.1c0.2-0.3,0.4-0.6,0.7-0.9c0.3-0.4,0.2-0.7-0.2-0.8c-0.7-0.3-1.1-0.9-1.5-1.4c0,0-0.1-0.1-0.1-0.1
			c0-0.2-0.1-0.5-0.1-0.7c0-0.1,0.4-0.1,0.6-0.2c0.1,0,0.2,0,0.3,0c0.5,0,1,0,1.5,0.3c0.3,0.2,0.6,0.5,0.5,0.9
			c0,0.1,0.2,0.3,0.3,0.3c0.9,0.4,1.5,1.1,1.5,2C51.4,26.5,51.5,26.8,51.7,27.2z"/>
		<path class="st3" d="M51.7,42.6c0,0.1-0.1,0.3-0.1,0.3c-0.3,0.1-0.7,0.2-0.9,0.1c-1-0.3-1.1,0-1.8,0.7c-0.3,0.3-0.5,0.6-0.7,0.9
			c-0.1,0.1-0.3,0.2-0.6,0.3c-0.2-0.9-0.4-1.8-0.5-2.6c0-0.2,0-0.4,0.1-0.5c0.5-0.6,0.3-1.2,0.1-1.8c-0.1-0.4-0.2-0.8-0.3-1.1
			c0-0.1,0.1-0.3,0.3-0.4c0.3-0.2,0.6-0.4,0.9-0.6c0.4-0.3,0.6-1.1,0.5-1.7c-0.3-0.9-1-1.1-1.7-1.3c-0.5-0.1-0.7-0.3-0.7-0.9
			c0.1-0.6,0.1-1.2,0.1-1.8c0-0.7-0.4-1.1-1.1-1.2c-0.4-0.1-0.6-0.3-0.7-0.7c-0.5-2.2-1.1-4.3-1.6-6.5c-0.1-0.5-0.3-1.1-0.5-1.6
			c0-0.1-0.1-0.3-0.1-0.4c0-0.5,0-0.6,0.5-0.6c0.4,0,0.8,0.1,1.2,0.2c0.3,0,0.6,0.1,0.8,0.1c0.3,0,0.4-0.2,0.3-0.4
			c-0.4-0.9-0.6-1.9-1.4-2.5c-0.2-0.2-0.5-0.3-0.8-0.5c0.3-0.3,0.6-0.7,1-1c0.2,0.4,0.4,0.9,0.6,1.3c0.3,0.9,0.6,1.9,1,2.9
			c0,0.1,0.1,0.3,0.2,0.4c0.1,0.3,0.2,0.5-0.1,0.7c-0.3,0.4-0.1,0.8,0,1.2c0.2,0.9,0.9,1.4,1.5,2.1c0,0,0.1,0.1,0.1,0.1
			c-0.2,0.5-0.6,0.9-0.7,1.4c-0.2,0.6-0.2,1.2-0.2,1.8c0,0.3,0.3,0.7,0.6,0.7c0.3,0,0.6,0,0.9,0c0.2,0,0.3,0,0.3,0.2
			c0.4,1.4,0.9,2.7,1.3,4.1c0.5,1.5,0.9,3.1,1.4,4.7c0.1,0.3,0.2,0.6,0.3,1C51.3,40.4,51.5,41.5,51.7,42.6z"/>
		<path class="st4" d="M47.8,36.7c0,0.4-0.3,0.6-0.6,0.8c-0.4,0.2-0.9,0.4-1.3,0.6c-0.4,0.2-0.6,0.7-0.3,1.1
			c0.4,0.7,0.6,1.4,0.5,2.2c0,0.1-0.2,0.3-0.3,0.3c-1.2,0.2-2.3-0.2-3-1.2c-0.4-0.5-0.4-0.5-1.1-0.3c-1.1,0.4-2.2,0.9-3.3,1.3
			c-1,0.3-2,0.5-3,0.5c-0.2,0-0.5,0.1-0.7,0.2c-0.1,0-0.1,0.1-0.2,0.2c0,0.1,0.1,0.2,0.1,0.2c0.6,0.2,1.2,0.4,1.8,0.3
			c0.2,0,0.5-0.1,0.7-0.1c0.3,0,0.3,0.1,0.2,0.3c-0.3,0.4-0.6,0.9-1,1.2c-0.5,0.5-1.1,0.9-1.7,1.2c-1.1,0.6-2.3,1-3.5,1.5
			c-0.2,0.1-0.4,0-0.4-0.2c-0.2-0.8-0.8-1.5-1.4-2.1c-0.2-0.2-0.5-0.3-0.8-0.4c-0.2-0.1-0.4,0.3-0.2,0.6c0.2,0.3,0.4,0.6,0.6,0.8
			c1.1,1.1,1.1,2.3,0.6,3.6c0,0.1-0.1,0.2-0.1,0.3c-0.1,0.2-0.1,0.4,0.2,0.5c0.2,0.1,0.4,0,0.6,0c0.1,0,0.2-0.1,0.3-0.2
			c0.2-0.4,0.6-0.5,1-0.5c0.5,0,1,0,1.5,0c0.1,0,0.3,0.1,0.4,0.2c0.1,0.1,0.1,0.3,0.1,0.4c-0.1,0-0.2,0.1-0.4,0
			c-0.5,0-1-0.1-1.5-0.1c-0.3,0-0.5,0.2-0.5,0.4c0,0.4,0.3,0.4,0.6,0.3c0.6-0.1,1.1-0.1,1.7,0.1c0.2,0,0.3,0.1,0.5,0.2
			c0.1,0.1,0.3,0.2,0.3,0.3c0,0.2-0.2,0.4-0.3,0.4c-0.5,0.1-1,0.2-1.5,0.2c-0.4,0-0.7-0.1-1.1-0.2c-0.1,0-0.2-0.1-0.2,0
			c-0.2,0-0.5,0-0.5,0.3c0,0.3,0.2,0.4,0.4,0.4c0.8,0.2,1.6,0.4,2.4,0.6c0.8,0.2,0.6,0.8,0.2,1.2c-0.2,0.1-0.3,0.2-0.5,0.2
			c-0.6,0.1-1.3,0.3-1.9,0.4c-1.1,0.1-2.2,0-3.3-0.3c-0.9-0.2-1.7-0.6-2.6-0.8c-1.1-0.2-2.1-0.6-3.2-0.5c-1.1,0.1-2.2-0.2-3.2-0.7
			c-0.5-0.3-0.6-0.5-0.3-1c0.2-0.3,0.4-0.6,0.6-0.9c0.4-0.6,0.6-1.3,0.2-2c-0.2-0.4-0.5-0.9-0.7-1.3c-0.1-0.1-0.1-0.2-0.1-0.4
			c-0.1-0.2-0.2-0.4-0.5-0.4c-0.3,0.1-0.3,0.3-0.3,0.5c0,0.2,0,0.4,0.1,0.6c0.1,0.3,0,0.4-0.3,0.5c-1.4,0.6-2.9,1.2-4.5,1.4
			c-1,0.1-2,0.1-2.9,0.1c-1.1-0.1-2.2-0.4-3.2-0.8c-1-0.4-1.8-1-2.5-1.8c-1.1-1.2-1.9-2.5-2-4.2c-0.1-0.8-0.2-1.6,0.2-2.4
			c0.2-0.4,0.5-0.5,0.9-0.6c0.4,0,0.5,0.3,0.6,0.5C4,40.9,4,41.1,4.1,41.2c0.3,0.4,0.5,0.7,0.8,1c0.6,0.5,1.2,1.1,2,1.4
			c1,0.4,2,0.4,3,0.2c1-0.2,1.8-0.8,2.6-1.3c0.4-0.3,0.7-0.7,1-1.1c0.1-0.2,0.1-0.4,0.1-0.6c0-0.4,0-0.8,0-1.1
			c0.1-1.3,0.3-2.5,0.5-3.8c0-0.1,0-0.2,0-0.3c0-0.2,0.1-0.2,0.4-0.2c0.7,0.2,1.4,0.4,2.2,0.6c1.2,0.3,2.1-0.2,2.9-1
			c1.1-1,1.6-2.3,1.7-3.7c0-0.7-0.1-1.3-0.5-1.8c-0.4-0.6-0.9-1.1-1.4-1.6c-0.4-0.4-1-0.6-1.6-0.3c-0.3,0.1-0.6,0.1-0.8,0.2
			c0,0-0.1,0-0.1-0.1c0.1-0.2,0.2-0.3,0.2-0.5c0.8-1.9,2.2-3.5,3.7-4.9c0.6-0.5,1.4-0.8,2.1-1.3c0.3-0.2,0.6-0.4,0.9-0.7
			c0.6-0.8,1.4-1.3,2.3-1.6c1.1-0.4,2.2-0.7,3.4-0.5c0.1,0,0.2,0,0.2,0c0.6,0.1,0.7,0.3,0.5,0.8c-0.2,0.5-0.4,1-0.5,1.5
			c-0.1,0.3-0.2,0.4-0.5,0.3c-0.4-0.1-0.9-0.1-1.2,0.3c-0.1,0.1-0.1,0.3-0.1,0.4c0.1,0,0.3,0.1,0.4,0.1c0.5,0.1,1.1,0.1,1.6,0.2
			c0.9,0.3,1.7,0.6,2.5,0.9c0.5,0.2,0.9,0.4,1.4,0.5c0.5,0.2,1.1,0.2,1.6,0c0.5-0.1,1-0.3,1.5-0.4c1.2-0.3,1.9-0.2,2.5,0.9
			c0.8,1.4,1,2.9,1,4.5c0,0.3-0.1,0.4-0.4,0.5c-1.5,0.5-3.1,0.7-4.8,0.6c-0.5,0-1-0.1-1.4-0.1c-0.3,0-0.4-0.2-0.4-0.4
			c0-0.5,0-1,0-1.4c-0.1-1.1-1-1.6-2-1.2c-0.7,0.2-1.2,0.7-1.7,1.2c-0.2,0.2-0.4,0.2-0.6,0c-0.3-0.2-0.6-0.5-0.9-0.7
			c-0.4-0.4-0.4-1,0-1.5c0.1-0.1,0.2-0.3,0.2-0.4c0-0.2-0.1-0.4-0.2-0.4c-0.1,0-0.3,0.1-0.4,0.2c-0.8,0.7-1.7,0.9-2.8,0.8
			c-0.3,0-0.5-0.1-0.8-0.1c-0.1,0-0.2,0-0.2,0.1c0,0.1,0,0.2,0.1,0.2c0.3,0.2,0.6,0.3,0.9,0.4c0.6,0.2,1.3,0.3,1.9,0.5
			c0.1,0,0.2,0.1,0.3,0.1c0.9,0.9,2,1.6,3.1,2.2c0.7,0.4,1.4,0.9,2.2,1c0.8,0.2,1.7,0.3,2.5,0.4c1.2,0,2.3,0,3.5-0.1
			c0.8-0.1,1.5-0.4,2.2-0.6c0.1,0,0.2-0.1,0.2-0.1c0.7-0.2,0.7-0.2,0.6-0.9c0-0.2-0.1-0.5,0.1-0.6c0.2-0.2,0.4,0.1,0.7,0.2
			c0.8,0.5,0.7,1.3,0.6,2c0,0.4-0.2,0.9-0.2,1.3c0,0.1-0.1,0.3-0.2,0.4c-0.5,0.6-1,1.2-1.5,1.7c-0.5,0.5-1.1,0.7-1.8,0.9
			c-1,0.2-1.9,0.4-2.9,0.6c-0.3,0.1-0.6,0-0.9,0c-0.3,0-0.6,0.1-0.8,0.1c0,0-0.1,0.3-0.1,0.3c0.2,0.2,0.5,0.5,0.9,0.4
			c0.4-0.1,0.8,0,1.1-0.1c1-0.2,2.1-0.5,3.1-0.7c0.4-0.1,0.8-0.2,1.2-0.4c0.2-0.1,0.5-0.2,0.6-0.4c0.7-0.8,1.5-1.6,2.4-2.1
			c0.4-0.2,0.7-0.3,1.1-0.5c0.4-0.1,0.6,0,0.6,0.4c0,0.4,0,0.8-0.1,1.2c-0.2,0.5-0.5,1-0.8,1.5c-0.3,0.4-0.2,0.8,0.3,0.9
			c0.1,0,0.2,0,0.2,0c0.6-0.1,1.2-0.1,1.7-0.2c0.1,0,0.3,0.1,0.5,0.1C47.6,36,47.8,36.3,47.8,36.7z M26.3,34.5
			c0.1-0.7-0.1-1.2-0.6-1.7c-0.8-0.7-2.6-0.4-2.9,1c-0.2,0.8,0,1.4,0.6,1.7c0.3,0.1,0.6,0.1,0.9,0.2c0,0,0,0,0,0c0.1,0,0.2,0,0.3,0
			C25.5,35.7,26.2,35.1,26.3,34.5z M23.4,40.8c0.4-0.8,0-1.8-0.7-2.3c-0.6-0.5-1.4-0.5-2.1-0.6c-1.1-0.1-2.1,0.9-2.4,1.7
			c-0.2,0.5-0.1,1-0.1,1.6c0.1,0.5,0.3,1,0.8,1.2c0.2,0.1,0.5,0.2,0.7,0.3c1,0.6,3.2-0.2,3.4-1.4C23.2,41.1,23.3,40.9,23.4,40.8z"/>
		<path class="st3" d="M47.8,20.8c0.2,0.7,0.2,0.7-0.5,0.6c-0.3,0-0.5,0-0.8,0.1c-0.3,0.1-0.5,0-0.6-0.3c-0.3-1-0.7-1.9-1-2.9
			c-0.4-1.2-0.8-2.4-1.2-3.6c-0.1-0.4-0.2-0.8-0.3-1.2c-0.1-0.3,0-0.5,0.3-0.5c0.3,0,0.6-0.1,0.9-0.1c0.2,0,0.4,0.1,0.5,0.3
			c0.2,0.5,0.4,1,0.6,1.5c0.4,1.1,0.8,2.2,1.2,3.3C47.2,19,47.5,19.9,47.8,20.8z"/>
		<path class="st3" d="M46.7,42.5c0.2,0.7,0.3,1.5,0.5,2.3c-0.8-0.5-1.4-0.2-2,0.4c-0.1-0.3-0.1-0.4-0.2-0.6
			c-0.1-0.5-0.2-1.1-0.3-1.6c-0.1-0.2,0-0.4,0.3-0.3c0.5,0.1,1,0,1.5-0.3C46.5,42.4,46.7,42.5,46.7,42.5z"/>
		<path class="st5" d="M45.6,11.7c0,0.2-0.2,0.3-0.3,0.3c-1.6,0.1-3.1,0.6-4.6,1.1c-0.2,0.1-0.5,0.2-0.7,0.3c0,0-0.1,0-0.1,0
			c0-0.4,0.2-0.9-0.4-1.1c-0.5,0.5-1.2,0.6-1.9,0.4c1.4-0.5,2.6-1,4-1.4c1.1-0.3,2.3-0.5,3.4-0.7c0.1,0,0.2,0,0.3,0
			c0,0,0.1-0.1,0.1-0.1l0.1,0C45.4,10.8,45.5,11.3,45.6,11.7z"/>
		<path class="st5" d="M45.3,10.3L45.3,10.3C45.3,10.3,45.3,10.3,45.3,10.3c-0.1,0-0.1-0.1-0.2-0.1c-0.1,0-0.2,0-0.3,0
			c-1.7,0.3-3.3,0.5-4.9,1.1c-1.1,0.4-2.2,0.8-3.3,1.2c-0.4,0.1-0.8,0.2-1.2,0.2c-0.1,0-0.2-0.1-0.2-0.2c0.1-0.6,0.1-1.1,0.3-1.7
			c0.1-0.3,0.5-0.4,0.8-0.6c1-0.4,2-0.8,3-1.2c0.9-0.3,1.7-0.5,2.6-0.8c0.7-0.2,1.5-0.3,2.3-0.5c0.1,0,0.2-0.1,0.3-0.2l0.2-0.1
			c0.2,0.5,0.3,1.1,0.5,1.6C45.2,9.7,45.3,10,45.3,10.3z"/>
		<path class="st5" d="M44.7,7.7l-0.2,0.1c-0.1,0-0.2-0.1-0.4-0.1c-1.7,0.2-3.3,0.5-4.9,1.1c-1,0.4-1.9,0.7-2.9,1
			c-0.3,0.1-0.5,0.3-0.7,0.3c0-0.3,0-0.5-0.1-0.7c-0.1-0.1-0.4-0.2-0.6-0.2c-0.2,0-0.5,0.2-0.6-0.1c-0.1-0.3,0.3-0.3,0.5-0.4
			c1.4-0.8,2.8-1.5,4.4-1.8c0.9-0.2,1.7-0.5,2.6-0.6c0.7-0.1,1.3,0,2,0.1c0.3,0,0.5,0.3,0.6,0.6C44.5,7.2,44.6,7.5,44.7,7.7z"/>
		<path class="st3" d="M44.3,30.7c0,0.1-0.1,0.2-0.1,0.2c-0.2,0.1-0.4,0.1-0.7,0.2c0-0.5,0.1-1,0.1-1.4c0-0.8-0.1-1.5-0.7-2.1
			c-0.1-0.1-0.2-0.2-0.3-0.3c-0.5-0.3-0.9-0.6-1.4-1c-0.1-0.1-0.1-0.2-0.1-0.3c-0.1-0.4-0.2-0.9-0.3-1.3c-0.2-0.6-0.1-1.1,0.1-1.6
			c0.2-0.5,0.4-1,0.6-1.5c0-0.1,0.2-0.2,0.3-0.2c0.1,0.1,0.2,0.2,0.2,0.3c0.7,1.5,1,3.1,1.3,4.7c0.2,1.2,0.6,2.4,0.9,3.5
			C44.2,30.3,44.3,30.5,44.3,30.7z"/>
		<path class="st6" d="M43.8,19.6c0.1,0.2,0.2,0.5,0.3,0.8c-0.4,0-0.7,0-1.1,0.1c-0.5,0-1,0.1-1.5,0.2c-0.3,0.1-0.4-0.1-0.4-0.3
			c0-0.5-0.2-1-0.5-1.4c-0.5-0.7-1.2-1.1-2.1-1c-0.5,0-0.8,0-1.2-0.4c-0.8-0.7-1.8-1.1-2.8-1.4c-0.6-0.2-1.2-0.1-1.7,0.2
			c-0.3,0.2-0.6,0.3-0.8,0.5c-0.9,0.6-2,0.7-3,0.7c-1.1,0-2.2,0.1-3.2,0.4c-0.1,0-0.2,0.1-0.3,0c-0.6-0.2-1.3-0.4-1.8-0.8
			c0,0,0-0.1,0-0.1c0.3-0.2,0.6-0.4,0.9-0.6c0.3-0.2,0.5-0.4,0.8-0.5c0.3-0.2,0.6-0.3,1-0.4c0.4-0.1,0.8,0,1.2,0
			c0.4,0,0.6-0.3,0.4-0.7c-0.1-0.1-0.1-0.2-0.2-0.3c-0.5-0.3-1-0.7-1.4-1c-0.1-0.1-0.2-0.2-0.3-0.3c0.1-0.1,0.2-0.2,0.4-0.3
			c0.8-0.4,1.7-0.3,2.5-0.1c0.6,0.2,1.1,0.4,1.7,0.7c0.3,0.1,0.5,0.1,0.6-0.2c0.5-1.6,1.7-2.3,3.2-2.7c0.5-0.1,0.5,0,0.4,0.4
			c-0.3,1-0.3,2-0.2,3.1c0,0.2,0.1,0.4,0.2,0.6c0.2-0.1,0.3-0.2,0.3-0.3c0.4-0.5,0.9-0.6,1.5-0.7c0.7,0,1.3-0.1,2-0.1
			c0.1,0,0.2,0,0.4-0.1c-0.1,0.4-0.1,0.8-0.2,1.1c-0.1,0.3-0.3,0.5-0.4,0.8c0,0.1-0.1,0.2,0,0.3c0.1,0.1,0.2,0.1,0.3,0
			c0.1,0,0.2-0.1,0.3-0.1c0.5-0.3,1.1-0.3,1.5,0c0.6,0.3,1.2,0.5,1.9,0.6c0.2,0,0.4,0.1,0.6,0.2c-0.1,0.2-0.2,0.4-0.3,0.6
			c-0.3,0.3-0.6,0.5-0.9,0.8c-0.1,0.1-0.3,0.3-0.2,0.5c0,0.2,0.1,0.5,0.5,0.4C42.8,18.4,43.4,18.8,43.8,19.6z"/>
		<path class="st3" d="M43.4,15.2c0.1,0.2,0,0.3-0.2,0.3c-0.8,0-1.5,0.1-2.2-0.5c-0.3-0.3-0.7-0.4-1.2-0.6c0.9-0.7,1.8-1,2.8-1.2
			c0.1,0,0.2,0.1,0.3,0.2C43.1,14,43.2,14.6,43.4,15.2z"/>
		<path class="st4" d="M42.8,49.4c0.2,0.4,0,0.8-0.4,1.1c-0.3,0.2-0.5,0.3-0.8,0.3c-1,0.1-2,0.3-3,0.3c-0.8,0-1.5-0.1-2.3-0.1
			c-0.3,0-0.6,0-0.9,0c-0.8,0-1.1-0.3-1.3-1c-0.1-0.3-0.4-0.6-0.6-0.8c-0.3-0.2-0.6-0.4-0.9-0.5c-0.3-0.1-0.6-0.2-1.1-0.3
			c0.2-0.2,0.4-0.3,0.5-0.4c1-0.5,2-1,3-1.4c0.1,0,0.2-0.1,0.3-0.1c0.2-0.2,0.4-0.1,0.6,0c0.2,0.2,0.3,0.3,0.1,0.6
			c-0.1,0.3,0,0.5,0.4,0.5c0.4-0.1,0.8-0.2,1.2-0.3c0.9-0.4,1.8-0.6,2.8-0.7c0.2,0,0.3,0,0.5,0.1c0,0,0,0.1,0,0.1
			c-0.2,0.1-0.3,0.1-0.5,0.2c-0.2,0.1-0.4,0.2-0.6,0.3c-0.1,0.1-0.1,0.3,0,0.4c0,0,0.2,0.1,0.3,0c0.2,0,0.4-0.2,0.6-0.2
			c0.2,0,0.4,0,0.5,0.1c0.4,0.2,0.4,0.6,0,0.8c-0.2,0.1-0.4,0.1-0.6,0.3c-0.1,0.1-0.2,0.4-0.2,0.5c0.2,0.1,0.4,0.3,0.6,0.2
			c0.2-0.1,0.5-0.2,0.7-0.2C42.5,48.9,42.7,49,42.8,49.4z"/>
		<path class="st7" d="M42.8,5c0.1,0.4,0,0.5-0.3,0.4c-1.4-0.1-2.8,0.1-4.1,0.4c-0.3,0.1-0.5,0.2-0.7,0.3c-1,0.4-2,0.8-2.8,1.5
			c0,0-0.1,0.1-0.2,0.1c-0.1-0.6-0.2-1.1-0.1-1.7c0.1-0.3,0-0.7,0-1c0-0.2,0-0.4,0.2-0.5c1.5-1.4,3.4-2.2,5.5-2.2
			c0.6,0,1.2,0.2,1.7,0.3c0.3,0.1,0.4,0.3,0.5,0.5C42.5,3.8,42.7,4.4,42.8,5z"/>
		<path class="st8" d="M39.4,19.1c0.9,0.6,1.2,1.5,1.1,2.5c0,0.4-0.3,0.8-0.4,1.2c-0.1,0.2-0.3,0.3-0.6,0.1
			c-0.1-0.1-0.2-0.1-0.4-0.2c-0.2-0.1-0.2-0.2-0.1-0.4c0.2-0.3,0.3-0.7,0.2-1.1c-0.1-0.6-0.6-0.9-1.2-0.7c-0.1,0-0.2,0.1-0.4,0.1
			c0-0.2,0-0.4,0-0.6c0-0.1,0.1-0.3,0.1-0.4c0-0.4,0.1-0.7,0.5-0.9C38.7,18.6,39.1,18.8,39.4,19.1z"/>
		<path class="st8" d="M36.5,18c0.4,0.4,0.6,0.9,0.6,1.4c0,0.9-0.2,1.7-0.6,2.5c-0.1,0.2-0.2,0.4-0.4,0.4c-0.8,0.5-1.7,0.7-2.6,0.4
			c-0.4-0.1-0.4-0.2-0.2-0.5c0.3-0.3,0.3-0.7,0.2-1.1c-0.2-0.8-1-1-1.7-0.7c-0.5,0.2-0.8,0.7-0.9,1.2c-0.5,0-0.6-0.2-0.6-0.7
			c0.1-1.1,0.7-2,1.4-2.8c0.6-0.7,1.4-1,2.3-1C35,17.1,35.8,17.3,36.5,18z"/>
		<path class="st8" d="M32.7,28.4c0,0.5-0.1,0.6-0.5,0.4c-0.6-0.2-1.1-0.5-1.6-0.8c-0.3-0.2-0.3-0.4-0.1-0.6
			c0.4-0.4,0.8-0.7,1.3-0.7c0.4,0,0.7,0.2,0.8,0.6c0,0.2,0,0.4,0,0.5C32.6,28.1,32.6,28.3,32.7,28.4z"/>
		<path d="M25.7,32.8c0.5,0.5,0.7,1,0.6,1.7c-0.1,0.5-0.8,1.2-1.6,1.2c-0.1,0-0.2,0-0.3,0c0,0,0,0,0,0c-0.3-0.1-0.7-0.1-0.9-0.2
			c-0.6-0.3-0.8-0.9-0.6-1.7C23.1,32.4,24.9,32.1,25.7,32.8z M25.5,34.2c0-0.6-0.5-1-1.2-1c-0.4,0-0.7,0.3-0.7,0.7
			c0,0.6,0.5,1.1,1.1,1.1C25.2,35,25.5,34.6,25.5,34.2z"/>
		<path class="st9" d="M24.4,33.2c0.7,0,1.2,0.5,1.2,1c0,0.4-0.3,0.8-0.7,0.8c-0.7,0-1.2-0.5-1.1-1.1C23.7,33.5,24,33.2,24.4,33.2z"
			/>
		<path d="M22.7,38.4c0.6,0.5,1.1,1.6,0.7,2.3c-0.1,0.2-0.2,0.4-0.2,0.6c-0.3,1.2-2.4,2-3.4,1.4c-0.2-0.1-0.4-0.2-0.7-0.3
			c-0.5-0.2-0.8-0.7-0.8-1.2c-0.1-0.5-0.1-1,0.1-1.6c0.3-0.9,1.3-1.8,2.4-1.7C21.4,37.9,22.1,37.9,22.7,38.4z M20.9,42.2
			c0.8,0,1.7-0.9,1.7-1.7c0-1-0.8-1.8-1.7-1.8c-1,0-1.9,0.9-1.9,1.8C19,41.3,20,42.2,20.9,42.2z"/>
		<path class="st9" d="M22.6,40.5c0,0.8-0.8,1.7-1.7,1.7c-0.9,0-1.9-0.9-1.9-1.7c0-0.9,0.9-1.8,1.9-1.8
			C21.8,38.7,22.6,39.5,22.6,40.5z"/>
		<path class="st6" d="M22.8,19.4c-0.2,0.4-0.5,0.7-0.9,0.9c-0.8,0.5-1.6,1-2.4,1.5c-0.1,0.1-0.3,0.2-0.4,0.4
			c-0.2,0.3-0.5,0.3-0.8,0.2c-0.4-0.2-0.9-0.4-1.3-0.5c-0.3-0.1-0.3-0.3-0.1-0.4c0.4-0.4,0.8-0.9,1.3-1.1c1.3-0.6,2.7-0.8,4.2-0.9
			C22.5,19.4,22.6,19.4,22.8,19.4z"/>
		<path class="st9" d="M19.9,31.3c0,0.7-0.3,1.4-0.5,2.1c-0.3,0.8-0.7,1.3-1.5,1.6c-0.7,0.3-2.5,0.3-3.1-0.4
			c-0.3-0.4-0.4-0.8-0.2-1.3c0.3-0.8,0.5-1.6,0.8-2.4c0.1-0.4,0.2-0.8,0.5-1.2c0.2-0.3,0.6-0.5,0.9-0.5c0.7-0.1,1.4-0.2,2.1,0.2
			c0.5,0.3,0.8,0.6,0.9,1.2C19.8,30.7,19.9,31,19.9,31.3z"/>
		<path class="st6" d="M17.7,23.7C17.7,23.8,17.7,23.8,17.7,23.7c-0.2,0.4-0.4,0.7-0.7,1c-0.7,0.8-1.1,1.6-1.5,2.5
			c-0.1,0.1-0.1,0.3-0.2,0.4c-0.1,0.1-0.2,0.2-0.3,0.2c-0.5,0-1-0.1-1.5-0.1c-0.5,0-0.7-0.3-0.4-0.7c0.5-1,1.3-1.8,2.4-2.3
			c0.6-0.3,1.2-0.6,1.8-0.8C17.3,23.8,17.5,23.8,17.7,23.7z"/>
		<path class="st6" d="M14.1,30.4c0,0.1-0.1,0.2-0.1,0.4c-0.3,0.9-0.6,1.9-0.8,2.8C13,34,13,34.5,13,34.9c0,0.3-0.1,0.3-0.4,0.3
			c-0.4-0.1-0.9-0.1-1.4-0.1c-0.1,0-0.2,0-0.4,0C10.1,35,10,35,10.3,34c0.1-0.3,0.3-0.5,0.4-0.7c0.8-1,1.7-2,2.8-2.7
			C13.7,30.5,13.8,30.4,14.1,30.4C14,30.3,14.1,30.3,14.1,30.4z"/>
		<path class="st6" d="M12.4,37.5c0,0.9,0.3,1.7,0,2.5c-0.1,0.3-0.2,0.4-0.5,0.2c-0.2-0.1-0.5-0.2-0.7-0.4c-0.4-0.2-0.5-0.5-0.2-0.8
			c0.3-0.4,0.7-0.8,1-1.2C12.1,37.7,12.2,37.7,12.4,37.5z"/>
		<path class="st6" d="M10.5,41.9c0.3,0.1,0.3,0.3,0,0.4c-0.4,0.3-0.9,0.4-1.4,0.4c-0.4,0-0.3-0.3-0.3-0.5c0-0.1,0-0.2,0-0.3
			c0.1-0.5,0.2-0.6,0.7-0.4C9.8,41.6,10.1,41.7,10.5,41.9z"/>
		<path class="st6" d="M5.5,41c0.3,0.1,0.4,0.5,0.4,0.9c-0.4-0.1-0.7-0.4-0.8-0.7c0-0.1,0-0.2,0.1-0.2C5.3,41,5.4,41,5.5,41z"/>
	</g>
</g>
</svg>
