<?xml version="1.0" encoding="utf-8"?>
<!-- Generator: Adobe Illustrator 19.1.0, SVG Export Plug-In . SVG Version: 6.00 Build 0)  -->
<svg version="1.1" id="Layer_1" xmlns="http://www.w3.org/2000/svg" xmlns:xlink="http://www.w3.org/1999/xlink" x="0px" y="0px"
	 viewBox="0 0 561 562" style="enable-background:new 0 0 561 562;" xml:space="preserve">
<style type="text/css">
	.st0{fill:#FFFFFF;stroke:#D54799;stroke-width:26.9418;stroke-miterlimit:10;}
	.st1{fill:none;}
	.st2{fill:#F4E5BA;}
	.st3{fill:#FFC60B;}
	.st4{fill:#71BFD8;}
	.st5{fill:#D8D6EC;}
	.st6{fill:#AB4A9C;}
	.st7{fill:#F190AC;}
	.st8{fill:#FFFFFF;}
	.st9{fill:#0071B5;}
</style>
<g>
	<circle class="st0" cx="280.1" cy="284.6" r="260.7"/>
	<g id="XMLID_1_">
		<path class="st1" d="M566.5-18.1c0,185.2,0,370.3,0,555.5c-193.4,0-386.8,0-580.1,0c0-185.2,0-370.3,0-555.5
			C179.7-18.1,373.1-18.1,566.5-18.1z M484.5,381.1c0.1-2.7,0.5-5.4,0.3-8.1c-0.3-4.6-0.5-9.3-1.4-13.8c-0.7-3.7-2.6-7.1-3.6-10.7
			c-2.2-8-4-16.1-6.2-24.1c-3.5-12.4-7.5-24.6-10.9-37c-1.4-5-2.6-10.3,0.9-15.3c4-5.6,5.1-12.4,5.9-19c0.8-6.2,0.1-12.5-2.2-18.5
			c-1.6-4.2-3.1-8.4-4.8-12.6c-1.3-3.2-2.3-6.7-4.4-9.4c-5-6.7-10.1-13.6-16.1-19.3c-3.7-3.5-5.9-6.9-7.5-11.7
			c-5.4-15.8-11.7-31.3-17.4-47.1c-3.1-8.5-6.7-16.9-7.5-26.1c-0.1-1.2-0.5-2.8,0.1-3.4c3.5-3.8,1.8-8.1,0.9-12
			c-2.8-12.1-5.7-24.1-9.1-36.1c-1.3-4.4-1.4-9.8-6.6-12.4c-0.7-0.4-1.1-1.6-1.4-2.5c-2.9-7.7-5.5-15.5-8.6-23
			c-1.4-3.5-3.3-7.1-5.9-9.8c-5.5-5.6-12.9-6.9-20.4-6.3c-5.1,0.4-10.1,2.2-15.1,3.3c-13.5,2.9-26.4,7-37.7,15.4
			c-10.5,7.8-15.1,17.8-13.3,30.6c0.8,5.8,2.7,11.5,3.8,17.3c0.6,2.8,1.1,5.8-2.1,7.7c-5.2,3-10.8,5.6-15.4,9.3
			c-3.8,3-6.7,7.2-9.5,11.2c-2.1,3.1-2.6,3.5-6.2,2.5c-10.9-3.1-21.9-5.2-33-0.7c-6.6,2.7-12,6.7-14.8,13.5
			c-0.8,1.8-0.4,2.9,1.6,3.4c1.8,0.4,3.6,0.7,5.4,1.1c4.1,1.1,8.2,2.3,11.3,5.6c-0.4,0.5-0.5,0.7-0.6,0.8c-0.3,0.1-0.6,0.3-0.9,0.3
			c-8.2,0.3-14.9,4-20.7,9.4c-1.1,1-2.8,1.5-4.3,1.7c-4.2,0.5-8.4,0.7-12.5,1.2c-2.8,0.4-3.5,1.8-1.8,4c4.3,5.7,9,11.1,15.9,13.8
			c2.4,0.9,4.6,2,7.6,3.2c-3.1,2.1-4.7,6.1-8.8,4.3c-9-3.8-18.3-2.9-27.5-1.6c-11.6,1.7-22.6,5.8-32.5,12.2
			c-3.5,2.3-6.5,5.5-9.2,8.8c-2.5,3-2.2,6.1,0.8,8.6c2.4,2,5.5,3.3,8.3,4.7c1.9,1,3.9,1.8,6.4,2.9c-1.1,0.7-1.4,1-1.8,1.2
			c-10.1,5-20.3,9.9-30.3,15.1c-10,5.3-14.9,14.6-18.7,24.7c-0.8,2.2-0.1,4,1.7,5.7c2.8,2.6,6.1,2.8,9.5,3.2
			c4.5,0.4,8.9,1.3,13.4,2.1c0.7,0.1,1.2,1,1.8,1.5c-0.6,0.6-1.1,1.3-1.8,1.6c-3.3,1.8-6.8,3.3-9.9,5.3c-5.4,3.4-10.6,7.1-15.7,10.8
			c-2.5,1.8-5.2,3.6-7.1,6c-4,5.2-7.5,10.8-11.2,16.1c-2.7,3.8-3.6,8.1-4.1,12.7c-0.6,6.3,3.3,9,7.9,10c3.2,0.7,6.6,0.5,10,0.6
			c4.5,0.1,9,0.4,13.3,3.5c-2.4,1.1-4.4,1.6-5.9,2.7c-8.9,7-18.2,13.8-21,25.8c-0.4,1.5,0,4,1,4.8c2.9,2.3,6.3,3.9,9.6,5.7
			c2.6,1.5,5.3,2.8,7.6,4.5c0.6,0.4,0.1,2.2,0.2,3.4c-1.1-0.1-2.5,0.2-3.3-0.3c-3.7-2.6-7.5-4.6-12-5.3c-1.7-0.3-3.4-0.8-5-1.4
			c-8.2-3-14.9,1.3-15.4,9.9c-0.1,1.9,0.3,3.9,0.2,5.8c-0.1,1-0.8,2.5-1.5,2.7c-3.5,1.3-8-1.6-8.5-5.3c-0.7-4.7-2.5-8.9-5.3-12.7
			c-3.6-4.7-6.3-5.9-11.7-4.2c-2.6,0.9-3.8,0-4.9-2c-0.6-1-1.3-2-2.1-2.9c-3.2-3.8-6.9-5.1-12.1-3.8c-4.8,1.2-6.7,4.8-8.9,8.3
			c-5.8,8.8-8.9,18.5-6.2,28.9c2.2,8.3,4.6,16.8,10.2,23.8c3.1,3.9,5.3,8.4,8.6,12.1c7.5,8.6,16.5,15.4,26.8,20.5
			c7.4,3.7,14.9,6.6,23.1,7.8c3.5,0.5,7,1.3,10.6,1.4c6.2,0.3,12.5,0.2,18.8,0.2c13.1-0.1,25.6-3.4,38.2-6.4
			c3.6-0.8,7.4-1.3,11.1-1.4c2.1,0,4,1.4,3,4.2c-1.8,5.3-3.5,10.6-5.3,15.8c-1.4,4-0.8,7.5,2.4,10.3c7.3,6.4,16.4,8.3,25.6,9.7
			c9.6,1.4,19.2,2.7,28.7,4.6c9.6,2,18.9,5.4,28.6,7c10.8,1.8,21.8,2.6,32.8,3.3c5.2,0.3,10.5-0.1,15.6-1.1c4-0.7,7.7-2.7,11.5-4.3
			c5.4-2.4,8.4-6.9,10.3-12.2c1-2.8,0.8-5.7-0.8-8.4c-0.5-0.8-0.4-2.4,0.1-3.1c2.4-3,5-5.5,9.3-5.7c14.1-0.5,28.2-1.3,42.3-1.7
			c11-0.3,20.7-3.4,27.3-12.7c5.5-7.6,4.1-17.2-2.7-23.6c-1.5-1.4-2-3.7-3.1-5.5c-2.9-5.2-5.1-10.9-11.6-13.2
			c-5.2-1.8-10.2-1.1-15.2,0.5c-6.5,2-13,3.4-19.7,1.4c-1.8-0.5-3.8-1.8-4.6-3.4c-1.1-2.2-1-4.8,1.5-6.7c6.8-5,11.8-11.6,16.1-18.7
			c3-4.9,6.6-8.7,12.1-10.6c6.3-2.1,12.3-6.4,19.5-1.8c4.7,3,9.5,5.6,10.6,11.8c0.9,5.2,2,10.4,3.1,15.6c0.8,3.8,2.1,7.5,2.4,11.4
			c0.4,4.7,2.6,8,5.8,11.2c3.6,3.6,6.8,7.5,10.2,11.2c2.6,2.8,5,6,8,8.4c6.1,4.9,12.6,9.2,18.7,14.1c5.6,4.5,10.8,9.5,16.2,14.4
			c4.1,3.7,7.7,7.9,13.2,9.6c8.7,2.5,14,2,16.5-8.4c0.4-1.6,0.8-3.2,0.8-4.8c0-6.1-0.4-12.2-0.3-18.3c0.1-4.3,1.2-8.6,1.3-12.9
			C483.7,412.6,484,396.8,484.5,381.1z"/>
		<path d="M484.8,373c0.1,2.7-0.3,5.4-0.3,8.1c-0.4,15.7-0.7,31.5-1.2,47.2c-0.1,4.3-1.2,8.6-1.3,12.9c-0.1,6.1,0.3,12.2,0.3,18.3
			c0,1.6-0.4,3.2-0.8,4.8c-2.5,10.4-7.8,10.9-16.5,8.4c-5.6-1.6-9.2-5.9-13.2-9.6c-5.4-4.8-10.6-9.8-16.2-14.4
			c-6.1-4.9-12.7-9.2-18.7-14.1c-3-2.4-5.4-5.6-8-8.4c-3.4-3.7-6.7-7.7-10.2-11.2c-3.2-3.1-5.4-6.5-5.8-11.2
			c-0.3-3.8-1.6-7.6-2.4-11.4c-1.1-5.2-2.2-10.3-3.1-15.6c-1.1-6.2-5.9-8.8-10.6-11.8c-7.2-4.6-13.2-0.4-19.5,1.8
			c-5.5,1.8-9.1,5.6-12.1,10.6c-4.3,7.1-9.3,13.7-16.1,18.7c-2.5,1.9-2.5,4.5-1.5,6.7c0.8,1.5,2.8,2.8,4.6,3.4
			c6.7,2,13.2,0.6,19.7-1.4c5-1.6,10-2.3,15.2-0.5c6.4,2.2,8.7,7.9,11.6,13.2c1,1.9,1.6,4.1,3.1,5.5c6.8,6.4,8.2,16,2.7,23.6
			c-6.7,9.3-16.3,12.4-27.3,12.7c-14.1,0.4-28.2,1.2-42.3,1.7c-4.3,0.1-6.9,2.7-9.3,5.7c-0.5,0.7-0.6,2.3-0.1,3.1
			c1.6,2.8,1.8,5.6,0.8,8.4c-1.9,5.3-5,9.8-10.3,12.2c-3.7,1.6-7.5,3.5-11.5,4.3c-5.1,1-10.4,1.4-15.6,1.1c-11-0.7-22-1.5-32.8-3.3
			c-9.7-1.6-19-5.1-28.6-7c-9.5-2-19.1-3.2-28.7-4.6c-9.3-1.4-18.3-3.2-25.6-9.7c-3.2-2.8-3.8-6.3-2.4-10.3
			c1.8-5.3,3.6-10.5,5.3-15.8c0.9-2.8-0.9-4.2-3-4.2c-3.7,0-7.5,0.5-11.1,1.4c-12.6,3-25.1,6.3-38.2,6.4c-6.3,0-12.5,0.1-18.8-0.2
			c-3.5-0.1-7-0.9-10.6-1.4c-8.2-1.2-15.7-4.1-23.1-7.8c-10.3-5.1-19.3-11.9-26.8-20.5c-3.2-3.7-5.5-8.3-8.6-12.1
			c-5.6-7-8-15.5-10.2-23.8c-2.8-10.4,0.4-20.1,6.2-28.9c2.3-3.5,4.2-7.1,8.9-8.3c5.1-1.3,8.9,0,12.1,3.8c0.8,0.9,1.5,1.9,2.1,2.9
			c1.1,2,2.3,2.8,4.9,2c5.4-1.8,8.1-0.5,11.7,4.2c2.9,3.8,4.7,8,5.3,12.7c0.5,3.7,5.1,6.6,8.5,5.3c0.8-0.3,1.4-1.8,1.5-2.7
			c0.2-1.9-0.3-3.9-0.2-5.8c0.5-8.7,7.2-12.9,15.4-9.9c1.6,0.6,3.3,1.2,5,1.4c4.5,0.7,8.3,2.7,12,5.3c0.8,0.5,2.2,0.2,3.3,0.3
			c0-1.2,0.4-3-0.2-3.4c-2.4-1.7-5.1-3.1-7.6-4.5c-3.2-1.9-6.7-3.5-9.6-5.7c-1-0.8-1.3-3.3-1-4.8c2.8-12,12.1-18.8,21-25.8
			c1.5-1.2,3.5-1.6,5.9-2.7c-4.4-3.1-8.8-3.4-13.3-3.5c-3.3,0-6.8,0.1-10-0.6c-4.6-1.1-8.5-3.7-7.9-10c0.5-4.6,1.4-8.9,4.1-12.7
			c3.8-5.4,7.2-11,11.2-16.1c1.9-2.4,4.6-4.2,7.1-6c5.1-3.7,10.3-7.4,15.7-10.8c3.1-2,6.7-3.5,9.9-5.3c0.7-0.4,1.2-1.1,1.8-1.6
			c-0.6-0.5-1.1-1.4-1.8-1.5c-4.4-0.8-8.9-1.6-13.4-2.1c-3.5-0.3-6.7-0.6-9.5-3.2c-1.9-1.7-2.5-3.5-1.7-5.7
			c3.8-10.1,8.7-19.4,18.7-24.7c10-5.3,20.2-10.1,30.3-15.1c0.4-0.2,0.7-0.4,1.8-1.2c-2.5-1.1-4.5-1.9-6.4-2.9
			c-2.8-1.5-5.9-2.7-8.3-4.7c-3-2.5-3.3-5.6-0.8-8.6c2.7-3.2,5.7-6.5,9.2-8.8c9.9-6.5,20.9-10.6,32.5-12.2
			c9.1-1.3,18.5-2.2,27.5,1.6c4.1,1.8,5.7-2.2,8.8-4.3c-2.9-1.3-5.2-2.3-7.6-3.2c-7-2.7-11.6-8-15.9-13.8c-1.6-2.2-0.9-3.6,1.8-4
			c4.2-0.5,8.4-0.7,12.5-1.2c1.5-0.2,3.3-0.7,4.3-1.7c5.9-5.5,12.5-9.2,20.7-9.4c0.3,0,0.6-0.2,0.9-0.3c0.2-0.1,0.3-0.3,0.6-0.8
			c-3.1-3.3-7.1-4.5-11.3-5.6c-1.8-0.5-3.6-0.7-5.4-1.1c-2-0.4-2.3-1.6-1.6-3.4c2.9-6.8,8.2-10.8,14.8-13.5c11.1-4.5,22-2.4,33,0.7
			c3.5,1,4.1,0.5,6.2-2.5c2.8-4,5.7-8.2,9.5-11.2c4.7-3.7,10.2-6.3,15.4-9.3c3.3-1.9,2.7-4.9,2.1-7.7c-1.2-5.8-3-11.5-3.8-17.3
			c-1.8-12.8,2.8-22.8,13.3-30.6c11.3-8.4,24.2-12.4,37.7-15.4c5-1.1,10-2.9,15.1-3.3c7.5-0.6,14.9,0.7,20.4,6.3
			c2.6,2.7,4.5,6.3,5.9,9.8c3.1,7.6,5.7,15.3,8.6,23c0.3,0.9,0.7,2.1,1.4,2.5c5.2,2.6,5.4,8,6.6,12.4c3.4,11.9,6.3,24,9.1,36.1
			c0.9,3.9,2.6,8.2-0.9,12c-0.6,0.6-0.2,2.3-0.1,3.4c0.8,9.2,4.4,17.6,7.5,26.1c5.7,15.7,12,31.2,17.4,47.1
			c1.6,4.8,3.9,8.2,7.5,11.7c6,5.7,11.1,12.6,16.1,19.3c2,2.7,3.1,6.2,4.4,9.4c1.7,4.2,3.1,8.4,4.8,12.6c2.3,6,3,12.2,2.2,18.5
			c-0.8,6.6-2,13.3-5.9,19c-3.5,5-2.3,10.3-0.9,15.3c3.4,12.4,7.3,24.6,10.9,37c2.3,8,4,16.1,6.2,24.1c1,3.6,2.9,7,3.6,10.7
			C484.3,363.8,484.5,368.4,484.8,373z M477.5,380.9c0-2,0.1-4.1-0.1-6.1c-0.1-0.8-0.6-2.1-1.2-2.3c-0.8-0.3-2,0.2-2.8,0.6
			c-0.5,0.2-0.9,0.9-1.3,1.4c-2.2,2.7-4.2,5.5-6.6,7.9c-4.7,4.7-11,4-16.8,3.7c-6.7-0.3-7.9,0-11.1,5.8c-0.6,1.1-1.3,2.2-2,3.3
			c-2.4,4.2-6.3,6.4-10.9,6.5c-3.9,0.1-7.9-0.8-11.8-1.2c-3.3-0.4-5.6,1.4-6.7,4c-1.1,2.6-0.7,5.2,1.9,7.5
			c6.1,5.3,12,10.8,17.8,16.4c4.2,4.1,8.1,8.7,12.1,13c1.9,2,3.3,2.4,5.5-0.1c6.9-8.4,15.3-14.2,26.7-14.2c3.6,0,5.4-1.5,5.6-5.1
			c0.6-13.7,1-27.4,1.6-41C477.4,380.9,477.4,380.9,477.5,380.9z M472.1,365.5c2.5-2,2.8-4.2,2.4-7.1c-1.7-12.2-4.7-24.1-8.5-35.8
			c-3.8-11.9-7.4-23.9-11-35.8c-1.3-4.2-3-8.1-7.3-10.1c-0.7-0.3-1-1.3-1.5-2c-3.7-5.6-4.5-12-5.5-18.5c-0.5-3.1-2-4.1-4.9-3.3
			c-1,0.3-2,0.8-3.1,1c-2.2,0.6-3.3,1.8-2.7,4.2c1.4,5.9,2.6,11.8,4.3,17.6c1.9,6.3,4.4,12.4,6.4,18.6c4.6,14.6,9.1,29.2,13.4,43.9
			c1.7,5.7,2.8,11.5,4.2,17.3c1.4,5.8,3,11.6,4.7,18.2C466.5,370.4,469.2,367.8,472.1,365.5z M463.5,253.5c0.9-5.8,0.4-12-3.5-17
			c-2.4-3.1-3.5-6.2-3.8-10.2c-0.8-8.7-6.1-14.5-13.8-18.1c-1.1-0.5-2.6-2.1-2.5-3.1c0.4-4-2.1-6-4.8-8.2c-4-3.1-8.7-2.6-13.3-3
			c-1,0-2-0.3-2.9-0.1c-1.8,0.4-4.8,0.5-5.1,1.5c-0.6,1.9,0.2,4.3,0.5,6.4c0.1,0.5,0.6,0.9,0.9,1.3c3.6,5.3,7.4,10.2,13.6,13
			c3.5,1.6,3.8,4.2,1.5,7.5c-2,2.8-4.2,5.5-6,8.4c-2,3.3-4.2,6.6-5.5,10.2c-1.7,4.5,0.7,7.5,5.4,7.6c6,0.1,10.5-3.1,15-6.7
			c1.4-1.2,3.7-2.1,5.4-1.9c2.3,0.3,2.9,2.5,3.4,4.9c1.4,7.7,3.2,15.4,5,23.1c0.2,1,1.4,2.3,2.2,2.4c0.9,0.1,2.4-0.9,2.7-1.7
			C459.9,264.3,462.6,259,463.5,253.5z M458.8,377.6c0.6-0.1,1.3-1.7,1.2-2.5c-2-9.9-4.1-19.8-6.3-29.7c-0.7-2.9-1.6-5.8-2.5-8.7
			c-4.2-13.9-8.3-27.9-12.5-41.8c-3.8-12.3-7.8-24.4-11.5-36.7c-0.5-1.8-1.2-2.1-2.9-2c-2.6,0.2-5.2,0.1-7.7-0.2
			c-2.7-0.3-5.9-3.5-5.7-6.2c0.4-5.5,0.8-11,2.2-16.3c1.2-4.2,3.9-8,6.1-12.3c-0.2-0.1-0.7-0.4-1.1-0.8
			c-5.5-5.4-11.6-10.4-13.5-18.4c-0.9-3.7-3-7.7-0.1-11.1c2.1-2.4,1.9-4.3,0.7-6.7c-0.6-1.2-1.2-2.3-1.6-3.5
			c-2.9-8.6-5.6-17.2-8.6-25.7c-1.4-3.9-3.4-7.6-5.2-11.6c-3.1,3.3-5.9,6.3-8.8,9.3c2.5,1.6,4.9,3,7.1,4.7
			c7.1,5.9,9.4,14.5,12.7,22.6c1,2.3-0.2,3.9-2.7,4c-2.5,0.1-5.1-0.3-7.6-0.6c-3.5-0.4-7-1.4-10.5-1.4c-4.5,0-5.1,1.1-4.7,5.5
			c0.1,1.3,0.3,2.6,0.7,3.8c1.4,4.9,3.1,9.7,4.3,14.6c4.8,19.5,9.6,39,14.3,58.5c0.9,3.7,3,5.6,6.7,6.3c6.1,1.2,9.6,4.8,9.9,10.9
			c0.3,5.5-0.2,11-0.7,16.4c-0.5,5.1,1.1,6.9,5.9,8c6.8,1.5,13.3,3.9,15.5,11.8c1.5,5-0.3,12-4.3,15.1c-2.5,2-5.6,3.3-8.1,5.2
			c-1.2,0.9-2.6,2.7-2.4,3.9c0.4,3.5,1.3,6.9,2.4,10.2c1.9,5.6,3.5,10.9-0.7,16.2c-0.9,1.1-1.1,3.1-0.9,4.6c1.4,7.5,3.1,15,4.8,23.4
			c2.4-1.4,4.2-1.9,5.2-3c2.3-2.5,4.2-5.5,6.5-8c6.2-6.7,7.1-8.9,16.1-6.5C452.9,379.3,456,378.2,458.8,377.6z M419.8,329.2
			c2.9-1.5,5.4-3.9,5.2-7.3c-0.3-3.5-2.6-6.1-6-7.4c-1.3-0.5-2.7-1.1-4-1c-5.2,0.4-10.4,1-15.6,1.5c-0.7,0.1-1.5,0.1-2.1-0.2
			c-4.2-1.6-4.7-4.4-2.4-8.4c2.6-4.3,5.1-8.8,6.8-13.5c1.1-3.2,1.1-7,0.9-10.5c-0.3-3.4-2.2-4.6-5.5-3.6c-3.5,1-7,2.3-10.2,4.1
			c-8.6,4.8-15.3,11.8-21.8,19.2c-1.4,1.6-3.5,2.7-5.4,3.5c-3.4,1.4-6.8,2.6-10.4,3.5c-9.3,2.3-18.6,4.6-27.9,6.6
			c-3.3,0.7-7-0.1-10.3,0.5c-4,0.8-6-1.6-8.3-3.9c-0.4-0.4,0.1-2.8,0.5-2.9c2.5-0.6,5-0.9,7.6-1.1c2.8-0.2,5.7,0.1,8.4-0.4
			c8.8-1.7,17.6-3.4,26.2-5.6c5.8-1.5,11.6-3.4,15.9-8c4.7-5,9.1-10.3,13.6-15.5c0.8-0.9,1.3-2.3,1.6-3.5c0.8-3.9,1.8-7.8,2.2-11.8
			c0.8-6.9,1.2-13.7-5.7-18.3c-1.9-1.3-3.8-3.5-5.9-2c-1,0.7-0.8,3.8-0.5,5.7c0.9,6.1,0.7,6.5-5.2,8.1c-0.7,0.2-1.4,0.6-2.1,0.8
			c-6.6,1.8-13.2,4.5-19.9,5.2c-10.3,1.1-20.7,1.2-31,0.9c-7.5-0.3-14.9-1.7-22.3-3.1c-7.3-1.4-13.5-5.4-19.9-9.1
			c-9.9-5.7-19.5-11.9-27.7-19.9c-0.6-0.6-1.6-1.1-2.5-1.3c-5.8-1.6-11.7-2.8-17.5-4.6c-2.8-0.8-5.5-2.4-8.1-3.9
			c-0.5-0.3-0.8-1.4-0.8-2.2c0-0.3,1.2-0.7,1.9-0.7c2.4,0.1,4.7,0.5,7.1,0.6c9.1,0.7,17.6-1,24.8-7.2c1.1-0.9,3.1-2.1,4-1.7
			c1,0.4,1.8,2.5,1.9,3.9c0.1,1.2-0.8,2.8-1.6,3.8c-3.5,4.1-3.5,9.4,0.4,13.1c2.5,2.4,5.3,4.4,8,6.6c1.9,1.5,3.4,1.4,5.3-0.4
			c4.6-4.2,9.2-8.4,15.3-10.6c9-3.3,17.3,1.5,18.1,11c0.4,4.3,0.4,8.6,0.2,12.9c-0.1,2.6,0.4,3.8,3.2,3.9c4.3,0.2,8.6,0.7,12.9,1.2
			c14.6,1.5,28.8-0.6,42.7-5.1c2.2-0.7,3.1-1.9,3.2-4.2c0-14.1-1.9-27.8-9.2-40.2c-5.7-9.7-11.6-10.2-22.4-7.9
			c-4.6,1-9,2.8-13.6,3.9c-4.8,1.2-9.6,1.4-14.4-0.2c-4.3-1.5-8.5-3.1-12.7-4.6c-7.5-2.7-14.9-5.7-22.6-8c-4.6-1.3-9.5-1.5-14.3-2.2
			c-1.2-0.2-2.3-0.7-3.4-1c0.4-1.3,0.4-2.9,1.2-3.8c3-3.2,7.2-3.5,11.1-2.7c3.1,0.7,3.9-0.3,4.6-3.1c1.2-4.7,2.6-9.3,4.3-13.8
			c1.9-4.9,1.2-6.5-4.2-7.5c-0.7-0.1-1.5-0.2-2.2-0.3c-10.7-1.2-20.8,1.4-30.8,4.8c-8.2,2.8-15.2,7.5-20.8,14.3
			c-2.1,2.5-5.1,4.5-7.9,6.3c-6.3,3.9-13.5,6.7-18.9,11.6c-13.8,12.4-25.9,26.3-33.4,43.6c-0.7,1.5-1.5,3-2.2,4.5
			c0.2,0.2,0.4,0.4,0.7,0.6c2.5-0.6,5.1-1,7.4-1.9c5.5-2.3,10.7-1.4,14.7,2.6c4.5,4.5,8.5,9.6,12.4,14.7c3.7,4.8,5.3,10.5,4.9,16.5
			c-0.8,13.1-5.6,24.7-15.4,33.6c-7.2,6.5-15.6,11.2-26,8.7c-6.6-1.5-13.1-3.4-19.5-5.4c-2-0.6-2.8-0.3-3.3,1.6
			c-0.2,0.8-0.3,1.7-0.4,2.6c-1.4,11.2-2.9,22.5-4.1,33.7c-0.4,3.4,0.1,6.8,0.1,10.3c0,2,0.5,4.4-0.5,5.8c-2.5,3.5-5.2,7.1-8.6,9.5
			c-7.1,5-14.4,9.8-23.1,12.1c-9.2,2.4-18,2.1-26.9-1.6c-6.9-2.9-12.6-7.5-18-12.4c-2.9-2.6-5.2-5.9-7.5-9.1c-1-1.4-1.3-3.2-2.2-4.7
			c-1.3-2.3-2.6-5.1-5.8-4.8c-3.4,0.3-6.4,1.7-8,5.2c-3.4,7.1-2.7,14.3-2,21.8c1.4,14.9,8.7,26.8,18.3,37.3
			c6.3,6.9,13.7,12.3,22.6,15.8c9.4,3.7,18.8,7.1,29,7.5c8.8,0.4,17.6,0,26.4-0.7c14.5-1.2,27.3-6.7,40.3-12.2
			c2.3-1,3.1-2.5,2.4-4.9c-0.5-1.8-0.7-3.6-0.9-5.4c-0.3-2.2,0-4.2,2.7-4.7c2.6-0.5,3.7,1,4.3,3.2c0.3,1.1,0.8,2.2,1.3,3.3
			c2,4,4,8.1,6.2,12.1c3.5,6.5,2.2,12.4-1.8,18.2c-1.9,2.7-3.7,5.6-5.3,8.5c-2.6,4.6-2.1,6.3,2.6,8.8c9.1,4.8,19,7.2,29.1,6.2
			c10.2-1,19.4,2.4,28.8,4.4c7.8,1.7,15.3,5.1,23,7.3c9.6,2.7,19.5,3.6,29.5,2.4c5.8-0.7,11.4-2.1,17.1-3.4c1.6-0.4,3.3-1.2,4.7-2.2
			c4.4-3.1,6.2-8.2-1.4-10.4c-7-2.1-14.1-3.8-21.2-5.6c-2.2-0.5-4-1.4-3.9-3.9c0.1-2.7,2.7-2.4,4.4-2.8c0.7-0.2,1.5,0.1,2.2,0.3
			c3.3,0.7,6.6,1.9,9.8,1.9c4.4,0,8.9-0.7,13.3-1.6c1.2-0.3,2.5-2.1,2.9-3.4c0.2-0.8-1.3-2.3-2.3-3c-1.2-0.8-2.7-1.3-4.1-1.8
			c-4.9-1.5-10-1.8-15.1-0.9c-2.4,0.4-4.7,0.4-5-2.9c-0.2-2.2,1.9-4,4.7-3.8c4.4,0.3,8.8,0.8,13.2,1.1c1.1,0.1,2.2-0.3,3.2-0.4
			c-0.3-1.2-0.4-2.7-1.1-3.5c-0.9-0.9-2.4-1.7-3.6-1.8c-4.6-0.2-9.3-0.4-13.9-0.1c-3.5,0.1-6.8,1-8.7,4.7c-0.4,0.9-1.4,1.9-2.3,2.2
			c-1.6,0.5-3.5,0.9-5,0.4c-2-0.7-2.3-2.7-1.4-4.7c0.4-1,0.8-2,1.2-3c4.9-11.9,4.5-22.9-4.9-32.7c-2.2-2.2-4-4.8-5.8-7.4
			c-1.5-2.3-0.2-5.6,1.9-5.1c2.5,0.6,5.4,1.5,7.2,3.2c5.8,5.1,10.6,11.1,12.8,18.7c0.6,2.2,2,2.7,3.9,1.9
			c10.5-4.5,21.2-8.6,31.4-13.8c5.6-2.8,10.6-7,15.3-11.2c3.6-3.2,6.3-7.3,9.4-11.1c1.3-1.6,0.9-2.9-1.4-2.9c-2.2,0-4.5,0.1-6.7,0.5
			c-5.7,1.1-10.8-0.7-16-2.4c-0.5-0.2-1.2-1.2-1.1-1.7c0.2-0.8,0.8-1.9,1.5-2.2c1.9-0.7,3.9-1.3,6-1.4c9.2-0.3,18.3-2,26.9-4.9
			c10-3.4,19.7-7.5,29.5-11.4c5.9-2.4,5.8-2.4,9.6,2.5c7,8.9,16.2,12.2,27.2,10.3c1.1-0.2,2.9-1.7,2.9-2.8c0.5-7.1-0.9-14-4.9-20
			c-2.4-3.6-1.2-8.2,2.7-9.9C411.9,333.2,415.9,331.3,419.8,329.2z M419.9,184.7c6.5,1,6.6,0.7,4.6-5.2c-2.8-8.4-5.2-16.9-8.1-25.2
			c-3.3-9.9-6.9-19.7-10.5-29.5c-1.7-4.7-4-9.1-5.6-13.8c-0.8-2.4-2.2-3.1-4.3-2.8c-2.8,0.3-5.5,0.9-8.3,1.3c-3,0.4-3.8,2-3,4.8
			c1,3.5,1.7,7.1,2.9,10.6c3.6,10.8,7.3,21.6,11,32.4c3,8.8,6,17.5,9,26.3c0.9,2.7,2.4,3.7,5.4,2.5
			C415.1,185.2,417.6,185.1,419.9,184.7z M419.4,395.4c-1.6-7.9-2.9-14.5-4.4-21c-0.1-0.4-2-0.9-2.5-0.6c-4.1,2.3-8.5,2.8-13.1,2.4
			c-2.3-0.2-3.1,0.9-2.7,3.1c1,4.7,1.9,9.5,2.9,14.2c0.3,1.5,0.9,2.9,1.6,5.3C406.6,393.5,412.1,391.2,419.4,395.4z M401.5,100.2
			c1.6-0.1,3.3-0.3,2.9-2.5c-0.7-4.2-1.3-8.4-2.1-12.6c-0.5-3-1.1-6-1.8-9c-1.2-5-2.7-9.9-4.2-14.8c-0.6-2-1.2-3.9-1.9-5.9
			c-0.8-2.7-2.3-5.2-5.3-5.5c-6-0.6-12.1-1.5-18-0.8c-7.8,1-15.3,3.6-23,5.2c-14.2,3-27.1,9.2-39.8,16.1c-1.7,0.9-5,1.1-4.1,4
			c0.9,2.7,3.5,0.7,5.4,0.9c1.9,0.2,4.3,0.5,5.3,1.8c1,1.2,0.5,3.7,0.6,6c1.6-0.8,3.8-2.2,6.2-3.1c8.6-3.1,17.3-6,25.9-9.2
			c14.2-5.3,28.9-7.9,43.7-10.1c1-0.1,2.1,0.8,3.1,1.2c-0.9,0.5-1.8,1.3-2.8,1.5c-6.7,1.4-13.6,2.5-20.3,4.1
			c-7.9,2-15.9,4.1-23.6,6.7c-9.2,3.2-18.3,7-27.3,10.8c-2.7,1.2-6.3,2.8-7.2,5.1c-1.7,4.6-2,9.9-2.6,14.9c-0.1,0.6,1.3,2,1.9,1.9
			c3.7-0.4,7.6-0.6,11.1-1.8c10-3.4,19.8-7.2,29.6-11c14.2-5.4,29.1-7.9,44.1-10.2c0.9-0.1,2-0.2,2.9,0c0.5,0.1,1,0.8,1.1,1.2
			c0,0,0,0,0,0c0,0.3-0.5,0.9-0.9,1c-0.8,0.3-1.7,0.2-2.5,0.4c-10.3,2-20.7,3.4-30.7,6.3c-11.9,3.4-23.4,8-35.7,12.3
			c6.9,1.6,12.7,0.9,17.5-3.4c5.1,2,3.4,6.3,3.4,9.8c0.6,0.1,0.9,0.4,1.2,0.3c2.1-0.7,4.3-1.5,6.4-2.3
			C373.8,105.2,387.4,101.4,401.5,100.2z M392,270.6c0.6-0.3,1.2-1.5,1.1-2.2c-0.3-1.8-0.9-3.5-1.4-5.3c-2.8-10.6-6.2-21.1-8.4-31.9
			c-3-14.5-5.9-28.9-11.9-42.5c-0.4-0.9-1.2-1.6-1.8-2.4c-0.8,0.7-1.9,1.2-2.3,2c-2,4.3-4,8.6-5.6,13c-1.7,4.7-2.6,9.4-0.7,14.5
			c1.4,3.7,2,7.7,3,11.5c0.2,0.9,0.7,2,1.3,2.5c4.1,2.9,8.3,5.7,12.4,8.6c1,0.7,2,1.6,2.9,2.5c4.8,5.3,5.9,11.8,5.9,18.7
			c0,4-0.3,8.1-0.5,12.9C388.4,271.8,390.3,271.3,392,270.6z M391.5,175.7c-1.3-2.9-2.1-5-3-7c-3.5-7.1-8.9-11-17-10
			c-3,0.3-3.9-2-4.3-3.9c-0.2-1.3,1-3.3,2.1-4.4c2.5-2.4,5.6-4.3,8.1-6.8c1.3-1.3,1.9-3.4,2.8-5.2c-1.7-0.5-3.4-1.4-5.1-1.4
			c-6.2-0.2-11.7-2-17.1-5.1c-4.3-2.4-9.2-3-13.8,0.1c-0.7,0.5-1.6,0.8-2.4,0.9c-0.9,0.1-2.2,0.1-2.6-0.4c-0.4-0.5-0.3-1.8,0-2.6
			c1-2.5,2.5-4.8,3.3-7.4c0.9-3.2,1.3-6.5,2-10.3c-2,0.3-2.9,0.5-3.9,0.6c-5.9,0.5-11.8,1-17.7,1.3c-5.4,0.2-10.3,1.2-13.5,6
			c-0.6,0.9-1.6,1.6-3,2.8c-0.8-2.2-1.6-3.7-1.8-5.3c-0.9-9.3-0.8-18.5,1.7-27.6c1.1-4.2,0.5-5.1-3.8-3.9
			c-13.1,3.7-24.6,9.5-28.7,24c-0.8,2.7-2.8,3.3-5.3,2.2c-5-2.2-9.9-4.8-15.2-6.3c-7.5-2-15.2-2.2-22.5,1.1
			c-1.3,0.5-2.2,1.8-3.3,2.7c1,0.9,1.9,2,2.9,2.8c4.3,3.1,8.7,6,12.9,9.2c0.8,0.6,1.5,1.6,2,2.5c1.9,3.4,0.3,6.4-3.6,6.5
			c-3.6,0.1-7.2-0.4-10.7,0.1c-3.1,0.5-6.1,1.9-8.9,3.4c-2.4,1.3-4.5,3.3-6.8,4.9c-2.7,1.8-5.5,3.5-8.3,5.4c0.1,0.2,0.2,0.6,0.4,0.7
			c4.6,3.9,10.2,5.9,15.9,7.4c0.8,0.2,1.7-0.1,2.5-0.3c9.4-2.6,19-4,28.7-3.7c9.7,0.3,18.9-1,27.3-6.1c2.5-1.5,5.1-2.9,7.6-4.4
			c4.8-2.9,10.4-3.6,15.4-2.1c9.1,2.8,18.3,6.2,25.5,12.9c3.2,3,6.5,3.7,10.6,3.4c8-0.5,14.6,2.3,19.2,9c2.7,3.9,4.6,8,4.8,12.9
			c0.1,1.8,0.3,3.6,3.2,3.1c4.5-0.8,9.2-1,13.8-1.4C384.8,175.9,387.7,175.9,391.5,175.7z M383.1,131.3c1.8,0.1,2.5-0.9,2-2.7
			c-1.6-5.1-3-10.3-4.7-15.4c-0.2-0.7-1.6-1.6-2.4-1.5c-9,1.2-17.2,4.6-25.2,10.5c4,1.8,7.9,2.7,10.6,5
			C369.4,132.2,376.4,130.9,383.1,131.3z M376.6,445.6c3.6-2.1,4.7-5.8,3.3-9.5c-1.2-3.2-3.3-4.2-8-3.4c-2.2,0.4-4.4,1-6.4,2
			c-2.5,1.2-4.2-0.3-5.8-1.6c-0.4-0.3,0.7-3.1,1.8-4.1c1.4-1.2,3.4-1.7,5.1-2.5c3.6-1.8,3.9-4.7,0.4-6.8c-1.2-0.7-3.1-0.8-4.6-0.5
			c-1.8,0.3-3.4,1.4-5.2,1.8c-1,0.2-3,0-3.1-0.3c-0.3-1.2-0.4-3.1,0.3-3.7c1.4-1.4,3.4-2.1,5.2-3.1c1.4-0.7,2.8-1.3,4.2-1.9
			c-0.1-0.4-0.1-0.9-0.2-1.3c-1.6-0.2-3.1-0.5-4.6-0.5c-8.9,0.2-17.2,2.8-25.3,6c-3.4,1.3-7,2.4-10.5,3.1c-2.8,0.5-4.5-1.6-3.2-4.2
			c1.1-2.3,0.5-3.6-1.2-5c-1.9-1.5-3.8-1.9-5.8-0.2c-0.7,0.6-1.7,0.9-2.6,1.3c-8.9,4.3-17.9,8.5-26.8,12.8c-1.6,0.8-2.9,2.2-4.8,3.6
			c3.7,1,6.7,1.4,9.5,2.5c2.9,1.2,5.7,2.7,8.1,4.7c2.2,1.9,4.3,4.3,5.4,6.9c2.6,6.4,5.2,8.7,12.1,9c2.7,0.1,5.4-0.1,8.1,0
			c6.9,0.3,13.8,1.1,20.7,0.8c8.9-0.4,17.8-1.6,26.6-2.8C371.7,448.3,374.3,447,376.6,445.6z M376.9,41.5c3.4,0.3,3.7-0.3,2.9-3.7
			c-1.3-5.5-2.8-11.1-3.9-16.6c-0.5-2.5-1.7-4.3-4.1-4.9c-5.1-1.2-10.3-3-15.5-3c-18.9,0.1-35.2,7.3-49.1,20.1
			c-1,0.9-1.3,2.8-1.4,4.2c-0.3,3.1,0.3,6.3-0.4,9.3c-1.1,5.1,0,9.9,0.6,15.4c1.2-0.7,1.7-0.9,2.1-1.2c7.3-6.3,16.4-9.3,25-13.3
			c2.2-1,4.3-2.1,6.6-2.6C352,42.7,364.3,40.2,376.9,41.5z M358.8,186.1c1.1-9.2-2.2-17-9.9-22.5c-2.8-2-5.9-3.7-9.6-2.3
			s-5.2,4.2-4.8,8.1c0.1,1.1-0.5,2.3-0.6,3.5c-0.1,1.5,0,3.1,0,5.1c1.6-0.4,2.6-0.6,3.6-1c5.1-1.9,9.5,0.7,10.4,6
			c0.6,3.5-0.1,6.7-2.1,9.5c-1.2,1.6-0.8,2.8,0.9,3.6c1.1,0.5,2.2,1,3.1,1.7c2.2,1.6,4.1,1.1,5.1-1.1
			C356.5,193.4,358.3,189.8,358.8,186.1z M328.3,166.5c0.1-5-1.6-9.2-5.3-12.8c-6-5.7-13.2-8-21.3-7.8c-8.2,0.2-15.1,2.7-20.8,9.3
			c-6.5,7.4-11.3,15.1-12.5,25c-0.5,4.5,0.8,6.1,5,6.1c0.9-5.2,4-8.9,8.4-11.2c5.7-2.9,13.1-1.5,14.9,6.1c0.8,3.6,0.5,7-1.8,10.1
			c-2,2.8-1.8,3.4,1.4,4.6c8.5,3.2,16.4,1.4,23.7-3.2c1.4-0.8,2.5-2.5,3.2-4C326.2,181.7,328.2,174.2,328.3,166.5z M284.1,251.4
			c4,1.6,4.6,0.9,4.6-3.5c-0.2-1.5-0.4-3-0.5-4.5c-0.1-1.6-0.1-3.2-0.3-4.8c-0.4-3.8-3.2-6.1-7.1-5.8c-4.8,0.4-8.5,2.9-11.7,6.3
			c-2.2,2.3-2.3,3.9,0.5,5.4C274.3,247,279.1,249.4,284.1,251.4z M192.4,175c3.1-1.9,6-4.1,7.9-8.1c-1.7-0.1-3-0.3-4.2-0.2
			c-13,0.6-25.8,2.9-37.7,8.1c-4.4,1.9-7.8,6.2-11.4,9.7c-1.5,1.4-1.1,3,1.2,3.9c3.9,1.5,7.9,3.1,11.6,4.9c2.9,1.4,5.1,1.7,7.1-1.4
			c0.8-1.3,2.2-2.4,3.5-3.2C177.8,184,185.1,179.5,192.4,175z M169.7,292.1c2-6.2,4.5-12.1,4.4-18.8c-0.3-2.4-0.5-4.9-0.9-7.4
			c-0.8-5.2-3.7-8.4-8.4-11c-6.2-3.3-12.5-3.1-18.8-1.7c-2.9,0.6-6.3,2.4-8,4.8c-2.2,2.9-3,6.8-4.2,10.4c-2.4,7.3-4.4,14.7-7,21.9
			c-1.7,4.6-0.4,8.3,2.2,12c5,7.1,21.1,7,27.8,4C163,303.4,167.4,299,169.7,292.1z M154.8,206.4c-0.2-0.3-0.4-0.6-0.6-0.8
			c-1.6,0.4-3.3,0.7-4.8,1.3c-5.3,2.4-10.5,5-15.8,7.5c-9.7,4.4-16.8,11.6-21.7,20.9c-2.2,4.2-0.9,6.3,3.8,6.6
			c4.6,0.3,9.2,0.9,13.8,1.1c1,0,2.3-0.7,3-1.5c0.8-0.9,1-2.4,1.5-3.5c3.5-8.2,7.8-16,13.7-22.9
			C150.2,212.2,152.5,209.3,154.8,206.4z M120.8,268.3c0.3-1.1,0.7-2.1,1-3.2c-0.2-0.2-0.5-0.4-0.7-0.7c-1.5,0.9-3.1,1.6-4.5,2.6
			c-9.7,6.8-17.9,15.1-25.2,24.4c-1.5,1.9-3.2,4-3.9,6.2c-2.8,8.6-1.7,8.9,6,10.1c1,0.2,2.1,0,3.2,0c4.1,0.2,8.2,0.2,12.2,0.8
			c2.4,0.3,3.1-0.3,3.1-2.6c0.2-4.2,0-8.5,1-12.5C115.4,285,118.3,276.7,120.8,268.3z M107.1,351.6c2.5-7.1,0-14-0.1-22
			c-1.7,1.1-2.9,1.5-3.6,2.3c-3.2,3.6-6.5,7.1-9.4,11c-2.3,3.1-1.6,5.5,2,7.3c2.2,1.2,4.5,2.1,6.7,3.3
			C105,354.7,106.1,354.2,107.1,351.6z M89.6,372c2.1-1.2,2-2.7-0.3-3.7c-2.9-1.3-6-2.4-9.1-3.3c-3.9-1.2-5.3-0.2-6,3.9
			c-0.2,1-0.2,1.9-0.2,2.8c0.2,2-0.7,4.5,2.8,4.3C81.4,375.8,85.6,374.3,89.6,372z M48.1,368.7c0.1-3.5-1.4-6.8-3.6-7.9
			c-0.8-0.4-1.9-0.3-2.7-0.1c-0.4,0.1-0.7,1.3-0.6,1.9C41.5,365.3,44.9,368.2,48.1,368.7z"/>
		<path class="st2" d="M477.4,374.8c0.2,2,0.1,4.1,0.1,6.1c0,0-0.1,0-0.2,0c-0.5,13.7-1,27.4-1.6,41c-0.2,3.6-2,5.1-5.6,5.1
			c-11.4,0-19.8,5.8-26.7,14.2c-2.1,2.6-3.6,2.1-5.5,0.1c-4-4.3-7.9-8.8-12.1-13c-5.8-5.6-11.7-11.2-17.8-16.4
			c-2.6-2.3-3-4.8-1.9-7.5c1.1-2.7,3.4-4.4,6.7-4c3.9,0.4,7.9,1.3,11.8,1.2c4.6-0.2,8.4-2.4,10.9-6.5c0.7-1.1,1.4-2.2,2-3.3
			c3.2-5.8,4.4-6,11.1-5.8c5.8,0.2,12,0.9,16.8-3.7c2.4-2.4,4.4-5.3,6.6-7.9c0.4-0.5,0.8-1.2,1.3-1.4c0.9-0.4,2-0.8,2.8-0.6
			C476.8,372.7,477.4,373.9,477.4,374.8z"/>
		<path class="st3" d="M474.5,358.3c0.4,3,0.1,5.2-2.4,7.1c-2.9,2.3-5.6,5-9.1,8.2c-1.7-6.6-3.2-12.4-4.7-18.2
			c-1.4-5.7-2.5-11.6-4.2-17.3c-4.3-14.7-8.8-29.3-13.4-43.9c-2-6.3-4.5-12.3-6.4-18.6c-1.7-5.8-2.8-11.7-4.3-17.6
			c-0.6-2.4,0.5-3.6,2.7-4.2c1-0.3,2-0.8,3.1-1c3-0.8,4.5,0.2,4.9,3.3c0.9,6.4,1.8,12.9,5.5,18.5c0.5,0.7,0.8,1.7,1.5,2
			c4.3,2.1,6,5.9,7.3,10.1c3.7,12,7.2,23.9,11,35.8C469.8,334.3,472.8,346.1,474.5,358.3z"/>
		<path class="st4" d="M460.1,236.5c3.8,5,4.4,11.3,3.5,17c-0.9,5.5-3.6,10.8-5.7,16.1c-0.4,0.8-1.9,1.8-2.7,1.7
			c-0.8-0.1-2-1.4-2.2-2.4c-1.8-7.7-3.5-15.3-5-23.1c-0.4-2.4-1.1-4.6-3.4-4.9c-1.7-0.2-4,0.7-5.4,1.9c-4.4,3.6-9,6.8-15,6.7
			c-4.8-0.1-7.1-3-5.4-7.6c1.3-3.6,3.5-6.9,5.5-10.2c1.8-2.9,4-5.6,6-8.4c2.3-3.3,2-5.9-1.5-7.5c-6.2-2.8-10.1-7.6-13.6-13
			c-0.3-0.4-0.8-0.9-0.9-1.3c-0.3-2.2-1.2-4.6-0.5-6.4c0.3-1,3.3-1.1,5.1-1.5c0.9-0.2,1.9,0.1,2.9,0.1c4.6,0.4,9.3-0.1,13.3,3
			c2.7,2.1,5.2,4.1,4.8,8.2c-0.1,1,1.4,2.6,2.5,3.1c7.8,3.7,13.1,9.4,13.8,18.1C456.6,230.3,457.7,233.4,460.1,236.5z"/>
		<path class="st3" d="M459.9,375.2c0.2,0.8-0.6,2.4-1.2,2.5c-2.8,0.6-5.9,1.7-8.4,1c-9-2.4-9.9-0.3-16.1,6.5
			c-2.3,2.5-4.1,5.5-6.5,8c-1.1,1.2-2.8,1.7-5.2,3c-1.7-8.4-3.4-15.9-4.8-23.4c-0.3-1.4,0-3.5,0.9-4.6c4.2-5.3,2.6-10.7,0.7-16.2
			c-1.2-3.3-2-6.8-2.4-10.2c-0.1-1.2,1.3-3,2.4-3.9c2.6-1.9,5.6-3.2,8.1-5.2c4-3.1,5.7-10.1,4.3-15.1c-2.3-7.8-8.7-10.2-15.5-11.8
			c-4.8-1.1-6.4-2.9-5.9-8c0.5-5.5,1-11,0.7-16.4c-0.3-6.2-3.8-9.8-9.9-10.9c-3.7-0.7-5.8-2.6-6.7-6.3c-4.7-19.5-9.5-39-14.3-58.5
			c-1.2-4.9-2.9-9.7-4.3-14.6c-0.4-1.2-0.6-2.5-0.7-3.8c-0.4-4.4,0.3-5.4,4.7-5.5c3.5,0,7,1,10.5,1.4c2.5,0.3,5.1,0.7,7.6,0.6
			c2.4,0,3.6-1.6,2.7-4c-3.3-8.1-5.5-16.7-12.7-22.6c-2.1-1.7-4.6-3.1-7.1-4.7c2.9-3.1,5.7-6,8.8-9.3c1.8,4,3.8,7.7,5.2,11.6
			c3,8.5,5.7,17.2,8.6,25.7c0.4,1.2,1,2.4,1.6,3.5c1.2,2.4,1.4,4.2-0.7,6.7c-2.9,3.4-0.7,7.4,0.1,11.1c1.9,8,8,13,13.5,18.4
			c0.4,0.4,0.9,0.6,1.1,0.8c-2.2,4.3-5,8.1-6.1,12.3c-1.4,5.2-1.8,10.8-2.2,16.3c-0.2,2.7,3,5.9,5.7,6.2c2.5,0.3,5.1,0.3,7.7,0.2
			c1.7-0.1,2.4,0.2,2.9,2c3.8,12.3,7.8,24.4,11.5,36.7c4.3,13.9,8.4,27.9,12.5,41.8c0.9,2.9,1.8,5.8,2.5,8.7
			C455.8,355.3,457.9,365.2,459.9,375.2z"/>
		<path class="st4" d="M425,322c0.2,3.4-2.3,5.8-5.2,7.3c-3.9,2.1-7.9,3.9-12,5.7c-3.9,1.7-5.1,6.3-2.7,9.9c4,6,5.4,12.9,4.9,20
			c-0.1,1-1.8,2.6-2.9,2.8c-11,1.8-20.3-1.4-27.2-10.3c-3.8-4.9-3.7-4.8-9.6-2.5c-9.8,3.9-19.6,8-29.5,11.4
			c-8.7,3-17.7,4.6-26.9,4.9c-2,0-4.1,0.7-6,1.4c-0.7,0.3-1.3,1.3-1.5,2.2c-0.1,0.5,0.6,1.6,1.1,1.7c5.2,1.7,10.3,3.5,16,2.4
			c2.2-0.4,4.5-0.5,6.7-0.5c2.3,0,2.7,1.3,1.4,2.9c-3,3.8-5.8,7.9-9.4,11.1c-4.7,4.2-9.7,8.4-15.3,11.2
			c-10.2,5.1-20.9,9.3-31.4,13.8c-1.9,0.8-3.3,0.3-3.9-1.9c-2.2-7.6-7-13.6-12.8-18.7c-1.9-1.7-4.7-2.5-7.2-3.2
			c-2.1-0.5-3.5,2.8-1.9,5.1c1.7,2.6,3.6,5.2,5.8,7.4c9.5,9.8,9.8,20.8,4.9,32.7c-0.4,1-0.8,2-1.2,3c-0.8,2-0.5,4,1.4,4.7
			c1.5,0.5,3.4,0,5-0.4c0.9-0.3,1.8-1.3,2.3-2.2c1.8-3.6,5.1-4.5,8.7-4.7c4.6-0.2,9.2-0.1,13.9,0.1c1.3,0.1,2.8,0.8,3.6,1.8
			c0.8,0.8,0.8,2.3,1.1,3.5c-1.1,0.2-2.2,0.5-3.2,0.4c-4.4-0.3-8.8-0.9-13.2-1.1c-2.8-0.2-4.8,1.6-4.7,3.8c0.3,3.3,2.6,3.3,5,2.9
			c5.1-0.8,10.1-0.6,15.1,0.9c1.4,0.4,2.9,0.9,4.1,1.8c1,0.7,2.5,2.2,2.3,3c-0.4,1.4-1.7,3.2-2.9,3.4c-4.4,0.9-8.9,1.6-13.3,1.6
			c-3.3,0-6.6-1.2-9.8-1.9c-0.8-0.2-1.6-0.5-2.2-0.3c-1.8,0.4-4.3,0.1-4.4,2.8c-0.1,2.5,1.7,3.4,3.9,3.9c7.1,1.8,14.2,3.5,21.2,5.6
			c7.5,2.2,5.7,7.3,1.4,10.4c-1.4,1-3,1.8-4.7,2.2c-5.7,1.3-11.4,2.7-17.1,3.4c-9.9,1.2-19.9,0.4-29.5-2.4c-7.8-2.2-15.2-5.5-23-7.3
			c-9.4-2.1-18.6-5.5-28.8-4.4c-10.1,1-20-1.4-29.1-6.2c-4.7-2.5-5.2-4.2-2.6-8.8c1.6-2.9,3.4-5.8,5.3-8.5c4-5.8,5.3-11.7,1.8-18.2
			c-2.1-4-4.1-8-6.2-12.1c-0.5-1.1-1-2.1-1.3-3.3c-0.6-2.2-1.7-3.8-4.3-3.2c-2.7,0.5-3,2.5-2.7,4.7c0.3,1.8,0.4,3.7,0.9,5.4
			c0.7,2.4-0.1,3.9-2.4,4.9c-13,5.5-25.8,11.1-40.3,12.2c-8.9,0.7-17.6,1.1-26.4,0.7c-10.1-0.5-19.6-3.8-29-7.5
			c-8.9-3.5-16.3-8.9-22.6-15.8c-9.7-10.6-16.9-22.4-18.3-37.3c-0.7-7.6-1.4-14.8,2-21.8c1.7-3.5,4.6-4.8,8-5.2
			c3.2-0.3,4.5,2.5,5.8,4.8c0.8,1.5,1.2,3.3,2.2,4.7c2.3,3.2,4.6,6.5,7.5,9.1c5.4,4.9,11,9.5,18,12.4c8.9,3.7,17.7,3.9,26.9,1.6
			c8.7-2.2,16-7.1,23.1-12.1c3.4-2.4,6.1-6.1,8.6-9.5c1-1.4,0.5-3.8,0.5-5.8c0-3.4-0.4-6.9-0.1-10.3c1.2-11.3,2.7-22.5,4.1-33.7
			c0.1-0.9,0.2-1.7,0.4-2.6c0.4-1.8,1.3-2.2,3.3-1.6c6.4,2,13,3.9,19.5,5.4c10.4,2.4,18.8-2.2,26-8.7c9.7-8.9,14.6-20.5,15.4-33.6
			c0.4-5.9-1.2-11.7-4.9-16.5c-3.9-5.1-7.8-10.2-12.4-14.7c-4-4-9.2-4.9-14.7-2.6c-2.4,1-5,1.3-7.4,1.9c-0.2-0.2-0.5-0.4-0.7-0.6
			c0.7-1.5,1.5-3,2.2-4.5c7.6-17.3,19.7-31.2,33.4-43.6c5.4-4.9,12.6-7.6,18.9-11.6c2.8-1.8,5.8-3.8,7.9-6.3
			c5.6-6.8,12.6-11.5,20.8-14.3c10-3.4,20.1-6,30.8-4.8c0.8,0.1,1.5,0.2,2.2,0.3c5.3,1,6,2.6,4.2,7.5c-1.7,4.5-3.2,9.2-4.3,13.8
			c-0.7,2.7-1.5,3.8-4.6,3.1c-3.9-0.9-8.1-0.6-11.1,2.7c-0.8,0.9-0.8,2.5-1.2,3.8c1.2,0.3,2.3,0.8,3.4,1c4.8,0.7,9.7,0.9,14.3,2.2
			c7.6,2.3,15.1,5.3,22.6,8c4.2,1.5,8.5,3.1,12.7,4.6c4.7,1.6,9.6,1.4,14.4,0.2c4.6-1.1,9-2.9,13.6-3.9c10.9-2.4,16.7-1.8,22.4,7.9
			c7.3,12.4,9.3,26.1,9.2,40.2c0,2.3-1,3.5-3.2,4.2c-13.9,4.5-28.1,6.6-42.7,5.1c-4.3-0.4-8.6-1-12.9-1.2c-2.8-0.1-3.3-1.4-3.2-3.9
			c0.2-4.3,0.2-8.6-0.2-12.9c-0.9-9.5-9.1-14.2-18.1-11c-6.1,2.2-10.7,6.4-15.3,10.6c-2,1.8-3.5,1.9-5.3,0.4c-2.7-2.1-5.5-4.2-8-6.6
			c-3.9-3.7-3.9-9-0.4-13.1c0.9-1,1.7-2.5,1.6-3.8c-0.1-1.4-0.8-3.5-1.9-3.9c-0.9-0.4-2.9,0.7-4,1.7c-7.2,6.2-15.7,7.8-24.8,7.2
			c-2.4-0.2-4.7-0.5-7.1-0.6c-0.6,0-1.8,0.4-1.9,0.7c0,0.7,0.3,1.9,0.8,2.2c2.6,1.4,5.2,3,8.1,3.9c5.8,1.8,11.7,3,17.5,4.6
			c0.9,0.2,1.9,0.7,2.5,1.3c8.3,8,17.8,14.2,27.7,19.9c6.3,3.6,12.6,7.6,19.9,9.1c7.4,1.4,14.8,2.9,22.3,3.1
			c10.3,0.4,20.8,0.2,31-0.9c6.7-0.7,13.3-3.4,19.9-5.2c0.7-0.2,1.4-0.6,2.1-0.8c5.9-1.6,6-2,5.2-8.1c-0.3-1.9-0.5-4.9,0.5-5.7
			c2.1-1.5,3.9,0.8,5.9,2c6.9,4.6,6.5,11.4,5.7,18.3c-0.4,3.9-1.4,7.9-2.2,11.8c-0.3,1.2-0.8,2.5-1.6,3.5
			c-4.5,5.2-8.9,10.5-13.6,15.5c-4.3,4.6-10.1,6.5-15.9,8c-8.7,2.2-17.5,3.9-26.2,5.6c-2.7,0.5-5.6,0.2-8.4,0.4
			c-2.5,0.2-5.1,0.5-7.6,1.1c-0.4,0.1-0.9,2.5-0.5,2.9c2.2,2.2,4.3,4.7,8.3,3.9c3.3-0.7,7,0.1,10.3-0.5c9.4-1.9,18.7-4.2,27.9-6.6
			c3.5-0.9,7-2.1,10.4-3.5c2-0.8,4.1-2,5.4-3.5c6.4-7.3,13.2-14.3,21.8-19.2c3.1-1.8,6.7-3.1,10.2-4.1c3.3-0.9,5.2,0.2,5.5,3.6
			c0.3,3.5,0.3,7.3-0.9,10.5c-1.6,4.7-4.2,9.2-6.8,13.5c-2.4,4-1.9,6.8,2.4,8.4c0.6,0.3,1.4,0.2,2.1,0.2c5.2-0.5,10.4-1.1,15.6-1.5
			c1.3-0.1,2.8,0.5,4,1C422.4,315.9,424.7,318.5,425,322z M231.5,302.4c0.7-5.9-1.1-11.1-5.4-15.2c-7-6.7-23.4-4-26.1,9.1
			c-1.6,7.5,0.1,12.6,5.8,15.3c2.5,1.2,5.6,1.3,8.4,1.8c0-0.1,0-0.3,0.1-0.4c1,0,1.9,0,2.9,0C223.9,313.1,230.9,307.3,231.5,302.4z
			 M205.4,358.4c4-6.8-0.2-16.2-5.9-20.9c-5.7-4.7-12.3-4.7-18.9-5.2c-9.5-0.6-18.9,7.8-21.3,15.6c-1.5,4.7-1.2,9.4-0.5,14.1
			c0.7,4.9,2.7,8.8,7.5,10.9c2.1,0.9,4.2,1.8,6.1,3.1c9.1,5.7,28.7-1.6,30.9-12.4C203.7,361.8,204.4,360,205.4,358.4z"/>
		<path class="st3" d="M424.5,179.5c2,5.9,1.9,6.2-4.6,5.2c-2.3,0.4-4.7,0.4-6.8,1.3c-3,1.2-4.4,0.3-5.4-2.5c-3-8.8-6-17.5-9-26.3
			c-3.7-10.8-7.5-21.6-11-32.4c-1.2-3.5-1.9-7.1-2.9-10.6c-0.8-2.8,0-4.3,3-4.8c2.8-0.4,5.5-1,8.3-1.3c2.1-0.2,3.5,0.5,4.3,2.8
			c1.6,4.7,3.9,9.1,5.6,13.8c3.6,9.8,7.1,19.6,10.5,29.5C419.2,162.7,421.6,171.2,424.5,179.5z"/>
		<path class="st3" d="M415,374.4c1.5,6.5,2.8,13.1,4.4,21c-7.4-4.3-12.9-1.9-18.3,3.4c-0.7-2.3-1.2-3.8-1.6-5.3
			c-1-4.7-1.9-9.5-2.9-14.2c-0.5-2.2,0.3-3.4,2.7-3.1c4.6,0.5,9,0,13.1-2.4C413,373.5,414.9,374,415,374.4z"/>
		<path class="st5" d="M404.5,97.7c0.4,2.2-1.4,2.3-2.9,2.5c-14.2,1.2-27.8,5.1-41.2,9.5c-2.1,0.7-4.3,1.5-6.4,2.3
			c-0.2,0.1-0.6-0.1-1.2-0.3c0-3.5,1.6-7.8-3.4-9.8c-4.8,4.3-10.6,5-17.5,3.4c12.3-4.3,23.8-8.9,35.7-12.3c10-2.8,20.5-4.2,30.7-6.3
			c0.8-0.2,1.7-0.1,2.5-0.4c0.4-0.1,0.9-0.8,0.9-1l0.6-0.1C403.2,89.3,403.8,93.5,404.5,97.7z"/>
		<path class="st5" d="M402.4,85.1l-0.6,0.1c0,0,0,0,0,0c-0.2-0.5-0.7-1.2-1.1-1.2c-0.9-0.2-2-0.1-2.9,0c-15,2.3-29.8,4.8-44.1,10.2
			c-9.8,3.7-19.7,7.6-29.6,11c-3.5,1.2-7.4,1.4-11.1,1.8c-0.6,0.1-2-1.3-1.9-1.9c0.6-5,0.8-10.2,2.6-14.9c0.9-2.3,4.5-4,7.2-5.1
			c9-3.8,18.1-7.6,27.3-10.8c7.7-2.7,15.6-4.8,23.6-6.7c6.7-1.6,13.5-2.7,20.3-4.1c1-0.2,1.9-0.9,2.8-1.5l1.7-0.5
			c1.5,4.9,3.1,9.8,4.2,14.8C401.3,79.1,401.9,82.1,402.4,85.1z"/>
		<path class="st5" d="M396.4,61.4l-1.7,0.5c-1.1-0.4-2.2-1.3-3.1-1.2c-14.8,2.2-29.6,4.8-43.7,10.1c-8.6,3.2-17.3,6.1-25.9,9.2
			c-2.4,0.9-4.5,2.3-6.2,3.1c-0.2-2.3,0.4-4.7-0.6-6c-1-1.2-3.4-1.5-5.3-1.8c-1.9-0.3-4.5,1.8-5.4-0.9c-1-3,2.4-3.1,4.1-4
			c12.6-6.8,25.6-13.1,39.8-16.1c7.7-1.6,15.2-4.2,23-5.2c5.9-0.8,12,0.2,18,0.8c3,0.3,4.4,2.9,5.3,5.5
			C395.1,57.4,395.8,59.4,396.4,61.4z"/>
		<path class="st3" d="M393,268.3c0.1,0.7-0.5,2-1.1,2.2c-1.7,0.8-3.6,1.2-6,1.9c0.2-4.8,0.6-8.8,0.5-12.9c0-6.8-1.1-13.4-5.9-18.7
			c-0.9-0.9-1.9-1.8-2.9-2.5c-4.1-2.9-8.3-5.7-12.4-8.6c-0.7-0.5-1.1-1.6-1.3-2.5c-1-3.8-1.6-7.9-3-11.5c-2-5.1-1-9.8,0.7-14.5
			c1.6-4.4,3.6-8.7,5.6-13c0.4-0.8,1.5-1.4,2.3-2c0.6,0.8,1.4,1.5,1.8,2.4c6,13.6,9,28,11.9,42.5c2.2,10.7,5.5,21.2,8.4,31.9
			C392.1,264.8,392.8,266.5,393,268.3z"/>
		<path class="st6" d="M388.5,168.7c1,2,1.8,4.1,3,7c-3.8,0.2-6.7,0.2-9.6,0.5c-4.6,0.4-9.2,0.6-13.8,1.4c-3,0.5-3.1-1.2-3.2-3.1
			c-0.2-4.8-2-9-4.8-12.9c-4.7-6.7-11.2-9.5-19.2-9c-4,0.3-7.3-0.4-10.6-3.4c-7.2-6.7-16.3-10.1-25.5-12.9c-5-1.5-10.5-0.8-15.4,2.1
			c-2.5,1.5-5.1,2.8-7.6,4.4c-8.4,5.1-17.6,6.4-27.3,6.1c-9.7-0.3-19.3,1.1-28.7,3.7c-0.8,0.2-1.8,0.5-2.5,0.3
			c-5.7-1.6-11.3-3.5-15.9-7.4c-0.2-0.2-0.3-0.5-0.4-0.7c2.8-1.8,5.6-3.5,8.3-5.4c2.3-1.6,4.3-3.6,6.8-4.9c2.8-1.5,5.8-2.9,8.9-3.4
			c3.5-0.6,7.1,0,10.7-0.1c3.9-0.1,5.5-3.1,3.6-6.5c-0.5-0.9-1.1-1.9-2-2.5c-4.3-3.1-8.6-6.1-12.9-9.2c-1.1-0.8-2-1.9-2.9-2.8
			c1.1-0.9,2-2.2,3.3-2.7c7.3-3.2,15-3.1,22.5-1.1c5.2,1.4,10.2,4,15.2,6.3c2.5,1.1,4.5,0.5,5.3-2.2c4.1-14.5,15.6-20.4,28.7-24
			c4.3-1.2,4.9-0.3,3.8,3.9c-2.5,9.1-2.5,18.3-1.7,27.6c0.1,1.6,1,3.2,1.8,5.3c1.4-1.2,2.4-1.9,3-2.8c3.3-4.9,8.2-5.8,13.5-6
			c5.9-0.3,11.8-0.8,17.7-1.3c0.9-0.1,1.9-0.3,3.9-0.6c-0.7,3.8-1.1,7.1-2,10.3c-0.8,2.6-2.3,4.9-3.3,7.4c-0.3,0.8-0.5,2.1,0,2.6
			c0.5,0.5,1.7,0.5,2.6,0.4c0.8-0.1,1.7-0.5,2.4-0.9c4.6-3.1,9.6-2.5,13.8-0.1c5.4,3.1,10.9,4.9,17.1,5.1c1.7,0,3.4,0.9,5.1,1.4
			c-0.9,1.7-1.5,3.8-2.8,5.2c-2.5,2.5-5.6,4.4-8.1,6.8c-1.2,1.1-2.4,3.1-2.1,4.4c0.3,1.9,1.3,4.3,4.3,3.9
			C379.6,157.7,385,161.6,388.5,168.7z"/>
		<path class="st3" d="M385.1,128.6c0.6,1.8-0.2,2.8-2,2.7c-6.8-0.4-13.8,0.9-19.7-4.2c-2.7-2.3-6.5-3.1-10.6-5
			c8-5.9,16.2-9.2,25.2-10.5c0.7-0.1,2.1,0.8,2.4,1.5C382.1,118.3,383.5,123.5,385.1,128.6z"/>
		<path class="st4" d="M379.9,436.1c1.4,3.7,0.3,7.4-3.3,9.5c-2.3,1.4-4.8,2.7-7.4,3.1c-8.8,1.2-17.7,2.4-26.6,2.8
			c-6.9,0.3-13.8-0.5-20.7-0.8c-2.7-0.1-5.4,0.1-8.1,0c-6.9-0.3-9.4-2.6-12.1-9c-1.1-2.6-3.2-5-5.4-6.9c-2.4-2-5.2-3.5-8.1-4.7
			c-2.7-1.1-5.7-1.6-9.5-2.5c1.9-1.4,3.1-2.8,4.8-3.6c8.9-4.4,17.9-8.6,26.8-12.8c0.9-0.4,1.9-0.7,2.6-1.3c2.1-1.7,3.9-1.3,5.8,0.2
			c1.7,1.4,2.3,2.7,1.2,5c-1.2,2.6,0.4,4.7,3.2,4.2c3.6-0.7,7.1-1.7,10.5-3.1c8.2-3.2,16.5-5.8,25.3-6c1.5,0,3.1,0.3,4.6,0.5
			c0.1,0.4,0.1,0.9,0.2,1.3c-1.4,0.6-2.8,1.2-4.2,1.9c-1.8,0.9-3.8,1.7-5.2,3.1c-0.7,0.7-0.6,2.5-0.3,3.7c0.1,0.4,2.1,0.6,3.1,0.3
			c1.8-0.4,3.4-1.5,5.2-1.8c1.5-0.3,3.3-0.2,4.6,0.5c3.5,2,3.3,4.9-0.4,6.8c-1.7,0.9-3.8,1.3-5.1,2.5c-1.1,0.9-2.1,3.8-1.8,4.1
			c1.5,1.3,3.2,2.8,5.8,1.6c2-1,4.2-1.6,6.4-2C376.6,431.9,378.7,432.9,379.9,436.1z"/>
		<path class="st7" d="M379.8,37.8c0.8,3.4,0.4,4-2.9,3.7c-12.6-1.3-24.9,1.2-37.1,3.7c-2.3,0.5-4.4,1.6-6.6,2.6
			c-8.6,3.9-17.7,7-25,13.3c-0.4,0.3-0.9,0.5-2.1,1.2c-0.6-5.5-1.7-10.3-0.6-15.4c0.6-3,0.1-6.2,0.4-9.3c0.1-1.5,0.4-3.3,1.4-4.2
			c13.8-12.8,30.2-20,49.1-20.1c5.1,0,10.3,1.8,15.5,3c2.4,0.6,3.6,2.4,4.1,4.9C377.1,26.7,378.5,32.2,379.8,37.8z"/>
		<path class="st8" d="M348.8,163.6c7.7,5.5,11,13.2,9.9,22.5c-0.4,3.7-2.3,7.3-3.9,10.7c-1,2.2-3,2.6-5.1,1.1
			c-1-0.7-2.1-1.1-3.1-1.7c-1.7-0.9-2-2-0.9-3.6c2-2.9,2.7-6,2.1-9.5c-0.9-5.3-5.3-8-10.4-6c-1,0.4-2,0.6-3.6,1c0-2-0.1-3.5,0-5.1
			c0.1-1.2,0.7-2.4,0.6-3.5c-0.4-3.9,1-6.7,4.8-8.1S346,161.6,348.8,163.6z"/>
		<path class="st8" d="M323,153.7c3.7,3.5,5.4,7.8,5.3,12.8c-0.2,7.8-2.1,15.2-5.1,22.3c-0.6,1.5-1.8,3.1-3.2,4
			c-7.4,4.6-15.3,6.5-23.7,3.2c-3.1-1.2-3.4-1.9-1.4-4.6c2.3-3.1,2.7-6.5,1.8-10.1c-1.8-7.6-9.2-9-14.9-6.1c-4.4,2.2-7.6,6-8.4,11.2
			c-4.2,0-5.6-1.7-5-6.1c1.2-9.8,6-17.6,12.5-25c5.8-6.5,12.7-9.1,20.8-9.3C309.8,145.7,317.1,148,323,153.7z"/>
		<path class="st8" d="M288.7,247.9c0,4.5-0.6,5.1-4.6,3.5c-5-2-9.8-4.4-14.5-7c-2.8-1.5-2.7-3.1-0.5-5.4c3.3-3.3,6.9-5.9,11.7-6.3
			c3.9-0.3,6.7,2,7.1,5.8c0.2,1.6,0.1,3.2,0.3,4.8C288.3,244.9,288.5,246.4,288.7,247.9z"/>
		<path d="M226.1,287.2c4.3,4.1,6,9.3,5.4,15.2c-0.6,4.8-7.6,10.6-14.2,10.6c-1,0-2,0-2.9,0c0,0.1-0.1,0.3-0.1,0.4
			c-2.8-0.6-5.9-0.6-8.4-1.8c-5.7-2.7-7.3-7.9-5.8-15.3C202.7,283.3,219.1,280.5,226.1,287.2z M224.5,299.4c0-5.2-4.5-9.2-10.5-9.2
			c-3.4,0-6.1,2.8-6.1,6.6c-0.1,5.5,4.4,9.6,10.3,9.6C221.6,306.3,224.5,303.2,224.5,299.4z"/>
		<path class="st9" d="M214,290.2c6,0,10.5,4.1,10.5,9.2c0,3.7-3,6.9-6.4,6.9c-5.9,0-10.3-4.1-10.3-9.6
			C207.9,293,210.6,290.2,214,290.2z"/>
		<path d="M199.5,337.5c5.7,4.7,9.9,14.1,5.9,20.9c-0.9,1.6-1.7,3.3-2.1,5.1c-2.3,10.8-21.9,18.1-30.9,12.4c-1.9-1.2-4-2.1-6.1-3.1
			c-4.8-2.1-6.8-6.1-7.5-10.9c-0.7-4.7-1-9.4,0.5-14.1c2.4-7.8,11.8-16.2,21.3-15.6C187.2,332.9,193.7,332.9,199.5,337.5z
			 M183.4,371.3c7.4-0.1,15.1-7.8,15-15c-0.1-8.9-7.1-16.2-15.5-16.2c-8.6,0-16.9,8.1-16.9,16.4
			C166.1,363.6,175.2,371.4,183.4,371.3z"/>
		<path class="st9" d="M198.4,356.3c0.1,7.2-7.6,14.9-15,15c-8.2,0.1-17.3-7.7-17.4-14.8c-0.1-8.3,8.2-16.3,16.9-16.4
			C191.3,340.1,198.3,347.4,198.4,356.3z"/>
		<path class="st6" d="M200.3,166.9c-1.9,4-4.8,6.1-7.9,8.1c-7.3,4.5-14.6,9-21.9,13.6c-1.3,0.8-2.7,1.9-3.5,3.2
			c-2,3.1-4.2,2.8-7.1,1.4c-3.8-1.8-7.7-3.4-11.6-4.9c-2.3-0.9-2.7-2.5-1.2-3.9c3.6-3.5,7-7.8,11.4-9.7c11.9-5.1,24.7-7.5,37.7-8.1
			C197.3,166.6,198.5,166.8,200.3,166.9z"/>
		<path class="st9" d="M174,273.3c0.1,6.7-2.3,12.7-4.4,18.8c-2.3,6.9-6.6,11.3-13.1,14.2c-6.7,3-22.7,3.1-27.8-4
			c-2.6-3.7-3.8-7.4-2.2-12c2.6-7.2,4.6-14.6,7-21.9c1.2-3.6,2-7.5,4.2-10.4c1.8-2.3,5.1-4.2,8-4.8c6.3-1.3,12.6-1.6,18.8,1.7
			c4.7,2.6,7.6,5.8,8.4,11C173.5,268.4,173.7,270.9,174,273.3z"/>
		<path class="st6" d="M154.2,205.6c0.2,0.3,0.4,0.6,0.6,0.8c-2.4,2.9-4.7,5.8-7.1,8.6c-5.9,6.8-10.2,14.6-13.7,22.9
			c-0.5,1.2-0.7,2.6-1.5,3.5c-0.7,0.8-2,1.6-3,1.5c-4.6-0.2-9.2-0.8-13.8-1.1c-4.7-0.3-6-2.4-3.8-6.6c4.9-9.3,12-16.4,21.7-20.9
			c5.3-2.4,10.5-5.1,15.8-7.5C150.9,206.2,152.6,206,154.2,205.6z"/>
		<path class="st6" d="M121.8,265.1c-0.3,1.1-0.7,2.1-1,3.2c-2.6,8.4-5.4,16.8-7.6,25.3c-1,4-0.9,8.3-1,12.5
			c-0.1,2.3-0.7,2.9-3.1,2.6c-4-0.6-8.2-0.6-12.2-0.8c-1.1-0.1-2.2,0.1-3.2,0c-7.7-1.2-8.8-1.5-6-10.1c0.7-2.3,2.4-4.3,3.9-6.2
			c7.2-9.3,15.5-17.7,25.2-24.4c1.4-1,3-1.8,4.5-2.6C121.4,264.6,121.6,264.9,121.8,265.1z"/>
		<path class="st6" d="M107,329.5c0,8,2.6,14.9,0.1,22c-0.9,2.6-2.1,3.2-4.5,1.8c-2.2-1.2-4.5-2.1-6.7-3.3c-3.5-1.9-4.3-4.2-2-7.3
			c2.9-3.9,6.2-7.4,9.4-11C104.1,331,105.3,330.6,107,329.5z"/>
		<path class="st6" d="M89.3,368.3c2.3,1,2.4,2.5,0.3,3.7c-4,2.3-8.2,3.8-12.8,4c-3.5,0.1-2.6-2.4-2.8-4.3c0.1-0.9,0.1-1.9,0.2-2.8
			c0.7-4,2.1-5,6-3.9C83.3,365.9,86.4,367,89.3,368.3z"/>
		<path class="st6" d="M44.4,360.9c2.3,1,3.8,4.4,3.6,7.9c-3.2-0.5-6.5-3.4-7-6.1c-0.1-0.6,0.3-1.8,0.6-1.9
			C42.5,360.5,43.6,360.5,44.4,360.9z"/>
	</g>
</g>
</svg>
