<?xml version="1.0" encoding="utf-8"?>
<!-- Generator: Adobe Illustrator 19.1.0, SVG Export Plug-In . SVG Version: 6.00 Build 0)  -->
<svg version="1.1" xmlns="http://www.w3.org/2000/svg" xmlns:xlink="http://www.w3.org/1999/xlink" x="0px" y="0px"
	 viewBox="-197 269.3 216.5 255.7" style="enable-background:new -197 269.3 216.5 255.7;" xml:space="preserve">
<style type="text/css">
	.st0{opacity:0.62;}
	.st1{fill:#A967AA;}
	.st2{fill:#86328C;}
	.st3{fill:#602D91;}
	.st4{fill:#FFEC5F;}
	.st5{fill:#F190AC;}
	.st6{fill:#C8EAF5;stroke:#27AAE1;stroke-width:0.75;stroke-miterlimit:10;}
	.st7{fill:#C1172C;}
</style>
<g id="Layer_1">
	<g id="Layer_1_1_" class="st0">
	</g>
	<g id="monster_1" class="st0">
	</g>
	<g id="monster_2" class="st0">
		<image style="overflow:visible;" width="438" height="433" xlink:href="1AAE634D.png"  transform="matrix(1 0 0 1 -305 157)">
		</image>
	</g>
</g>
<g id="Layer_1_copy">
	<g id="Layer_1_3_">
	</g>
	<g id="monster_1_1_">
	</g>
	<g id="monster_2_1_">
		<g>
			
				<image style="display:none;overflow:visible;opacity:0.14;enable-background:new    ;" width="854" height="974" id="d_m2_4_" xlink:href="1AAE634F.jpg"  transform="matrix(0.176 0.2205 -0.2205 0.176 -58.1644 182.75)">
			</image>
			
				<image style="display:none;overflow:visible;opacity:0.14;enable-background:new    ;" width="854" height="974" id="d_m2_1_" xlink:href="1AAE634D.jpg"  transform="matrix(0.176 0.2205 -0.2205 0.176 -57.9978 183.7465)">
			</image>
			<path class="st1" d="M85.5,357.3L20.7,525c-32.7-13.9-60.5-32.5-80.3-58.7l46.3-117.2c1.5-0.1,3-0.2,4.5-0.3
				c0.8-0.1,1.6-0.1,2.4-0.1C25.4,347,56.3,349.1,85.5,357.3z"/>
			<path class="st1" d="M-12,344.2c4.3,5.6,8.3,12.8,11.9,22l-5.3,58.3l-43.2,43.8c-28.5,6.7-49.6-5.7-63.1-37.2
				c-2.1-4.9-4-10.3-5.8-16.1c-0.7-0.2-1.3-0.4-2-0.7c-19.3-6.6-32.6-18.4-38.7-37.5l5-6.1c10.3,13.7,24,19.2,41.4,19.2
				c-0.3-7.3,2.6-11.2,6.8-15.4c-11.8-2.5-19.6-11.4-27-25.8l6-8.3c12.3,9.6,21.3,10.9,34.6,14.3c0.7-3.8,2.1-6.4,4.9-7.7
				c-10.3-7.7-17-18.1-23.2-30.9l10.1-6c8.5,11.1,20.5,16.8,35,18.5c15.1-2.2,27.8-2.3,38.7,3.4C-20.9,334.8-16.3,338.7-12,344.2z"
				/>
			<path class="st2" d="M-33.4,459.7c-1.3,1.6-18.7,11.8-21.3,12.8c-0.7-0.8-1.4-1.7-2.1-2.6C-53,469.8-36.6,461.2-33.4,459.7z"/>
			<path class="st2" d="M-75.8,359.1c-5.4,3.2-11.1,9.8-15.1,18.5c-4.9,10.3-6.1,20.5-3.9,26.7c-3.4-5.6-2.7-16.3,2.4-27
				C-88.1,368.1-81.6,361.4-75.8,359.1z"/>
			<path class="st2" d="M-25.9,369.3c0.6,5.5-0.5,28.6-8,44.2c-8.4,17.4-17.5,29.5-25,35.6c3.7-4.1,7.7-9.9,11.7-16.8
				c3.7-6.5,7.3-14.1,10.6-22.3c2.4-6.1,4.5-12,6.1-17.7C-28.1,383.6-26.5,375.7-25.9,369.3z"/>
			<path class="st2" d="M-38.8,340.2c-0.1,2.4-0.8,4.9-2.2,7.2c-3.8,6.2-11,8.7-16.3,5.5c-1.4-0.8-2.4-1.9-3.2-3.3
				c0.7,0.8,1.5,1.6,2.4,2.1c5.3,3.2,13,0.4,17.1-6.4C-39.9,343.7-39.2,341.9-38.8,340.2z"/>
			<path class="st2" d="M-82.6,438.3c1.6,5,1.5,9.9,0.1,12.9c0.6-3.3,0.2-7.7-1.3-12.3c-1.6-5.2-4.3-9.4-6.9-11.7
				C-87.5,428.6-84.3,432.8-82.6,438.3z"/>
			<path class="st3" d="M-47.5,352.2c9,7.9,16.1,17.5,20.8,29.3c-0.8,3.6-1.6,7.2-2.6,10.6c-7.6,3.4-12.8,6.9-13.8,13.2l0,0
				c-0.2,1.2-0.1,2.3,0,3.6c0,0.1,0,0.2,0,0.2c0,0.2,0.1,0.4,0.1,0.6l0,0c0,0-0.1,0.1-0.2,0.2c-0.1,0.1-0.1,0.1-0.2,0.2
				c-0.1,0.1-0.2,0.3-0.3,0.4c-7.4,8.2-8.4,15.5-3.1,21.8c-1.3,2-2.7,4-4.1,6c-11.3,1.9-22.1,1.4-32.5-1.6c2.2-2.1,4.3-4.3,6.3-6.4
				c3-3.3,5.8-6.6,8.4-10c0.2-0.3,0.5-0.6,0.7-0.9c2.7-3.6,5.1-7.4,7.2-11.1l0,0c2.5-4.4,4.7-9,6.5-13.6c0.1-0.2,0.2-0.4,0.2-0.6
				c1.8-4.8,3.3-9.8,4.3-14.8c0.1-0.4,0.2-0.9,0.3-1.3c0.9-4.8,1.5-9.7,1.8-14.7C-47.4,359.5-47.4,355.9-47.5,352.2z"/>
			<path class="st4" d="M-77,430.2c3-3.3,5.8-6.6,8.4-10c2,4.7,3.6,9.5,2.3,10.9C-67.6,432.4-72.8,431.5-77,430.2z"/>
			<path class="st4" d="M-60.7,408.1c2.4,4,4.5,8.4,3.5,10.2c-0.7,1.1-6.9,1.9-10.7,1C-65.2,415.6-62.8,411.9-60.7,408.1z"/>
			<path class="st4" d="M-60.7,408.1c2.5-4.4,4.7-9,6.5-13.6c3,3.9,5,8.4,3.9,10.3C-51.7,407-56.5,408.1-60.7,408.1z"/>
			<path class="st4" d="M-54,393.9c1.8-4.8,3.3-9.8,4.3-14.8c3.6,4.1,6,8.5,5.1,10.4C-45.4,391.2-49.5,393-54,393.9z"/>
			<path class="st4" d="M-47.6,363c3.5,5.3,6.2,12.4,4.2,14.4c-0.8,0.8-3.2,0.8-6,0.4C-48.4,372.9-47.8,368-47.6,363z"/>
			<path class="st5" d="M-102.9,414.2c3.4,4.4,2.3,10.9-2.5,14.7c-1.9,1.5-4,2.3-6.2,2.5c-2.1-4.9-4-10.3-5.8-16.1
				c-0.7-0.2-1.3-0.4-2-0.7c0.5-0.5,1-1,1.6-1.5C-113,409.3-106.3,409.8-102.9,414.2z"/>
			
				<ellipse transform="matrix(-0.5603 -0.8283 0.8283 -0.5603 -510.1802 528.522)" class="st5" cx="-114.8" cy="399.7" rx="3.6" ry="4.6"/>
			<path class="st5" d="M-12.1,344.3c-0.5,1.6-1.4,3-2.7,4c-3.8,3-9.5,1.9-12.9-2.4c-3.3-4.3-3-10.1,0.8-13.1
				c0.3-0.2,0.5-0.4,0.8-0.6C-20.9,334.9-16.3,338.8-12.1,344.3z"/>
			
				<ellipse transform="matrix(-0.5766 -0.817 0.817 -0.5766 -564.2704 427.8061)" class="st6" cx="-171.3" cy="360.1" rx="24.6" ry="24.5"/>
			
				<ellipse transform="matrix(-0.767 -0.6417 0.6417 -0.767 -465.8382 493.9686)" class="st6" cx="-143.2" cy="331.6" rx="24.3" ry="24.5"/>
			
				<ellipse transform="matrix(-0.6001 -0.7999 0.7999 -0.6001 -425.3258 380.5965)" class="st6" cx="-117.5" cy="296.6" rx="26.7" ry="25.2"/>
			<path class="st2" d="M-73.7,368.1c-4.9,0.6-10.5,7-13.5,15.8c-2.6,7.6-2.4,15,0,19.1c-3.4-3.5-4.1-11.5-1.4-19.8
				C-85.4,373.7-79,367.3-73.7,368.1z"/>
			<path class="st2" d="M-6.4,348.7c0.7,1.1,1.3,2.3,1.8,3.6c1.5,3.4,5.3,15.6,5.5,18.3c-2.2-5-7.4-18.1-9.8-21.8
				C-8,348.8-7.2,348.8-6.4,348.7z"/>
			<g>
				<path class="st5" d="M-27.9,391.1c-0.4,2-1,4.1-1.6,6.3c-3.8,13.7-9.4,25.7-16.7,36.1c-0.4-0.4-0.8-0.8-1.2-1.2
					c-5.1-5.8-4.4-12.9,3.6-21.8c0.2-0.2,0.5-0.5,0.7-0.8c-0.5-2.4-0.2-4.7,0.5-6.7c1.7-4.6,6.3-8.2,11.9-10.8
					C-29.7,391.8-28.8,391.4-27.9,391.1z"/>
				<path class="st7" d="M-40,413.3c-0.7,0-1.4-0.2-2-0.6c-0.8-0.5-1.4-1.3-1.8-2.2c0.2-0.2,0.5-0.5,0.7-0.7
					C-43,410.8-40.4,413.4-40,413.3z"/>
			</g>
		</g>
	</g>
</g>
</svg>
