<?xml version="1.0" encoding="utf-8"?>
<!-- Generator: Adobe Illustrator 19.1.0, SVG Export Plug-In . SVG Version: 6.00 Build 0)  -->
<svg version="1.1" id="Layer_1" xmlns="http://www.w3.org/2000/svg" xmlns:xlink="http://www.w3.org/1999/xlink" x="0px" y="0px"
	 viewBox="-204 262.2 201.7 269.8" style="enable-background:new -204 262.2 201.7 269.8;" xml:space="preserve">
<style type="text/css">
	.st0{fill:#0083CA;}
	.st1{fill:#A967AA;stroke:#FFFFFF;stroke-width:0.25;stroke-miterlimit:10;}
	.st2{fill:#00A651;stroke:#006838;stroke-miterlimit:10;}
	.st3{fill:#86328C;stroke:#602D91;stroke-miterlimit:10;}
	.st4{fill:#0083CA;stroke:#602D91;stroke-miterlimit:10;}
	.st5{fill:#FFFFFF;stroke:#2E3192;stroke-miterlimit:10;}
	.st6{fill:#006838;}
	.st7{fill:#86328C;}
	.st8{fill:#006838;stroke:#006838;stroke-width:2;stroke-miterlimit:10;}
	.st9{fill:#FFF200;}
	.st10{fill:#FFFAC0;}
</style>
<g id="Layer_1_1_">
</g>
<g>
	<path class="st0" d="M-45.2,394L-61,424.2c29.4,22.6,63,3.4,56.9-19.8c-0.3-1.3-1.7-1.9-2.9-1.3C-21.2,410.6-28.9,411.5-45.2,394z"
		/>
	<path class="st1" d="M-83.5,306.4c1-4.2-0.8-7.8-2.6-12.6c6.8-2.3,16.4,10.2,16.4,10.2s-3.6-17.6-8.4-23.6
		c15.3,3.9,23.8,13.5,22.3,29.9c7-0.2,12.4-6,16.5-16.2c5.3,9.5,7,19.9,2.4,32c18,0.4,26.9,6.9,31.2,16.5
		c-8.8-2.6-16.8-3.5-23.6-1.1c8.3,6.9,12.9,17.7,10,31c-5.4-6.5-10.6-11-15.9-13.4c4.4,6.2,5,14.2,3.9,22.9l-17.4-6.1L-83.5,306.4z"
		/>
	<path class="st2" d="M-52.5,448.9c0,0,4.5,4.4,4.2,15.8c-0.8,36.4-34,53.4-69.5,61.2c-10.4,2.3-21,3.8-31,4.7
		c-29.7,2.8-54.3,0.9-54.3,0.9l-61.2-177.9c0,0,23.3-33.8,39.1-44.8c1.8-1.2,3.4-2.2,4.9-2.7c6.8-2.6,13.5-4.7,19.9-6.4
		c5.9-1.6,11.6-2.9,17-3.9c9.2-1.7,17.5-2.7,24.7-3.2c16.6-1.1,27.1,0.2,27.8,0.3C-70,297-52.6,321.3-46,340.3
		C-25.3,400.1-52.5,448.9-52.5,448.9z"/>
	<path class="st3" d="M-80.9,270.1c-0.3,0.2-4.5,4.5-7.1,8.4c-0.6,0.9-1.1,1.8-1.5,2.5c-2.1,4.3-3.2,8.9-3.9,13.6
		c-7,1.3-14.2,0.7-20.9-1.6c-5.4-1.8-11-4.7-14.7-9.1c3.4-7.9,9-14.2,17.1-17.5c1.1-0.5,2.2-0.8,3.3-1.1c12.7-3.7,26.6,0.5,27.4,1
		C-79.8,267.1-79.6,269.1-80.9,270.1z"/>
	<path class="st4" d="M-93.4,294.7c-0.5,4.2-0.7,8.7-0.7,13.4c0,1.9-1.3,3.6-3.2,4c-14.2,3.4-26.4,1.9-34.8-8.4
		c-1-1.2-1.4-2.9-1.1-4.4c1-5.9,2.4-10.9,4.2-15.2h0.1c5.1,6.2,16.7,11.4,28.3,11.4C-98.3,295.4-95.8,295.1-93.4,294.7z"/>
	<path class="st4" d="M-80.9,270.1c-0.3,0.2-4.5,4.5-7.1,8.4c-9.5-0.6-18.3-4.5-20.5-13.3c12.7-3.7,26.6,0.5,27.4,1
		C-79.8,267.1-79.6,269.1-80.9,270.1z"/>
	<path class="st5" d="M-69.2,363.4c-8.7,5.7-19.4,5.6-27.3,0.7c-0.6-0.4-1.2-0.8-1.8-1.3c-0.4-4-1.2-8-2.4-12
		c-1.8-5.7-3.8-10.9-6.1-15.3c0.2-0.7,0.5-1.5,0.9-2.2c1.6-3.4,4.2-6.5,7.9-8.9c11.7-7.6,29.8-5.8,37,5.2
		C-53.9,340.7-57.5,355.8-69.2,363.4z"/>
	<path class="st5" d="M-35.1,412.4c-4.6,3.8-10,5.9-15.4,6.4c-0.7,0.1-1.5,0.1-2.2,0.1c-4.1-5.8-9.8-11.9-16.7-17.5
		c-3.4-2.8-6.8-5.2-10.1-7.3c0-0.6,0-1.3,0-1.9c0.3-7.9,3.9-15.8,10.8-21.3c12.1-9.8,29.4-8.5,38.7,2.9
		C-20.7,385.3-23,402.6-35.1,412.4z"/>
	<path class="st6" d="M-99.5,378c0.7-4.7,0.9-9.9,0.4-15.2c-0.4-4-1.2-8-2.4-12c-1.8-5.7-3.8-10.9-6.1-15.3c-2.3-4.4-4.7-8-7.3-10.7
		c2.8,1.8,5.6,4.7,8.1,8.6c2.9,4.4,5.5,10,7.5,16.4c1.4,4.6,2.1,9.5,2,14.2C-97.3,369-98.1,373.8-99.5,378z"/>
	<path class="st6" d="M-47.2,431c-1.2-3.5-3.2-7.4-6.1-11.5c-4.1-5.8-9.8-11.9-16.7-17.5c-3.4-2.8-6.8-5.2-10.1-7.3
		c-3.8-2.4-7.5-4.3-11-5.8c3.4,0.7,7.1,2,11,3.9c4.4,2.2,9.1,5.2,13.5,8.8c6.8,5.6,12.2,11.8,15.5,17.8
		C-48.7,423.6-47.3,427.6-47.2,431z"/>
	<path class="st7" d="M-26.2,433.6c-2.3-4.1-3.8-9.2-4-15c-0.2-4.3,0.5-8.1,1.9-11.5c6.9,2.5,13,0.4,21.3-4c1.1-0.6,2.5,0,2.9,1.3
		C-0.5,418.2-10.9,430.6-26.2,433.6z"/>
	<path class="st0" d="M-7.9,422.8c-7-2-12-7.5-12-14c0-0.3,0-0.5,0-0.8c4-0.5,8.1-2.3,12.9-4.9c1.1-0.6,2.5,0,2.9,1.3
		C-2.3,411.2-4,417.7-7.9,422.8z"/>
	<path class="st8" d="M-62.3,469.4c-0.8-0.5-1.6-1.1-2.4-1.6c-7.1-4.9-13.9-10.4-20.2-16.3c-6.6-6.2-12.7-12.9-18.2-20
		c-4-5-7.6-10.3-10.9-15.6c-5.4-8.7-9.9-17.7-13.5-26.7c-3-7.7-5.4-15.5-6.9-23.2c-2.4-12.1-2.9-24.1-1.2-35.4
		c-0.4,12.3,0.8,24.4,3.6,36.3c1.7,7.1,3.9,14.2,6.7,21.1c3.7,9.1,8.4,18.1,14.1,27c3.1,4.9,6.5,9.7,10.3,14.5
		c5.5,7.1,11.5,14,18.3,20.9c5.6,5.8,11.7,11.5,18.1,17.1C-63.8,468.1-63.1,468.7-62.3,469.4z"/>
	<path id="left_cheek_1_" class="st6" d="M-115.9,327.5c-4.5,4.3-13,7-21.1,4.4c-9.4-3.1-15.3-12-14.8-19
		c0.3,6.7,6.5,13.6,15.6,16.6C-128.3,331.9-120.6,331-115.9,327.5z"/>
	<path class="st9" d="M-125.3,388c-0.7,0.5-1.4,0.9-2.2,1.2c-3-7.7-5.4-15.5-6.9-23.2c0.8,0.3,1.6,0.6,2.3,0.9
		c5.5,2.1,11.1,4,15.3,4.2C-112,373.2-117.6,383.1-125.3,388z"/>
	<path class="st9" d="M-101,429.5c-0.7,0.8-1.4,1.4-2.1,1.9c-4-5-7.6-10.3-10.9-15.6c0.8-0.2,1.8-0.5,2.8-0.8c4.6-1.5,11-4,13.9-3.7
		C-93.2,411.8-96,423.7-101,429.5z"/>
	<path class="st9" d="M-64.6,467.4c0,0.1-0.1,0.2-0.1,0.3c-7.1-4.9-13.9-10.4-20.2-16.3c0.6-0.3,1.3-0.7,2.1-1.1
		c5.6-2.7,14.8-6.4,20.2-6.4C-58.3,444-61.7,457.9-64.6,467.4z"/>
	<path id="right_cheek_1_" class="st6" d="M-52.5,448.9c0.2,3-0.3,8.5-2.7,12.5c-2.2,3.7-4.8,6.7-7.2,8
		C-58.3,463.2-55.8,455.5-52.5,448.9z"/>
	<path class="st10" d="M-111.1,508.1c0,6.8-2.5,13-6.7,17.7c-10.4,2.3-21,3.8-31,4.7c-7.3-4.5-12.3-12.9-12.3-22.4
		c0-14.4,11.2-26,25-26C-122.3,482.1-111.1,493.7-111.1,508.1z"/>
	
		<ellipse transform="matrix(-0.5671 -0.8236 0.8236 -0.5671 -564.253 581.1049)" class="st10" cx="-129.4" cy="438.8" rx="14" ry="12"/>
	
		<ellipse transform="matrix(-0.6848 -0.7287 0.7287 -0.6848 -571.5219 569.5956)" class="st10" cx="-162.6" cy="408.4" rx="10.4" ry="8.8"/>
	<path class="st10" d="M-197.1,307.6c0,6.8-6.3,12.3-14.1,12.3c-7.3,0-13.3-4.8-14-11c1.8-1.2,3.4-2.2,4.9-2.7
		c6.8-2.6,13.5-4.7,19.9-6.4C-198.3,301.8-197.1,304.6-197.1,307.6z"/>
	<path class="st10" d="M-158.7,292.6c-0.7,5.9-6.1,10.5-12.8,10.5c-5.4,0-10-3-11.9-7.4C-174.2,294-165.9,293.1-158.7,292.6z"/>
	<ellipse class="st10" cx="-169.6" cy="323.4" rx="5.5" ry="7.1"/>
</g>
<g id="monster_2">
</g>
</svg>
