<?xml version="1.0" encoding="utf-8"?>
<!-- Generator: Adobe Illustrator 19.1.0, SVG Export Plug-In . SVG Version: 6.00 Build 0)  -->
<svg version="1.1" xmlns="http://www.w3.org/2000/svg" xmlns:xlink="http://www.w3.org/1999/xlink" x="0px" y="0px"
	 viewBox="0 0 201.7 269.8" style="enable-background:new 0 0 201.7 269.8;" xml:space="preserve">
<style type="text/css">
	.st0{fill:#0083CA;}
	.st1{fill:#A967AA;stroke:#FFFFFF;stroke-width:0.25;stroke-miterlimit:10;}
	.st2{fill:#00A651;stroke:#006838;stroke-miterlimit:10;}
	.st3{fill:#86328C;stroke:#602D91;stroke-miterlimit:10;}
	.st4{fill:#0083CA;stroke:#602D91;stroke-miterlimit:10;}
	.st5{fill:#FFFFFF;stroke:#2E3192;stroke-miterlimit:10;}
	.st6{fill:#006838;}
	.st7{fill:#86328C;}
	.st8{fill:#006838;stroke:#006838;stroke-width:2;stroke-miterlimit:10;}
	.st9{fill:#FFF200;}
	.st10{fill:#FFFAC0;}
	.st11{fill:#A967AA;}
	.st12{fill:#602D91;}
	.st13{fill:#FFEC5F;}
	.st14{fill:#F190AC;}
	.st15{fill:#C8EAF5;stroke:#27AAE1;stroke-width:0.75;stroke-miterlimit:10;}
	.st16{fill:#C1172C;}
</style>
<g id="Layer_1">
</g>
<g id="monster_1">
	<g>
		<path class="st0" d="M158.8,131.8L143,162c29.4,22.6,63,3.4,56.9-19.8c-0.3-1.3-1.7-1.9-2.9-1.3
			C182.8,148.4,175.1,149.3,158.8,131.8z"/>
		<path class="st1" d="M120.5,44.2c1-4.2-0.8-7.8-2.6-12.6c6.8-2.3,16.4,10.2,16.4,10.2s-3.6-17.6-8.4-23.6
			c15.3,3.9,23.8,13.5,22.3,29.9c7-0.2,12.4-6,16.5-16.2c5.3,9.5,7,19.9,2.4,32c18,0.4,26.9,6.9,31.2,16.5
			c-8.8-2.6-16.8-3.5-23.6-1.1c8.3,6.9,12.9,17.7,10,31c-5.4-6.5-10.6-11-15.9-13.4c4.4,6.2,5,14.2,3.9,22.9l-17.4-6.1L120.5,44.2z"
			/>
		<path class="st2" d="M151.5,186.7c0,0,4.5,4.4,4.2,15.8c-0.8,36.4-34,53.4-69.5,61.2c-10.4,2.3-21,3.8-31,4.7
			c-29.7,2.8-54.3,0.9-54.3,0.9L-60.3,91.4c0,0,23.3-33.8,39.1-44.8c1.8-1.2,3.4-2.2,4.9-2.7c6.8-2.6,13.5-4.7,19.9-6.4
			c5.9-1.6,11.6-2.9,17-3.9c9.2-1.7,17.5-2.7,24.7-3.2c16.6-1.1,27.1,0.2,27.8,0.3c60.9,4.1,78.3,28.4,84.9,47.4
			C178.7,137.9,151.5,186.7,151.5,186.7z"/>
		<path class="st3" d="M123.1,7.9c-0.3,0.2-4.5,4.5-7.1,8.4c-0.6,0.9-1.1,1.8-1.5,2.5c-2.1,4.3-3.2,8.9-3.9,13.6
			c-7,1.3-14.2,0.7-20.9-1.6c-5.4-1.8-11-4.7-14.7-9.1c3.4-7.9,9-14.2,17.1-17.5c1.1-0.5,2.2-0.8,3.3-1.1c12.7-3.7,26.6,0.5,27.4,1
			C124.2,4.9,124.4,6.9,123.1,7.9z"/>
		<path class="st4" d="M110.6,32.5c-0.5,4.2-0.7,8.7-0.7,13.4c0,1.9-1.3,3.6-3.2,4c-14.2,3.4-26.4,1.9-34.8-8.4
			c-1-1.2-1.4-2.9-1.1-4.4c1-5.9,2.4-10.9,4.2-15.2c0,0,0.1,0,0.1,0c5.1,6.2,16.7,11.4,28.3,11.4C105.7,33.2,108.2,32.9,110.6,32.5z
			"/>
		<path class="st4" d="M123.1,7.9c-0.3,0.2-4.5,4.5-7.1,8.4c-9.5-0.6-18.3-4.5-20.5-13.3c12.7-3.7,26.6,0.5,27.4,1
			C124.2,4.9,124.4,6.9,123.1,7.9z"/>
		<path class="st5" d="M134.8,101.2c-8.7,5.7-19.4,5.6-27.3,0.7c-0.6-0.4-1.2-0.8-1.8-1.3c-0.4-4-1.2-8-2.4-12
			c-1.8-5.7-3.8-10.9-6.1-15.3c0.2-0.7,0.5-1.5,0.9-2.2c1.6-3.4,4.2-6.5,7.9-8.9c11.7-7.6,29.8-5.8,37,5.2
			C150.1,78.5,146.5,93.6,134.8,101.2z"/>
		<path class="st5" d="M168.9,150.2c-4.6,3.8-10,5.9-15.4,6.4c-0.7,0.1-1.5,0.1-2.2,0.1c-4.1-5.8-9.8-11.9-16.7-17.5
			c-3.4-2.8-6.8-5.2-10.1-7.3c0-0.6,0-1.3,0-1.9c0.3-7.9,3.9-15.8,10.8-21.3c12.1-9.8,29.4-8.5,38.7,2.9
			C183.3,123.1,181,140.4,168.9,150.2z"/>
		<path class="st6" d="M104.5,115.8c0.7-4.7,0.9-9.9,0.4-15.2c-0.4-4-1.2-8-2.4-12c-1.8-5.7-3.8-10.9-6.1-15.3
			c-2.3-4.4-4.7-8-7.3-10.7c2.8,1.8,5.6,4.7,8.1,8.6c2.9,4.4,5.5,10,7.5,16.4c1.4,4.6,2.1,9.5,2,14.2
			C106.7,106.8,105.9,111.6,104.5,115.8z"/>
		<path class="st6" d="M156.8,168.8c-1.2-3.5-3.2-7.4-6.1-11.5c-4.1-5.8-9.8-11.9-16.7-17.5c-3.4-2.8-6.8-5.2-10.1-7.3
			c-3.8-2.4-7.5-4.3-11-5.8c3.4,0.7,7.1,2,11,3.9c4.4,2.2,9.1,5.2,13.5,8.8c6.8,5.6,12.2,11.8,15.5,17.8
			C155.3,161.4,156.7,165.4,156.8,168.8z"/>
		<circle cx="133.6" cy="82.3" r="6.4"/>
		<circle cx="164.5" cy="130.1" r="6.4"/>
		<path class="st7" d="M177.8,171.4c-2.3-4.1-3.8-9.2-4-15c-0.2-4.3,0.5-8.1,1.9-11.5c6.9,2.5,13,0.4,21.3-4c1.1-0.6,2.5,0,2.9,1.3
			C203.5,156,193.1,168.4,177.8,171.4z"/>
		<path class="st0" d="M196.1,160.6c-7-2-12-7.5-12-14c0-0.3,0-0.5,0-0.8c4-0.5,8.1-2.3,12.9-4.9c1.1-0.6,2.5,0,2.9,1.3
			C201.7,149,200,155.5,196.1,160.6z"/>
		<path class="st8" d="M141.7,207.2c-0.8-0.5-1.6-1.1-2.4-1.6c-7.1-4.9-13.9-10.4-20.2-16.3c-6.6-6.2-12.7-12.9-18.2-20
			c-4-5-7.6-10.3-10.9-15.6C84.6,145,80.1,136,76.5,127c-3-7.7-5.4-15.5-6.9-23.2c-2.4-12.1-2.9-24.1-1.2-35.4
			C68,80.7,69.2,92.8,72,104.7c1.7,7.1,3.9,14.2,6.7,21.1c3.7,9.1,8.4,18.1,14.1,27c3.1,4.9,6.5,9.7,10.3,14.5
			c5.5,7.1,11.5,14,18.3,20.9c5.6,5.8,11.7,11.5,18.1,17.1C140.2,205.9,140.9,206.5,141.7,207.2z"/>
		<path id="left_cheek_1_" class="st6" d="M88.1,65.3c-4.5,4.3-13,7-21.1,4.4c-9.4-3.1-15.3-12-14.8-19c0.3,6.7,6.5,13.6,15.6,16.6
			C75.7,69.7,83.4,68.8,88.1,65.3z"/>
		<path class="st9" d="M78.7,125.8c-0.7,0.5-1.4,0.9-2.2,1.2c-3-7.7-5.4-15.5-6.9-23.2c0.8,0.3,1.6,0.6,2.3,0.9
			c5.5,2.1,11.1,4,15.3,4.2C92,111,86.4,120.9,78.7,125.8z"/>
		<path class="st9" d="M103,167.3c-0.7,0.8-1.4,1.4-2.1,1.9c-4-5-7.6-10.3-10.9-15.6c0.8-0.2,1.8-0.5,2.8-0.8c4.6-1.5,11-4,13.9-3.7
			C110.8,149.6,108,161.5,103,167.3z"/>
		<path class="st9" d="M139.4,205.2c0,0.1-0.1,0.2-0.1,0.3c-7.1-4.9-13.9-10.4-20.2-16.3c0.6-0.3,1.3-0.7,2.1-1.1
			c5.6-2.7,14.8-6.4,20.2-6.4C145.7,181.8,142.3,195.7,139.4,205.2z"/>
		<path id="right_cheek_1_" class="st6" d="M151.5,186.7c0.2,3-0.3,8.5-2.7,12.5c-2.2,3.7-4.8,6.7-7.2,8
			C145.7,201,148.2,193.3,151.5,186.7z"/>
		<path class="st10" d="M92.9,245.9c0,6.8-2.5,13-6.7,17.7c-10.4,2.3-21,3.8-31,4.7c-7.3-4.5-12.3-12.9-12.3-22.4
			c0-14.4,11.2-26,25-26C81.7,219.9,92.9,231.5,92.9,245.9z"/>
		<ellipse transform="matrix(0.8236 -0.5671 0.5671 0.8236 -87.0112 73.4876)" class="st10" cx="74.6" cy="176.6" rx="12" ry="14"/>
		
			<ellipse transform="matrix(0.7287 -0.6848 0.6848 0.7287 -88.8661 68.0099)" class="st10" cx="41.4" cy="146.2" rx="8.8" ry="10.4"/>
		<path class="st10" d="M6.9,45.4c0,6.8-6.3,12.3-14.1,12.3c-7.3,0-13.3-4.8-14-11c1.8-1.2,3.4-2.2,4.9-2.7
			c6.8-2.6,13.5-4.7,19.9-6.4C5.7,39.6,6.9,42.4,6.9,45.4z"/>
		<path class="st10" d="M45.3,30.4c-0.7,5.9-6.1,10.5-12.8,10.5c-5.4,0-10-3-11.9-7.4C29.8,31.8,38.1,30.9,45.3,30.4z"/>
		<ellipse class="st10" cx="34.4" cy="61.2" rx="5.5" ry="7.1"/>
	</g>
</g>
<g id="monster_2">
</g>
</svg>
