<?xml version="1.0" encoding="utf-8"?>
<!-- Generator: Adobe Illustrator 19.1.0, SVG Export Plug-In . SVG Version: 6.00 Build 0)  -->
<svg version="1.1" id="Layer_1" xmlns="http://www.w3.org/2000/svg" xmlns:xlink="http://www.w3.org/1999/xlink" x="0px" y="0px"
	 viewBox="0 0 92.3 132.9" style="enable-background:new 0 0 92.3 132.9;" xml:space="preserve">
<style type="text/css">
	.st0{fill:#1563AC;}
	.st1{fill:#1563AC;stroke:#FFFFFF;stroke-width:26;stroke-linecap:round;stroke-miterlimit:10;}
	.st2{fill:none;stroke:#1563AC;stroke-width:22;stroke-miterlimit:10;}
	.st3{display:none;}
	.st4{display:inline;fill:#642C82;}
	.st5{display:inline;}
	.st6{fill:#642C82;}
</style>
<g>
	<path class="st0" d="M80.9,132.9H14c-3.8,0-6.9-3.1-6.9-6.1V35.4h80.8v91.4C87.8,129.8,84.7,132.9,80.9,132.9z M28.6,115.4v-65
		c0-3.1-2.5-5.6-5.6-5.6s-5.6,2.5-5.6,5.6v65c0,3.1,2.5,5.6,5.6,5.6S28.6,118.4,28.6,115.4z M53.2,115.4v-65c0-3.1-2.5-5.6-5.6-5.6
		s-5.6,2.5-5.6,5.6v65c0,3.1,2.5,5.6,5.6,5.6S53.2,118.4,53.2,115.4z M78.2,115.4v-65c0-3.1-2.5-5.6-5.6-5.6s-5.6,2.5-5.6,5.6v65
		c0,3.1,2.5,5.6,5.6,5.6S78.2,118.4,78.2,115.4z"/>
	<path class="st0" d="M66.9,16.8v0.1c0,3.8-1.9,12.5-19.9,12.5s-19.9-8.8-19.9-12.5v-0.1H66.9z"/>
	<path class="st0" d="M57.5,16.8v0.1c0,1.8-4.4,3.1-10.5,3.1s-10.5-1.3-10.5-3.1v-0.1h-9.4v0.1c0,3.8,1.9,12.5,19.9,12.5
		s19.9-8.8,19.9-12.5v-0.1H57.5z"/>
	<path class="st0" d="M36.5,16.8h-9.4c0.1-8.4,8.8-15,19.9-15c11.1,0,19.8,6.6,19.9,15h-9.4c-0.1-2.7-4.6-5.6-10.5-5.6
		C41.1,11.3,36.7,14.2,36.5,16.8z"/>
	<g>
		<path class="st0" d="M92.3,25.2v6H0v-6c0-4.6,3.7-8.3,8.3-8.3h18.8v0.1c0,3.8,1.9,12.5,19.9,12.5s19.9-8.8,19.9-12.5v-0.1H84
			C88.6,16.8,92.3,20.6,92.3,25.2z"/>
	</g>
</g>
<g class="st3">
	<path class="st4" d="M80.9,132.9H14c-3.8,0-6.9-3.1-6.9-6.1V35.4h80.8v91.4C87.8,129.8,84.7,132.9,80.9,132.9z M28.6,115.4v-65
		c0-3.1-2.5-5.6-5.6-5.6s-5.6,2.5-5.6,5.6v65c0,3.1,2.5,5.6,5.6,5.6S28.6,118.4,28.6,115.4z M53.2,115.4v-65c0-3.1-2.5-5.6-5.6-5.6
		s-5.6,2.5-5.6,5.6v65c0,3.1,2.5,5.6,5.6,5.6S53.2,118.4,53.2,115.4z M78.2,115.4v-65c0-3.1-2.5-5.6-5.6-5.6s-5.6,2.5-5.6,5.6v65
		c0,3.1,2.5,5.6,5.6,5.6S78.2,118.4,78.2,115.4z"/>
	<path class="st4" d="M66.9,16.8v0.1c0,3.8-1.9,12.5-19.9,12.5s-19.9-8.8-19.9-12.5v-0.1H66.9z"/>
	<path class="st4" d="M57.5,16.8v0.1c0,1.8-4.4,3.1-10.5,3.1s-10.5-1.3-10.5-3.1v-0.1h-9.4v0.1c0,3.8,1.9,12.5,19.9,12.5
		s19.9-8.8,19.9-12.5v-0.1H57.5z"/>
	<path class="st4" d="M36.5,16.8h-9.4c0.1-8.4,8.8-15,19.9-15c11.1,0,19.8,6.6,19.9,15h-9.4c-0.1-2.7-4.6-5.6-10.5-5.6
		C41.1,11.3,36.7,14.2,36.5,16.8z"/>
	<g class="st5">
		<path class="st6" d="M92.3,25.2v6H0v-6c0-4.6,3.7-8.3,8.3-8.3h18.8v0.1c0,3.8,1.9,12.5,19.9,12.5s19.9-8.8,19.9-12.5v-0.1H84
			C88.6,16.8,92.3,20.6,92.3,25.2z"/>
	</g>
</g>
</svg>
